<svg xmlns="http://www.w3.org/2000/svg" viewBox="0 0 327.1 326.9"><style type="text/css">.st0{fill:#5F6A00;}.st1{fill-rule:evenodd;clip-rule:evenodd;fill:#5CA432;}.st2{fill-rule:evenodd;clip-rule:evenodd;fill:#672423;}.st3{fill-rule:evenodd;clip-rule:evenodd;fill:#5CA432;stroke:#AFCC51;stroke-width:0.2467;stroke-miterlimit:22.9256;}.st4{fill-rule:evenodd;clip-rule:evenodd;fill:#75B731;}.st5{fill-rule:evenodd;clip-rule:evenodd;fill:#3A925B;}.st6{fill-rule:evenodd;clip-rule:evenodd;fill:#935637;}.st7{fill-rule:evenodd;clip-rule:evenodd;fill:#AA663E;}.st8{fill-rule:evenodd;clip-rule:evenodd;fill:#D4912A;}.st9{fill-rule:evenodd;clip-rule:evenodd;fill:#EFE860;}.st10{fill-rule:evenodd;clip-rule:evenodd;fill:#00B3D4;}.st11{fill-rule:evenodd;clip-rule:evenodd;fill:#F9F6C8;}.st12{fill-rule:evenodd;clip-rule:evenodd;fill:#6CC5D4;}.st13{fill-rule:evenodd;clip-rule:evenodd;fill:#008FAC;}.st14{fill-rule:evenodd;clip-rule:evenodd;fill:#00A6D4;}.st15{fill-rule:evenodd;clip-rule:evenodd;fill:#B7AC5C;}.st16{fill:#FFFFFF;}.st17{fill:#EAEAEA;}.st18{fill:#009DCB;}.st19{fill:#CCAB6B;}.st20{fill:none;stroke:#CCAB6B;stroke-width:4;stroke-linecap:round;stroke-miterlimit:10;}.st21{fill:#A4BDE0;}.st22{fill:#B0D0FF;}.st23{fill:#5f40b9;}.st24{fill:#5f40b9;}.st25{fill:none;stroke:#A4BDE0;stroke-width:13;stroke-miterlimit:10;}.st26{fill:#C4E3FA;}.st27{opacity:0.15;fill:#3F6CB3;}</style><path class="st0" d="M137.6 155.3l-25.5 19.5c-1.4 1.1-1.8 3-0.9 4.2l30.9 40.4c0.9 1.2 2.9 1.3 4.3 0.2l69.4-53c1.4-1.1 1.8-3 0.9-4.2L185.7 122c-0.9-1.2-2.9-1.3-4.3-0.2l-25.5 19.5M132.6 168.8c4.2-3.2 10.3-2.4 13.5 1.8 3.2 4.2 2.4 10.3-1.8 13.5 -4.2 3.2-10.3 2.4-13.5-1.8C127.5 178.1 128.3 172 132.6 168.8M147.7 185.5l0.8 1c0.2 0.2 0.3 0.5 0.3 0.5 0 0-0.1 0.3-0.2 0.6l-0.4 0.9c-0.1 0.3-0.4 0.5-0.7 0.6l-1 0.1c-0.3 0-0.6 0.1-0.6 0.1 0 0-0.2-0.2-0.4-0.4l-0.8-1c-0.2-0.2-0.1-0.6 0.1-0.8l2.2-1.7C147.2 185.2 147.5 185.2 147.7 185.5M170.8 191.7l-26.1 20 -5.9-7.8c-3.4-4.5-2.7-10.8 1.5-14.5l8.7 4.8 -2.1-3.7c-0.1-0.3 0-0.5 0.3-0.5l1-0.1c0.3 0 0.6-0.3 0.7-0.6l0.4-0.9c0.1-0.3 0.4-0.3 0.6-0.1l3 2.9 -2.3-9.6c4.6-3.1 10.9-2.1 14.4 2.4C164.8 183.9 170.8 191.7 170.8 191.7zM189.3 168.2l-17.1 13 -2.6-3.5 17.1-13L189.3 168.2zM196.7 150.1l-30.4 23.3 -2.6-3.5 30.4-23.3L196.7 150.1 196.7 150.1zM190.6 142.2l-30.4 23.3 -2.6-3.5 30.4-23.3L190.6 142.2 190.6 142.2z"/><path class="st1" d="M65.8 23.3l145.9 35.8c0.9 0.2 1.4 1.1 1.2 1.9l-3.6 14.6c-0.2 0.9-1.1 1.4-1.9 1.2L61.4 41c-0.8-0.2-1.4-1.1-1.2-1.9l3.6-14.6C64 23.6 64.9 23.1 65.8 23.3z"/><path class="st2" d="M62.3 33.2l76.9 9.2 -8 66.4 -77.2-9.3c-3.4-0.4-5.8-3.5-5.4-6.8l6.5-54C55.6 35.3 58.8 32.8 62.3 33.2z"/><path class="st2" d="M215.9 51.6L139 42.4l-8 66.4 77.2 9.3c3.4 0.4 6.4-2 6.8-5.4l6.5-54C221.9 55.3 219.4 52.1 215.9 51.6z"/><path class="st3" d="M68.3 26.5l131.8 32.3c0.8 0.2 1.2 1 1.1 1.8L198 73.7c-0.2 0.8-1 1.2-1.8 1.1L64.4 42.4c-0.8-0.2-1.3-1-1.1-1.8l3.2-13.1C66.8 26.8 67.6 26.3 68.3 26.5z"/><path class="st4" d="M61.5 38.6l150.4 6.5c0.8 0 1.4 0.7 1.4 1.5l-0.6 15.2c0 0.8-0.7 1.4-1.5 1.4L60.7 56.8c-0.8 0-1.4-0.7-1.4-1.5L59.9 40C60 39.2 60.7 38.6 61.5 38.6z"/><path class="st5" d="M61.8 32.1l155.3 18.7c0.7 0.1 1.1 0.7 1.1 1.4l-1.9 15.6c-0.1 0.7-0.7 1.2-1.4 1.1L59.6 50.2c-0.7-0.1-1.2-0.7-1.1-1.4l1.9-15.6C60.5 32.5 61.1 32 61.8 32.1z"/><path class="st6" d="M62.1 35.1l76.9 9.2 -8 66.4 -77.2-9.3c-3.4-0.4-5.8-3.5-5.4-6.8l6.5-54C55.4 37.2 58.6 34.7 62.1 35.1z"/><path class="st7" d="M215.7 53.6l-76.9-9.2 -8 66.4 77.2 9.3c3.4 0.4 6.4-2 6.8-5.4l6.5-54C221.7 57.2 219.2 54 215.7 53.6z"/><path class="st8" d="M154.1 54.7l54.7 6.6c2.1 0.3 3.7 2.2 3.4 4.4l-0.8 6.8L149.7 65l0.9-7.6C150.8 55.8 152.4 54.5 154.1 54.7z"/><path class="st9" d="M149.6 57.4l54.7 6.6c2.1 0.3 3.7 2.2 3.4 4.4l-0.8 6.8 -61.7-7.4 0.9-7.6C146.3 58.4 147.9 57.2 149.6 57.4z"/><path class="st10" d="M147.7 61.7l61 7.3c2.4 0.3 4.1 2.5 3.8 4.9l-0.9 7.6 -68.9-8.3 1-8.4C144 62.8 145.8 61.4 147.7 61.7z"/><path class="st11" d="M148.5 82.9l52.1 6.3c2.4 0.3 4.1 2.5 3.8 4.9l-0.9 7.6 -59.9-7.2 1-8.4C144.8 84 146.6 82.7 148.5 82.9z"/><path class="st2" d="M173.8 97.5c-12.4-1.6-30.4-3.8-33.6-2.9 22.6 2.7 45.1 5.4 67.7 8.1C211.4 102.5 193.9 99.7 173.8 97.5z"/><path class="st2" d="M62.6 60.7l63.2 7.6c1.8 0.2 3 1.8 2.8 3.6l-3.4 28.5c-0.2 1.8-1.8 3-3.6 2.8l-63.2-7.6c-1.8-0.2-3-1.8-2.8-3.6L59 63.5C59.2 61.8 60.9 60.5 62.6 60.7z"/><path class="st12" d="M63.8 62.3l60.6 7.3c1.6 0.2 2.8 1.7 2.6 3.3L123.8 99c-0.2 1.6-1.7 2.8-3.3 2.6l-60.6-7.3c-1.6-0.2-2.8-1.7-2.6-3.3l3.1-26.1C60.7 63.3 62.1 62.1 63.8 62.3z"/><path class="st13" d="M152.3 66.4c2.8 0.3 4.7 2.8 4.4 5.6 -0.1 1.1-1 2.7-2 2.6l-6.9-0.7c-1-0.1-1.2-2-1.1-3.1C147 68.1 149.6 66.1 152.3 66.4z"/><path class="st2" d="M176.7 76.7c-14.1-1.8-34.5-4.3-38.1-3.4 25.6 3.1 51.2 6.2 76.8 9.2C219.4 82.4 199.5 79.2 176.7 76.7z"/><polygon class="st13" points="158.8 70 204.8 75.6 205 73.6 159 68.1 "/><polygon class="st13" points="158.6 73.7 179.6 76.3 179.8 74.3 158.8 71.8 "/><path class="st2" d="M95.7 54.4c-13.7-1.8-33.5-4.2-37-2.6 24.8 3 49.7 6 74.5 8.9C137.1 60.2 117.8 56.6 95.7 54.4z"/><path class="st2" d="M96.3 46.8c-13.7-1.8-33.5-4.2-37.1-2.6 24.8 3 49.7 6 74.5 8.9C137.7 52.6 118.5 49 96.3 46.8z"/><path class="st14" d="M63.8 64.4l60.2 7.2c0.5 0.1 0.9 0.6 0.9 1.1l-3 25.3c-0.1 0.5-0.6 0.9-1.1 0.9l-60.2-7.2c-0.5-0.1-0.9-0.6-0.9-1.1l3-25.3C62.7 64.8 63.2 64.4 63.8 64.4z"/><polygon class="st13" points="67.7 74.2 117.8 80.2 118.2 77.5 68 71.5 "/><polygon class="st13" points="66.9 79.8 117 85.8 117.4 83.1 67.2 77.1 "/><polygon class="st13" points="66.5 85.5 93.8 88.7 94.1 86 66.8 82.8 "/><path class="st15" d="M127.5 67.9l-7.4-0.9 8.7 10.2 0.8-6.6C129.8 69.3 128.9 68.1 127.5 67.9z"/><path class="st15" d="M122.5 103.8l-7.3-0.9 10.7-7.8 -0.8 6.5C125 103 123.8 103.9 122.5 103.8z"/><path class="st15" d="M61.6 60.1L69 61l-10.9 7.8 0.8-6.6C59.1 60.9 60.3 60 61.6 60.1z"/><path class="st15" d="M57.4 95.8l7.3 0.9L56 86.6l-0.8 6.5C55.1 94.5 56 95.7 57.4 95.8z"/><path d="M80 215.8L7.1 197.7c-2.4-0.6-3.7-3.3-3-6.1L31.8 79.7c0.7-2.8 3.2-4.6 5.5-4l72.9 18.1c2.4 0.6 3.7 3.3 3 6.2L85.6 211.8C84.9 214.6 82.4 216.4 80 215.8z"/><path class="st16" d="M80.7 213.3L7.7 195.1c-2.4-0.6-3.7-3.3-3-6.1L32.5 77.1c0.7-2.8 3.2-4.6 5.5-4L111 91.2c2.4 0.6 3.7 3.3 3 6.2L86.2 209.2C85.5 212.1 83 213.8 80.7 213.3z"/><rect x="-3.4" y="185.1" transform="matrix(0.241 -0.9705 0.9705 0.241 -176.0085 148.7482)" width="21" height="3.7"/><path class="st17" d="M99.5 107.7L48.2 209.8c-1.3 2.6-0.6 5.7 1.5 7l35.5 21.9c2.1 1.3 4.8 0.3 6.1-2.3l51.3-102.2c1.3-2.6 0.6-5.7-1.5-7l-35.5-21.9C103.5 104.1 100.8 105.1 99.5 107.7z"/><path class="st16" d="M142.4 134.6l-18.9 37.6 -43.2-26.6L99.3 108c1.3-2.6 4.5-3.8 6.6-2.5l35.5 21.9C143.5 128.7 143.7 132 142.4 134.6z"/><polygon class="st16" points="64.2 216.2 92 160.8 96.4 163.5 68.6 218.9 "/><polygon class="st16" points="74 222.2 82.6 205.3 89.2 209.3 80.7 226.3 "/><polygon class="st16" points="85.7 199.1 101.8 166.9 108.5 171 92.3 203.2 "/><polygon class="st16" points="55.6 210.9 83.5 155.5 87.8 158.2 60 213.6 "/><polygon class="st17" points="89.8 142.9 104.6 113.4 109 116.1 94.2 145.6 "/><path class="st18" d="M142.6 134.2L91.3 236.4c-1.3 2.6-4 3.5-6.1 2.2l-2.5-1.6 55.9-111.3 2.5 1.6C143.2 128.6 143.9 131.7 142.6 134.2z"/><polygon class="st17" points="102.8 150.8 117.6 121.3 131.7 130 116.9 159.5 "/><path d="M81.3 209.8L4.3 190.7l30.3-122 77.3 19.2c2.2 0.6 3.5 3.2 2.9 5.8L87 205.7C86.3 208.6 83.7 210.4 81.3 209.8z"/><path class="st19" d="M67.4 105.4c-1.1-0.3-2.2-0.5-3.3-0.6 -1-0.1-2-0.2-3.1-0.3 -0.2 0-0.4 0-0.6 0 -6-0.1-11.9 1.5-17 4.7 -0.5 0.3-0.9 0.6-1.4 0.9 -14.2 9.9-17.6 29.4-7.7 43.6 9.5 13.5 27.9 17.4 42 8.7 0.5-0.3 0.9-0.6 1.4-0.9 6.2-4.3 10.7-10.8 12.5-18.1C94.4 126.5 84.2 109.6 67.4 105.4zM44.4 111c0.2-0.1 0.4-0.2 0.6-0.4 0.2-0.1 0.5-0.3 0.7-0.4 0.2-0.1 0.4-0.2 0.6-0.3 0.2-0.1 0.5-0.2 0.7-0.4 0.2-0.1 0.4-0.2 0.6-0.3 0.2-0.1 0.5-0.2 0.7-0.3 0.2-0.1 0.4-0.2 0.7-0.3 0.2-0.1 0.5-0.2 0.7-0.3 0.2-0.1 0.4-0.2 0.7-0.2 0.3-0.1 0.5-0.2 0.8-0.2 0.2-0.1 0.5-0.1 0.7-0.2 0.3-0.1 0.5-0.1 0.8-0.2 0.2-0.1 0.5-0.1 0.7-0.2 0.3-0.1 0.5-0.1 0.8-0.2 0.2 0 0.5-0.1 0.7-0.1 0.3 0 0.5-0.1 0.8-0.1 0.2 0 0.5-0.1 0.7-0.1 0.3 0 0.5-0.1 0.8-0.1 0.2 0 0.5 0 0.7-0.1 0.3 0 0.5 0 0.8 0 0.2 0 0.5 0 0.7 0 0.1 0 0.2 0 0.3 0 -3.7 2.2-6.8 5.2-9.1 8.9 -2.2-1.2-4.3-2.7-6.3-4.4C44.3 111 44.4 111 44.4 111zM42.6 112.3c2.1 1.9 4.4 3.6 6.9 5 -2.4 4.2-4.3 8.8-5.5 13.5l-12.1-3C33.6 121.5 37.4 116.1 42.6 112.3zM33.6 148.4c-2.8-5.8-3.6-12.4-2.3-18.7l12.1 3c-1.1 4.7-1.6 9.6-1.4 14.5C39.2 147.3 36.3 147.7 33.6 148.4zM45.8 161.3c-0.2-0.1-0.4-0.2-0.6-0.3 -0.2-0.1-0.5-0.3-0.7-0.4 -0.2-0.1-0.4-0.2-0.6-0.4 -0.2-0.1-0.5-0.3-0.7-0.5 -0.2-0.1-0.4-0.3-0.6-0.4 -0.2-0.2-0.4-0.3-0.6-0.5 -0.2-0.1-0.4-0.3-0.5-0.4 -0.2-0.2-0.4-0.3-0.6-0.5 -0.2-0.2-0.4-0.3-0.5-0.5 -0.2-0.2-0.4-0.4-0.6-0.5 -0.2-0.2-0.3-0.3-0.5-0.5 -0.2-0.2-0.4-0.4-0.6-0.6 -0.2-0.2-0.3-0.3-0.5-0.5 -0.2-0.2-0.4-0.4-0.5-0.6 -0.2-0.2-0.3-0.4-0.5-0.5 -0.2-0.2-0.3-0.4-0.5-0.6 -0.1-0.2-0.3-0.4-0.4-0.6 -0.2-0.2-0.3-0.4-0.5-0.7 -0.1-0.2-0.3-0.4-0.4-0.6 -0.1-0.2-0.3-0.5-0.4-0.7 -0.1-0.2-0.2-0.4-0.4-0.6 0 0 0-0.1-0.1-0.1 2.5-0.6 5-0.9 7.6-0.9 0.3 4.3 1.6 8.5 3.9 12.1C45.9 161.4 45.9 161.3 45.8 161.3zM51.9 163.7c-4.2-1.7-6.9-7.2-7.6-14.4 3.6 0.1 7.3 0.5 10.8 1.4L51.9 163.7 51.9 163.7zM55.6 148.7c-3.8-0.9-7.6-1.4-11.5-1.4 -0.2-4.7 0.3-9.4 1.4-14l13.1 3.3L55.6 148.7 55.6 148.7zM59.1 134.5L46 131.2c1.2-4.6 3-8.9 5.3-13 3.5 1.7 7.1 3.1 10.8 4.1L59.1 134.5zM62.7 120.3c-3.5-0.9-6.9-2.2-10.2-3.8 4-6.1 9-9.7 13.4-9.2L62.7 120.3 62.7 120.3zM86.2 123.1c2.8 5.8 3.6 12.4 2.3 18.7l-12.1-3c1.1-4.7 1.6-9.6 1.4-14.5C80.6 124.2 83.4 123.8 86.2 123.1zM74 110.2c0.2 0.1 0.4 0.2 0.6 0.3 0.2 0.1 0.5 0.3 0.7 0.4 0.2 0.1 0.4 0.2 0.6 0.4 0.2 0.1 0.5 0.3 0.7 0.5 0.2 0.1 0.4 0.3 0.6 0.4 0.2 0.2 0.4 0.3 0.6 0.5 0.2 0.1 0.4 0.3 0.5 0.4 0.2 0.2 0.4 0.3 0.6 0.5 0.2 0.2 0.4 0.3 0.5 0.5 0.2 0.2 0.4 0.4 0.6 0.5 0.2 0.2 0.3 0.3 0.5 0.5 0.2 0.2 0.4 0.4 0.6 0.6 0.2 0.2 0.3 0.3 0.5 0.5 0.2 0.2 0.4 0.4 0.5 0.6 0.2 0.2 0.3 0.4 0.5 0.5 0.2 0.2 0.3 0.4 0.5 0.6 0.1 0.2 0.3 0.4 0.4 0.6 0.2 0.2 0.3 0.4 0.5 0.7 0.1 0.2 0.3 0.4 0.4 0.6 0.1 0.2 0.3 0.5 0.4 0.7 0.1 0.2 0.2 0.4 0.4 0.6 0 0 0 0.1 0.1 0.1 -2.5 0.6-5 0.9-7.6 0.9 -0.3-4.3-1.6-8.5-3.9-12.1C73.8 110.1 73.9 110.1 74 110.2zM67.9 107.7c4.2 1.7 6.9 7.2 7.6 14.4 -3.6-0.1-7.3-0.5-10.8-1.4L67.9 107.7 67.9 107.7zM64.2 122.8c3.8 0.9 7.6 1.4 11.5 1.4 0.2 4.7-0.3 9.4-1.4 14L61.2 135 64.2 122.8zM60.6 137l13.1 3.3c-1.2 4.6-3 8.9-5.3 13l0 0c-3.5-1.7-7.1-3.1-10.8-4.1L60.6 137zM53.9 164.3l3.2-13c3.5 0.9 6.9 2.2 10.2 3.8C63.3 161.1 58.4 164.7 53.9 164.3zM75.4 160.5c-0.2 0.1-0.4 0.2-0.6 0.4 -0.2 0.1-0.5 0.3-0.7 0.4 -0.2 0.1-0.4 0.2-0.6 0.3 -0.2 0.1-0.5 0.3-0.7 0.4 -0.2 0.1-0.4 0.2-0.6 0.3 -0.2 0.1-0.5 0.2-0.7 0.3 -0.2 0.1-0.4 0.2-0.7 0.3 -0.2 0.1-0.5 0.2-0.7 0.3 -0.2 0.1-0.4 0.2-0.7 0.2 -0.3 0.1-0.5 0.2-0.8 0.2 -0.2 0.1-0.5 0.1-0.7 0.2 -0.3 0.1-0.5 0.1-0.8 0.2 -0.2 0.1-0.5 0.1-0.7 0.2 -0.3 0.1-0.5 0.1-0.8 0.2 -0.2 0-0.5 0.1-0.7 0.1 -0.3 0-0.5 0.1-0.8 0.1 -0.2 0-0.5 0.1-0.7 0.1 -0.3 0-0.5 0.1-0.8 0.1 -0.2 0-0.5 0-0.7 0.1 -0.3 0-0.5 0-0.8 0 -0.2 0-0.5 0-0.7 0 -0.1 0-0.2 0-0.3 0 3.7-2.2 6.8-5.2 9.1-8.9 2.2 1.2 4.3 2.7 6.3 4.4C75.4 160.4 75.4 160.5 75.4 160.5zM77.2 159.2c-2.1-1.9-4.4-3.6-6.9-5 2.4-4.2 4.3-8.8 5.5-13.5l12.1 3C86.2 150 82.4 155.4 77.2 159.2z"/><line class="st20" x1="43.5" y1="85.7" x2="102.8" y2="101"/><line class="st20" x1="30.2" y1="176.9" x2="68.8" y2="185.6"/><path class="st21" d="M245.5 232.8l-20 20 -26.7-26.7 20-20L245.5 232.8z"/><path class="st22" d="M252.2 226.1l-13.4 13.4 -26.7-26.7 13.4-13.4L252.2 226.1z"/><path class="st23" d="M274.1 314.4c0.8 1 1.6 1.9 2.5 2.8 11.1 11.1 29 11.1 40.1 0l-71.1-84.4 -13.4 26.7C232.2 259.6 274.1 314.4 274.1 314.4L274.1 314.4z"/><path class="st24" d="M316.6 317.3c11.1-11.1 11.1-29 0-40.1 -0.9-0.9-1.9-1.7-2.8-2.5l-54.9-41.9h-13.4v13.4c0 0 41.9 54.9 41.9 54.9 0.8 1 1.6 1.9 2.5 2.8C301 315 312.9 321 316.6 317.3z"/><circle class="st25" cx="123.9" cy="120.8" r="113.3"/><path class="st22" d="M192.1 232.8c3.7 3.7 9.7 3.7 13.4 0l13.4-13.4 -13.4-13.4 -13.4 13.4C188.4 223.2 188.4 229.2 192.1 232.8z"/><path class="st26" d="M218.8 219.5l13.4-13.4c3.7-3.7 3.7-9.7 0-13.4s-9.7-3.7-13.4 0l-13.4 13.4c-3.7 3.7-3.7 9.7 0 13.4S215.1 223.2 218.8 219.5z"/><path class="st22" d="M218.8 259.6c3.7 3.7 9.7 3.7 13.4 0l13.4-13.4 -13.4-13.4 -13.4 13.4C215.1 249.9 215.1 255.9 218.8 259.6z"/><path class="st26" d="M245.5 246.2l13.4-13.4c3.7-3.7 3.7-9.7 0-13.4s-9.7-3.7-13.4 0l-13.4 13.4c-3.7 3.7-3.7 9.7 0 13.4C235.9 249.9 241.8 249.9 245.5 246.2z"/><circle class="st27" cx="123.9" cy="120.3" r="108.3"/></svg>
