<?xml version="1.0" encoding="utf-8"?>
<!-- Generator: Adobe Illustrator 24.1.1, SVG Export Plug-In . SVG Version: 6.00 Build 0)  -->
<svg version="1.1" id="Calque_1" xmlns="http://www.w3.org/2000/svg" xmlns:xlink="http://www.w3.org/1999/xlink" x="0px" y="0px"
	 viewBox="0 0 243.21 56.13" style="enable-background:new 0 0 243.21 56.13;" xml:space="preserve">
<style type="text/css">
	.st0{fill:#386FB6;}
</style>
<g>
	<path class="st0" d="M33.23,15.77c-0.94,1.46-1.91,2.9-2.83,4.38c-1.52,2.45-2.97,4.93-3.87,7.69c-0.08,0.25-0.16,0.51-0.22,0.77
		c-0.14,0.53-0.16,1.02-0.85,1.3c-0.63,0.26-0.89,1.04-1.2,1.67c-0.86,1.73-1.49,3.56-2.27,5.32c-0.39,0.88-0.78,1.77-1.37,2.55
		c-0.75,0.99-1.43,0.99-2.16,0c-0.9-1.22-1.41-2.64-1.99-4.02c-0.57-1.34-1.05-2.72-1.75-4.01c-0.39-0.72-0.69-1.57-1.66-1.76
		c-0.12-0.02-0.12-0.15-0.14-0.25c-0.67-3.13-2.3-5.83-3.89-8.54C8.1,19.3,7.1,17.8,6.13,16.27c-0.1-0.17-0.21-0.33-0.38-0.62
		c0.54,0.18,0.86,0.47,1.17,0.75c1.43,1.33,2.84,2.68,4.27,4.01c1.54,1.43,3.17,2.73,4.94,3.88c2.33,1.51,4.6,1.44,6.92-0.06
		c2.7-1.75,5-3.94,7.3-6.15c0.59-0.57,1.2-1.13,1.81-1.68C32.45,16.13,32.77,15.87,33.23,15.77z"/>
	<path class="st0" d="M19.56,1.21c5.25,0.06,9.88,1.74,13.66,5.45c2.91,2.87,4.63,6.33,4.97,10.45c0.46,5.57-1.14,10.54-4.18,15.14
		c-1.4,2.11-2.99,4.08-4.64,5.99c-1.06,1.23-1.52,2.65-1.56,4.24c0,0.1,0,0.21,0,0.31c-0.01,0.38-0.19,0.64-0.58,0.67
		c-0.39,0.03-0.62-0.19-0.7-0.56c-0.2-0.89,0.02-1.75,0.23-2.61c0.36-1.54,1.36-2.69,2.35-3.85c2.11-2.48,4.1-5.04,5.54-7.98
		c1.64-3.32,2.51-6.84,2.26-10.54c-0.44-6.62-3.86-11.29-9.87-13.87C20.9,1.42,14.85,1.91,9.22,5.58
		c-4.16,2.71-6.53,6.61-6.99,11.62c-0.49,5.36,1.13,10.12,4.09,14.51c1.36,2.02,2.89,3.89,4.48,5.73c1.24,1.43,1.78,3.12,1.81,4.99
		c0,0.14-0.01,0.29-0.04,0.43c-0.08,0.39-0.3,0.66-0.72,0.62c-0.41-0.04-0.61-0.33-0.59-0.74c0.05-0.88-0.13-1.71-0.4-2.54
		c-0.41-1.28-1.37-2.18-2.19-3.17c-2.03-2.44-3.96-4.95-5.38-7.8c-1.57-3.13-2.43-6.44-2.51-9.95C0.6,11.12,5.55,5.23,12.04,2.62
		C14.47,1.64,16.83,1.22,19.56,1.21z"/>
	<path class="st0" d="M25.49,16.74c-0.51,0.73-1.36,1.22-1.15,2.29c0.16,0.81-0.29,1.75,0.68,2.43c-0.57,0.13-1.03,0.07-1.63,0.06
		c1.03-0.88,0.53-1.94,0.67-2.93c-0.42,0.07-0.44,0.75-0.96,0.43c0.35,1.97-0.22,3.43-1.66,4.3c-1.3,0.79-2.96,0.7-4.17-0.22
		c-1.29-0.98-1.75-2.51-1.24-4.28c-0.2,0.22-0.35,0.44-0.6,0.14c-0.55-0.67-1.12-1.31-1.69-1.96c-0.18-0.21-0.11-0.29,0.1-0.39
		c1.81-0.78,3.62-1.56,5.43-2.35c0.16-0.07,0.31-0.08,0.47-0.01C21.65,15.08,23.55,15.9,25.49,16.74z"/>
	<path class="st0" d="M19.28,48.19c-2.18,0-4.36,0-6.54,0c-1.09,0-1.76-0.58-1.78-1.53c-0.02-0.98,0.65-1.63,1.75-1.63
		c4.36-0.01,8.72-0.01,13.08-0.01c0.95,0,1.52,0.38,1.75,1.08c0.35,1.07-0.41,2.07-1.59,2.08C23.73,48.2,21.51,48.19,19.28,48.19z"
		/>
	<path class="st0" d="M19.22,51.86c-1.56,0-3.12,0.01-4.69,0c-0.8-0.01-1.38-0.43-1.6-1.12c-0.19-0.63,0.02-1.3,0.54-1.71
		c0.32-0.25,0.69-0.35,1.09-0.35c3.15,0,6.29,0,9.44,0.01c0.99,0,1.69,0.67,1.7,1.57c0.01,0.91-0.67,1.58-1.67,1.6
		C22.42,51.88,20.82,51.86,19.22,51.86C19.22,51.86,19.22,51.86,19.22,51.86z"/>
	<path class="st0" d="M19.33,55.41c-0.68,0-1.36,0.01-2.03,0c-1-0.02-1.7-0.68-1.7-1.57c-0.01-0.93,0.71-1.59,1.73-1.59
		c1.32-0.01,2.63-0.01,3.95,0c0.99,0.01,1.69,0.66,1.71,1.56c0.02,0.92-0.71,1.59-1.74,1.59c-0.64,0.01-1.27,0-1.91,0
		C19.33,55.4,19.33,55.4,19.33,55.41z"/>
	<path class="st0" d="M21.79,6.59c0,0.03,0.01,0.06,0,0.07c-0.4,0.37-1.11,0.55-1.22,1.05c-0.1,0.45,0.25,1,0.45,1.67
		c-0.46-0.33-0.82-0.56-1.15-0.84c-0.26-0.22-0.44-0.19-0.69,0.01c-0.33,0.27-0.69,0.5-1.05,0.76c-0.02-0.08-0.05-0.13-0.03-0.15
		c0.59-1.12,0.49-2.02-0.97-2.46c0.04-0.05,0.08-0.1,0.13-0.15c0.41,0,0.83-0.03,1.24,0.01c0.36,0.03,0.52-0.11,0.6-0.44
		c0.1-0.39,0.24-0.77,0.42-1.3c0.12,0.33,0.2,0.53,0.27,0.73c0.33,1.01,0.33,1,1.42,1.01C21.4,6.55,21.61,6.49,21.79,6.59z"/>
	<path class="st0" d="M25.2,10.68c0.04-0.11,0.07-0.23,0.11-0.34c0.39-1.23,0.39-1.23-0.66-2.02c-0.09-0.07-0.23-0.09-0.25-0.3
		c0.43,0,0.85-0.02,1.27,0.01c0.3,0.02,0.45-0.09,0.53-0.37c0.12-0.43,0.27-0.85,0.45-1.4c0.17,0.5,0.32,0.87,0.42,1.27
		c0.09,0.38,0.27,0.55,0.68,0.51c0.37-0.04,0.76-0.01,1.32-0.01c-0.46,0.34-0.75,0.59-1.07,0.78c-0.35,0.2-0.43,0.42-0.27,0.79
		c0.16,0.35,0.25,0.73,0.38,1.1c-0.09,0.01-0.14,0.03-0.15,0.02c-0.91-0.97-1.8-1.02-2.68,0.19C25.24,10.82,25.22,10.75,25.2,10.68z
		"/>
	<path class="st0" d="M12.42,6.25c0.17,0.53,0.33,0.93,0.44,1.34c0.09,0.33,0.25,0.47,0.6,0.44c0.4-0.03,0.8-0.01,1.37-0.01
		c-0.48,0.36-0.81,0.62-1.16,0.85c-0.24,0.16-0.32,0.31-0.2,0.6c0.16,0.39,0.27,0.81,0.45,1.36c-0.43-0.3-0.76-0.49-1.04-0.74
		c-0.34-0.31-0.61-0.27-0.93,0.01c-0.27,0.24-0.59,0.43-0.91,0.66c-0.08-0.3,0.08-0.52,0.14-0.74c0.28-0.92,0.29-0.92-0.5-1.5
		c-0.17-0.13-0.35-0.26-0.67-0.5c0.58,0,0.98-0.03,1.37,0.01c0.36,0.03,0.52-0.1,0.6-0.44C12.1,7.17,12.25,6.77,12.42,6.25z"/>
</g>
<g>
	<path class="st0" d="M66.27,17.33c0.46,0.48,0.7,1.09,0.7,1.84v18.85c0,0.73-0.22,1.31-0.64,1.73c-0.43,0.42-0.99,0.63-1.7,0.63
		c-0.68,0-1.23-0.21-1.66-0.63c-0.43-0.42-0.64-1-0.64-1.73V26.31l-4.81,8.86c-0.32,0.58-0.66,1-1.03,1.26s-0.82,0.4-1.34,0.4
		c-0.5,0-0.94-0.13-1.32-0.4c-0.38-0.27-0.73-0.69-1.05-1.26l-4.82-8.7v11.55c0,0.71-0.22,1.28-0.64,1.71
		c-0.43,0.43-1,0.65-1.7,0.65c-0.68,0-1.23-0.21-1.66-0.63c-0.43-0.42-0.64-1-0.64-1.73V19.18c0-0.75,0.23-1.37,0.7-1.84
		c0.46-0.48,1.07-0.71,1.81-0.71c1.08,0,1.91,0.56,2.48,1.69l6.88,12.78l6.85-12.78c0.61-1.13,1.42-1.69,2.44-1.69
		C65.2,16.62,65.81,16.86,66.27,17.33z"/>
	<path class="st0" d="M74.73,39.41c-1.33-0.7-2.36-1.68-3.09-2.95c-0.72-1.27-1.09-2.77-1.09-4.5c0-1.73,0.36-3.23,1.09-4.5
		c0.72-1.27,1.75-2.25,3.09-2.94c1.33-0.69,2.88-1.03,4.65-1.03s3.31,0.34,4.65,1.03c1.33,0.69,2.36,1.67,3.09,2.94
		c0.72,1.27,1.08,2.77,1.08,4.5c0,1.73-0.36,3.22-1.08,4.5c-0.72,1.27-1.75,2.26-3.09,2.95c-1.33,0.7-2.88,1.05-4.65,1.05
		S76.07,40.1,74.73,39.41z M83.11,31.95c0-1.57-0.32-2.74-0.97-3.52c-0.64-0.77-1.57-1.16-2.76-1.16c-2.49,0-3.73,1.56-3.73,4.68
		s1.24,4.68,3.73,4.68C81.86,36.63,83.11,35.07,83.11,31.95z"/>
	<path class="st0" d="M94.67,39.41c-1.33-0.7-2.36-1.68-3.09-2.95c-0.72-1.27-1.09-2.77-1.09-4.5c0-1.73,0.36-3.23,1.09-4.5
		c0.72-1.27,1.75-2.25,3.09-2.94c1.33-0.69,2.88-1.03,4.65-1.03s3.31,0.34,4.65,1.03c1.33,0.69,2.36,1.67,3.09,2.94
		c0.72,1.27,1.08,2.77,1.08,4.5c0,1.73-0.36,3.22-1.08,4.5c-0.72,1.27-1.75,2.26-3.09,2.95c-1.33,0.7-2.88,1.05-4.65,1.05
		S96.01,40.1,94.67,39.41z M103.05,31.95c0-1.57-0.32-2.74-0.97-3.52c-0.64-0.77-1.57-1.16-2.76-1.16c-2.49,0-3.73,1.56-3.73,4.68
		s1.24,4.68,3.73,4.68C101.8,36.63,103.05,35.07,103.05,31.95z"/>
	<path class="st0" d="M126.14,25.2c0.97,1.14,1.46,2.86,1.46,5.16v7.67c0,0.73-0.23,1.31-0.7,1.73c-0.46,0.42-1.09,0.63-1.88,0.63
		s-1.41-0.21-1.86-0.63c-0.45-0.42-0.68-1-0.68-1.73v-7.44c0-1.11-0.21-1.91-0.63-2.42c-0.42-0.51-1.07-0.76-1.95-0.76
		c-1.06,0-1.92,0.33-2.56,1c-0.64,0.66-0.97,1.55-0.97,2.66v6.97c0,0.73-0.23,1.31-0.68,1.73c-0.45,0.42-1.07,0.63-1.87,0.63
		c-0.79,0-1.42-0.21-1.88-0.63c-0.46-0.42-0.7-1-0.7-1.73V25.85c0-0.69,0.24-1.24,0.73-1.66c0.49-0.42,1.11-0.63,1.88-0.63
		c0.7,0,1.27,0.21,1.71,0.61c0.44,0.41,0.66,0.94,0.66,1.58v0.46c0.59-0.88,1.35-1.56,2.29-2.03c0.94-0.46,2-0.7,3.17-0.7
		C123.69,23.49,125.17,24.06,126.14,25.2z"/>
	<path class="st0" d="M144.35,25.23c1.18,1.16,1.76,2.94,1.76,5.33v7.5c0,0.73-0.21,1.3-0.64,1.71c-0.43,0.41-1.03,0.61-1.8,0.61
		c-0.72,0-1.31-0.22-1.75-0.65c-0.44-0.43-0.66-0.99-0.66-1.68v-0.23c-0.34,0.82-0.9,1.46-1.7,1.92c-0.79,0.46-1.72,0.7-2.78,0.7
		c-1.13,0-2.15-0.22-3.07-0.66s-1.64-1.06-2.17-1.86c-0.53-0.8-0.8-1.68-0.8-2.66c0-1.2,0.31-2.14,0.93-2.82
		c0.62-0.69,1.62-1.18,3-1.49c1.38-0.31,3.27-0.46,5.66-0.46h0.88v-0.6c0-0.93-0.21-1.6-0.63-2.02c-0.42-0.42-1.11-0.63-2.09-0.63
		c-0.97,0-2.37,0.33-4.21,1c-0.52,0.24-0.96,0.37-1.32,0.37c-0.5,0-0.89-0.17-1.19-0.51c-0.29-0.34-0.44-0.79-0.44-1.34
		c0-0.44,0.1-0.81,0.31-1.09c0.2-0.29,0.53-0.55,0.98-0.8c0.79-0.42,1.76-0.75,2.9-1c1.14-0.24,2.27-0.37,3.37-0.37
		C141.37,23.49,143.17,24.07,144.35,25.23z M140.32,36.02c0.61-0.65,0.92-1.5,0.92-2.54v-0.56h-0.58c-1.83,0-3.11,0.14-3.85,0.43
		c-0.73,0.29-1.1,0.81-1.1,1.56c0,0.62,0.21,1.12,0.63,1.51c0.42,0.39,0.94,0.58,1.58,0.58C138.9,37,139.7,36.67,140.32,36.02z"/>
	<path class="st0" d="M165.54,38.16c0,0.6-0.23,1.12-0.69,1.58c-0.46,0.45-1,0.68-1.61,0.68s-1.18-0.27-1.7-0.8l-4.41-4.65
		l-4.38,4.65c-0.52,0.53-1.08,0.8-1.7,0.8c-0.63,0-1.18-0.23-1.64-0.68c-0.46-0.45-0.7-0.99-0.7-1.61c0-0.58,0.25-1.12,0.75-1.63
		l4.58-4.68l-4.27-4.35c-0.5-0.51-0.75-1.05-0.75-1.63c0-0.62,0.23-1.15,0.7-1.59c0.46-0.44,1-0.66,1.61-0.66
		c0.63,0,1.21,0.27,1.73,0.8l4.07,4.25l4.1-4.25c0.52-0.53,1.1-0.8,1.73-0.8c0.61,0,1.15,0.22,1.61,0.66
		c0.46,0.44,0.7,0.97,0.7,1.59c0,0.58-0.25,1.12-0.75,1.63l-4.31,4.35l4.58,4.68C165.29,37.01,165.54,37.56,165.54,38.16z"/>
	<path class="st0" d="M168.7,20.22c-0.52-0.45-0.78-1.07-0.78-1.84c0-0.77,0.26-1.38,0.78-1.83c0.52-0.44,1.23-0.66,2.14-0.66
		c0.88,0,1.59,0.23,2.12,0.68s0.8,1.06,0.8,1.81c0,0.78-0.26,1.39-0.78,1.84c-0.52,0.45-1.23,0.68-2.14,0.68
		S169.22,20.67,168.7,20.22z M168.99,39.79c-0.49-0.4-0.73-0.98-0.73-1.76V25.91c0-0.77,0.25-1.36,0.75-1.76
		c0.5-0.4,1.11-0.6,1.83-0.6s1.33,0.2,1.81,0.6c0.49,0.4,0.73,0.99,0.73,1.76v12.12c0,0.77-0.24,1.36-0.73,1.76
		c-0.49,0.4-1.09,0.6-1.81,0.6C170.09,40.38,169.47,40.19,168.99,39.79z"/>
	<path class="st0" d="M193.79,37.96c0,0.62-0.23,1.17-0.7,1.66c-0.46,0.49-1,0.73-1.61,0.73c-0.59,0-1.13-0.23-1.63-0.7l-7.43-6.74
		V38c0,0.77-0.24,1.36-0.73,1.76c-0.49,0.4-1.09,0.6-1.81,0.6c-0.75,0-1.36-0.2-1.85-0.6c-0.49-0.4-0.73-0.98-0.73-1.76V18.98
		c0-0.77,0.24-1.36,0.73-1.76c0.49-0.4,1.1-0.6,1.85-0.6c0.72,0,1.33,0.2,1.81,0.6c0.49,0.4,0.73,0.98,0.73,1.76v11.88l6.78-6.54
		c0.5-0.49,1.05-0.73,1.66-0.73c0.63,0,1.19,0.23,1.66,0.68c0.48,0.45,0.71,0.99,0.71,1.61c0,0.58-0.26,1.12-0.78,1.63l-4.51,4.22
		l5.05,4.58C193.53,36.79,193.79,37.34,193.79,37.96z"/>
	<path class="st0" d="M199.42,39.41c-1.33-0.7-2.36-1.68-3.09-2.95c-0.72-1.27-1.08-2.77-1.08-4.5c0-1.73,0.36-3.23,1.08-4.5
		c0.72-1.27,1.75-2.25,3.09-2.94c1.33-0.69,2.88-1.03,4.65-1.03s3.31,0.34,4.65,1.03c1.33,0.69,2.36,1.67,3.09,2.94
		s1.08,2.77,1.08,4.5c0,1.73-0.36,3.22-1.08,4.5s-1.75,2.26-3.09,2.95s-2.88,1.05-4.65,1.05S200.75,40.1,199.42,39.41z M207.8,31.95
		c0-1.57-0.32-2.74-0.97-3.52s-1.57-1.16-2.76-1.16c-2.49,0-3.73,1.56-3.73,4.68s1.24,4.68,3.73,4.68
		C206.55,36.63,207.8,35.07,207.8,31.95z"/>
	<path class="st0" d="M216.73,39.79c-0.49-0.4-0.73-0.98-0.73-1.76V18.98c0-0.77,0.24-1.36,0.73-1.76c0.49-0.4,1.1-0.6,1.85-0.6
		c0.72,0,1.33,0.2,1.81,0.6c0.49,0.4,0.73,0.98,0.73,1.76v19.05c0,0.77-0.24,1.36-0.73,1.76c-0.49,0.4-1.09,0.6-1.81,0.6
		C217.83,40.38,217.22,40.19,216.73,39.79z"/>
	<path class="st0" d="M237.98,25.23c1.18,1.16,1.76,2.94,1.76,5.33v7.5c0,0.73-0.21,1.3-0.64,1.71c-0.43,0.41-1.03,0.61-1.8,0.61
		c-0.72,0-1.31-0.22-1.75-0.65c-0.44-0.43-0.66-0.99-0.66-1.68v-0.23c-0.34,0.82-0.9,1.46-1.7,1.92c-0.79,0.46-1.72,0.7-2.78,0.7
		c-1.13,0-2.15-0.22-3.07-0.66s-1.64-1.06-2.17-1.86c-0.53-0.8-0.8-1.68-0.8-2.66c0-1.2,0.31-2.14,0.93-2.82
		c0.62-0.69,1.62-1.18,3-1.49c1.38-0.31,3.27-0.46,5.66-0.46h0.88v-0.6c0-0.93-0.21-1.6-0.63-2.02c-0.42-0.42-1.11-0.63-2.09-0.63
		c-0.97,0-2.37,0.33-4.2,1c-0.52,0.24-0.96,0.37-1.32,0.37c-0.5,0-0.89-0.17-1.19-0.51c-0.29-0.34-0.44-0.79-0.44-1.34
		c0-0.44,0.1-0.81,0.3-1.09c0.2-0.29,0.53-0.55,0.98-0.8c0.79-0.42,1.76-0.75,2.9-1c1.14-0.24,2.27-0.37,3.37-0.37
		C234.99,23.49,236.8,24.07,237.98,25.23z M233.94,36.02c0.61-0.65,0.92-1.5,0.92-2.54v-0.56h-0.58c-1.83,0-3.11,0.14-3.85,0.43
		c-0.74,0.29-1.1,0.81-1.1,1.56c0,0.62,0.21,1.12,0.63,1.51c0.42,0.39,0.94,0.58,1.58,0.58C232.53,37,233.33,36.67,233.94,36.02z"/>
</g>
</svg>
