<?xml version="1.0" encoding="utf-8"?>
<!-- Generator: Adobe Illustrator 24.2.3, SVG Export Plug-In . SVG Version: 6.00 Build 0)  -->
<svg version="1.1" id="Calque_1" xmlns="http://www.w3.org/2000/svg" xmlns:xlink="http://www.w3.org/1999/xlink" x="0px" y="0px"
	 viewBox="0 0 39.67 56.13" style="enable-background:new 0 0 39.67 56.13;" xml:space="preserve">
<style type="text/css">
	.st0{fill:#386FB6;}
	.st1{fill:#273040;}
</style>
<g>
	<path class="st0" d="M11.84,43.47c-0.41-0.04-0.61-0.33-0.59-0.74c0.05-0.88-0.13-1.71-0.4-2.54c-0.41-1.28-1.37-2.18-2.19-3.17
		c-2.03-2.44-3.96-4.95-5.38-7.8c-1.57-3.13-2.43-6.44-2.51-9.95C0.6,11.12,5.55,5.23,12.04,2.62c2.43-0.98,4.8-1.4,7.52-1.41
		c5.25,0.06,9.88,1.74,13.66,5.45c2.91,2.87,4.63,6.33,4.97,10.45c0.46,5.57-1.14,10.54-4.18,15.14c-1.4,2.11-2.99,4.08-4.64,5.99
		c-1.06,1.23-1.52,2.65-1.56,4.24c0,0.1,0,0.21,0,0.31c-0.01,0.38-0.19,0.64-0.58,0.67L11.84,43.47z"/>
	<path class="st0" d="M26.53,41.91c0-0.9,0.02-0.75,0.23-1.61c0.36-1.54,1.36-2.69,2.35-3.85c2.11-2.48,4.1-5.04,5.54-7.98
		c1.64-3.32,2.51-6.84,2.26-10.54c-0.44-6.62-3.86-11.29-9.87-13.87C20.9,1.42,14.85,1.91,9.22,5.58
		c-4.16,2.71-6.53,6.61-6.99,11.62c-0.49,5.36,1.13,10.12,4.09,14.51c1.36,2.02,2.89,3.89,4.48,5.73c1.09,1.37,1.09,1.37,1.57,3.07
		c0,0.14,0.22,1.2,0.19,1.34L26.53,41.91z"/>
	<path class="st1" d="M33.23,15.77c-0.94,1.46-1.91,2.9-2.83,4.38c-1.52,2.45-2.97,4.93-3.87,7.69c-0.08,0.25-0.16,0.51-0.22,0.77
		c-0.14,0.53-0.16,1.02-0.85,1.3c-0.63,0.26-0.89,1.04-1.2,1.67c-0.86,1.73-1.49,3.56-2.27,5.32c-0.39,0.88-0.78,1.77-1.37,2.55
		c-0.75,0.99-1.43,0.99-2.16,0c-0.9-1.22-1.41-2.64-1.99-4.02c-0.57-1.34-1.05-2.72-1.75-4.01c-0.39-0.72-0.69-1.57-1.66-1.76
		c-0.12-0.02-0.12-0.15-0.14-0.25c-0.67-3.13-2.3-5.83-3.89-8.54C8.1,19.3,7.1,17.8,6.13,16.27c-0.1-0.17-0.21-0.33-0.38-0.62
		c0.54,0.18,0.86,0.47,1.17,0.75c1.43,1.33,2.84,2.68,4.27,4.01c1.54,1.43,3.17,2.73,4.94,3.88c2.33,1.51,4.6,1.44,6.92-0.06
		c2.7-1.75,5-3.94,7.3-6.15c0.59-0.57,1.2-1.13,1.81-1.68C32.45,16.13,32.77,15.87,33.23,15.77z"/>
	<path class="st1" d="M25.49,16.74c-0.51,0.73-1.36,1.22-1.15,2.29c0.16,0.81-0.29,1.75,0.68,2.43c-0.57,0.13-1.03,0.07-1.63,0.06
		c1.03-0.88,0.53-1.94,0.67-2.93c-0.42,0.07-0.44,0.75-0.96,0.43c0.35,1.97-0.22,3.43-1.66,4.3c-1.3,0.79-2.96,0.7-4.17-0.22
		c-1.29-0.98-1.75-2.51-1.24-4.28c-0.2,0.22-0.35,0.44-0.6,0.14c-0.55-0.67-1.12-1.31-1.69-1.96c-0.18-0.21-0.11-0.29,0.1-0.39
		c1.81-0.78,3.62-1.56,5.43-2.35c0.16-0.07,0.31-0.08,0.47-0.01C21.65,15.08,23.55,15.9,25.49,16.74z"/>
	<path class="st0" d="M19.28,48.19c-2.18,0-4.36,0-6.54,0c-1.09,0-1.76-0.58-1.78-1.53c-0.02-0.98,0.65-1.63,1.75-1.63
		c4.36-0.01,8.72-0.01,13.08-0.01c0.95,0,1.52,0.38,1.75,1.08c0.35,1.07-0.41,2.07-1.59,2.08C23.73,48.2,21.51,48.19,19.28,48.19z"
		/>
	<path class="st0" d="M19.22,51.86c-1.56,0-3.12,0.01-4.69,0c-0.8-0.01-1.38-0.43-1.6-1.12c-0.19-0.63,0.02-1.3,0.54-1.71
		c0.32-0.25,0.69-0.35,1.09-0.35c3.15,0,6.29,0,9.44,0.01c0.99,0,1.69,0.67,1.7,1.57c0.01,0.91-0.67,1.58-1.67,1.6
		C22.42,51.88,20.82,51.86,19.22,51.86C19.22,51.86,19.22,51.86,19.22,51.86z"/>
	<path class="st0" d="M19.33,55.41c-0.68,0-1.36,0.01-2.03,0c-1-0.02-1.7-0.68-1.7-1.57c-0.01-0.93,0.71-1.59,1.73-1.59
		c1.32-0.01,2.63-0.01,3.95,0c0.99,0.01,1.69,0.66,1.71,1.56c0.02,0.92-0.71,1.59-1.74,1.59c-0.64,0.01-1.27,0-1.91,0
		C19.33,55.4,19.33,55.4,19.33,55.41z"/>
	<path class="st1" d="M21.79,6.59c0,0.03,0.01,0.06,0,0.07c-0.4,0.37-1.11,0.55-1.22,1.05c-0.1,0.45,0.25,1,0.45,1.67
		c-0.46-0.33-0.82-0.56-1.15-0.84c-0.26-0.22-0.44-0.19-0.69,0.01c-0.33,0.27-0.69,0.5-1.05,0.76c-0.02-0.08-0.05-0.13-0.03-0.15
		c0.59-1.12,0.49-2.02-0.97-2.46c0.04-0.05,0.08-0.1,0.13-0.15c0.41,0,0.83-0.03,1.24,0.01c0.36,0.03,0.52-0.11,0.6-0.44
		c0.1-0.39,0.24-0.77,0.42-1.3c0.12,0.33,0.2,0.53,0.27,0.73c0.33,1.01,0.33,1,1.42,1.01C21.4,6.55,21.61,6.49,21.79,6.59z"/>
	<path class="st1" d="M25.2,10.68c0.04-0.11,0.07-0.23,0.11-0.34c0.39-1.23,0.39-1.23-0.66-2.02c-0.09-0.07-0.23-0.09-0.25-0.3
		c0.43,0,0.85-0.02,1.27,0.01c0.3,0.02,0.45-0.09,0.53-0.37c0.12-0.43,0.27-0.85,0.45-1.4c0.17,0.5,0.32,0.87,0.42,1.27
		c0.09,0.38,0.27,0.55,0.68,0.51c0.37-0.04,0.76-0.01,1.32-0.01c-0.46,0.34-0.75,0.59-1.07,0.78c-0.35,0.2-0.43,0.42-0.27,0.79
		c0.16,0.35,0.25,0.73,0.38,1.1c-0.09,0.01-0.14,0.03-0.15,0.02c-0.91-0.97-1.8-1.02-2.68,0.19C25.24,10.82,25.22,10.75,25.2,10.68z
		"/>
	<path class="st1" d="M12.42,6.25c0.17,0.53,0.33,0.93,0.44,1.34c0.09,0.33,0.25,0.47,0.6,0.44c0.4-0.03,0.8-0.01,1.37-0.01
		c-0.48,0.36-0.81,0.62-1.16,0.85c-0.24,0.16-0.32,0.31-0.2,0.6c0.16,0.39,0.27,0.81,0.45,1.36c-0.43-0.3-0.76-0.49-1.04-0.74
		c-0.34-0.31-0.61-0.27-0.93,0.01c-0.27,0.24-0.59,0.43-0.91,0.66c-0.08-0.3,0.08-0.52,0.14-0.74c0.28-0.92,0.29-0.92-0.5-1.5
		c-0.17-0.13-0.35-0.26-0.67-0.5c0.58,0,0.98-0.03,1.37,0.01c0.36,0.03,0.52-0.1,0.6-0.44C12.1,7.17,12.25,6.77,12.42,6.25z"/>
</g>
</svg>
