<svg xmlns="http://www.w3.org/2000/svg" viewBox="0 0 335.6 187.7"><style>.st0{fill:#b4cfff}.st1{fill:#e8e8e8}.st2{fill:#ffcd26}.st3{fill:#444}.st4{fill:#aeaeae}.st5{fill:#faa436}.st7{opacity:.2;fill:#444}.st8{fill:#fff}</style><path class="st0" d="M205.8 166.3h-83.2c-1.4 0-2.5 1.1-2.5 2.5s1.1 2.5 2.5 2.5h83.2c1.4 0 2.5-1.1 2.5-2.5s-1.1-2.5-2.5-2.5z"/><path class="st1" d="M130 101.8h4.8V165H130zM193.6 101.8h4.8V165h-4.8z"/><path class="st2" d="M120.2 107.9h88.1v15.8h-88.1z"/><path class="st3" d="M130.2 107.9l-.2.2-9.1 15.5h-.7v-15.7zM152.4 107.9l-9.2 15.7h-12l3.6-6.2 5.6-9.5zM174.7 107.9l-9.2 15.7h-12.1l9.2-15.7zM196.9 107.9l-9.2 15.7h-12l9.2-15.7zM208.3 107.9v15.7h-10.4l9.3-15.7z"/><path class="st2" d="M120.2 136.1h88.1v15.8h-88.1z"/><path class="st3" d="M130.2 136.1l-.2.2-9.1 15.5h-.7v-15.7zM152.4 136.1l-9.2 15.7h-12l3.6-6.2 5.6-9.5zM174.7 136.1l-9.2 15.7h-12.1l9.2-15.7zM196.9 136.1l-9.2 15.7h-12l9.2-15.7zM208.3 136.1v15.7h-10.4l9.3-15.7z"/><path class="st4" d="M190.5 165h11.1v3.1h-11.1zM126.9 165H138v3.2h-11.1z"/><path class="st5" d="M137.3 99.2c0 1.6-1 3-2.5 3.7-.7.4-1.5.6-2.4.6-.9 0-1.7-.2-2.4-.6-1.5-.7-2.5-2.1-2.5-3.7 0-2.4 2.2-4.3 4.9-4.3s4.9 1.9 4.9 4.3zM201 99.2c0 2.4-2.2 4.3-4.9 4.3s-4.9-1.9-4.9-4.3 2.2-4.3 4.9-4.3 4.9 1.9 4.9 4.3z"/><path d="M134.8 123.6V136H164v15.8h-29.2V165h3.2v3.2h-11.1v-3.1h3.2v-13.2h-9.8v-15.7h9.8v-12.4h-9.8V108h9.8v-5c-1.5-.7-2.5-2.1-2.5-3.7 0-2.4 2.2-4.3 4.9-4.3s4.9 1.9 4.9 4.3c0 1.6-1 3-2.5 3.7v5h29.2v15.8h-29.3z" opacity=".3" fill="#444"/><path class="st0" d="M330.5 171.3H201.6c-1.3 0-2.3 1.1-2.3 2.4 0 1.3 1.1 2.4 2.4 2.4h128.8c1.3 0 2.4-1 2.4-2.3-.1-1.5-1.1-2.5-2.4-2.5z"/><path class="st4" d="M304.4 100.3l-19.5-64.4-.1-.5h-38.2l.2.5 1.8 6 4.4 14.5 1.1 3.6 5.5 18.2 1.1 3.6 3.4 11.3 1.8 6 22.8 75.4h3.6l-2.8-9.4h30.9l2.9 9.4h3.6l-22.5-74.2zM251.3 39h30.9l.9 2.9 4.4 14.5h-30.9L251.3 39zm6.3 21h30.9l5.5 18.2h-30.9L257.6 60zm10 33.1l-1.8-6-1.6-5.2h30.9l5.2 17.1h-14.9c-6.6 0-13.3.1-16 .1l-1.8-6zm2.9 9.6c11.5-.1 26.8-.1 30.9-.1l5.4 17.7h-30.9l-5.4-17.6zm6.4 21.2h30.9l5.3 17.6h-30.9l-5.3-17.6zm11.4 37.5l-4.9-16.3h31l4.9 16.3h-31z"/><path class="st1" d="M246.9 35.4l-.1.5-19.5 64.4-22.4 74.1h3.6l2.9-9.4h30.9l-2.8 9.4h3.6L265.9 99l1.8-6 3.4-11.2 1.1-3.6 5.5-18.2 1.1-3.6 4.4-14.5 1.8-6 .2-.5h-38.3zm-3.5 126h-30.9l4.9-16.3h30.9l-4.9 16.3zm6-19.9h-30.9l5.3-17.6h30.9l-5.3 17.6zm6.4-21.2h-30.9l5.3-17.7c4.2-.1 19.4 0 30.9.1l-5.3 17.6zm10-33.2l-1.8 6-1.8 6c-2.7 0-9.3-.1-16-.1h-14.9l5.2-17.1h31l-1.7 5.2zm2.7-8.9h-30.9l5.5-18.2h31l-5.6 18.2zm6.6-21.8h-30.9l4.4-14.5.9-2.9h30.9l-5.3 17.4z"/><path class="st0" d="M317.5 180.2H266.4c-1.3 0-2.4 1.1-2.4 2.4 0 1.3 1.1 2.4 2.4 2.4h31.5c1 0 1.8-.5 2.2-1.3h17.5c1 0 1.8-.8 1.8-1.8s-1-1.7-1.9-1.7z"/><path class="st1" d="M315.2 152.9v27.8c0 .5-.4.8-.8.8h-25.1c-.5 0-.8-.4-.8-.8v-27.8h26.7zM314.7 152.9h-1c0-6.5-5.3-11.8-11.8-11.8s-11.8 5.3-11.8 11.8h-1c0-7.1 5.8-12.9 12.9-12.9 6.9 0 12.7 5.8 12.7 12.9z"/><path class="st5" d="M315.2 152.9v5.4c-.8.2-1.9-.5-2.9-.7-.8-.1-1.8.3-2.2 1-.5.7-.5 1.8-1.1 2.3-.7.6-1.8.3-2.6-.1s-1.6-1-2.5-1.1c-.7 0-1.4.3-1.9.8-.3.2-.5.5-.7.8-.5.9-.7 2-.9 3-.1.8-.4 1.7-1.1 2-.4.2-.9.1-1.4 0-1.6-.5-2.9-1.8-3.3-3.3-.5-1.6-.3-3.7-1.9-4.5-.7-.3-1.5-.2-2.2-.4-.8-.1-1.5-.6-1.9-1.2v-4h26.6z"/><path class="st7" d="M301.8 140v1c-6.5 0-11.8 5.3-11.8 11.8h-1c0-7 5.7-12.8 12.8-12.8zM288.4 152.9h13.4v28.6h-12.5c-.5 0-.8-.4-.8-.8v-27.8z"/><path class="st1" d="M295.3 154.8v27.5c0 .5-.4.8-.8.8h-24.9c-.4 0-.8-.4-.8-.8v-27.5h26.5zM294.8 154.8h-1c0-6.5-5.3-11.7-11.7-11.7-6.5 0-11.7 5.3-11.7 11.7h-1c0-7 5.7-12.7 12.7-12.7 7 0 12.7 5.7 12.7 12.7z"/><path class="st2" d="M295.3 154.8v5.3c-.8.2-1.9-.5-2.8-.7-.8-.1-1.8.3-2.2 1-.4.7-.4 1.7-1.1 2.3-.7.6-1.8.3-2.6-.1s-1.6-1-2.5-1.1c-.7 0-1.4.3-1.9.8-.3.2-.5.5-.6.8-.5.9-.7 2-.8 3-.1.8-.4 1.7-1.1 2-.4.2-.9.1-1.4 0-1.6-.5-2.8-1.7-3.3-3.3-.5-1.6-.3-3.7-1.8-4.4-.7-.3-1.5-.2-2.2-.4-.8-.1-1.4-.6-1.9-1.1v-4h26.2z"/><path class="st7" d="M270.3 154.8H282v28.4h-12.4c-.4 0-.8-.4-.8-.8v-27.5h.5c0-7 5.7-12.7 12.7-12.7v1c-6.4-.1-11.7 5.2-11.7 11.6z"/><path class="st0" d="M116 168.1H27.1c-1.6 0-2.8 1.3-2.8 2.8 0 1.6 1.3 2.8 2.8 2.8H116c1.6 0 2.8-1.3 2.8-2.8 0-1.5-1.2-2.8-2.8-2.8z"/><path class="st1" d="M53.1 49.7h4.4v117.5h-4.4z"/><circle class="st2" cx="56.4" cy="28.5" r="25.3"/><path class="st3" d="M56.4 51C44 51 34 41 34 28.6 34 16.2 44.1 6.2 56.4 6.2s22.4 10.1 22.4 22.4c.1 12.3-10 22.4-22.4 22.4zm0-43.6c-11.7 0-21.1 9.5-21.1 21.2s9.5 21.2 21.2 21.2 21.2-9.5 21.2-21.1c-.1-11.8-9.6-21.3-21.3-21.3z"/><path class="st3" d="M71.6 23.8L69.8 22c-.4.4-1 .4-1.4 0l-.2-.2.5-.4c.1-.1.1-.3 0-.5l-4.6-4.6s-3.5-2.6-6.6-.7l.9.8s1.4-.1 3.1.6c.7.3.8 1.2.3 1.7l-.5.5c-.4.4-.4 1.2 0 1.6l.4.4-9.4 9.4-.2-.2c-.2-.2-.5-.2-.6 0l-8.4 8.4c-.5.5-.5 1.4 0 1.9l1.6 1.6c.5.5 1.4.5 1.9 0l8.4-8.4c.2-.2.2-.5 0-.6l-.2-.2 9.4-9.4.9.9c.1.1.3.1.5 0l.3-.6.2.2c.4.4.4 1 0 1.4l1.8 1.8c.2.2.6.2.8 0l2.8-2.8c.3-.2.3-.6.1-.8z"/><path class="st3" d="M56.3 25.1l-2.6 2.6-4.3-4.2c-1.7.7-3.7.3-5.1-1.1-1.4-1.4-1.4-3.7-.8-5.4l3.1 3.7c.2.3.6.3.8 0l1.8-1.8c.2-.2.2-.6 0-.8L45.5 15c1.7-.7 4-.6 5.4.8 1.4 1.4 1.7 3.4 1.1 5.1l4.3 4.2zM63.9 37.1c-.2.2-.2.6 0 .8l3.7 3.1c-1.7.7-4 .6-5.4-.8-1.4-1.4-1.7-3.4-1.1-5.1l-3.6-3.6 2.6-2.6 3.6 3.6c1.7-.7 3.7-.3 5.1 1.1 1.4 1.4 1.4 3.7.8 5.4l-3.1-3.7c-.2-.2-.6-.3-.8 0l-1.8 1.8z"/><path class="st4" d="M60.9 167.2H49.6c-1.4 0-2.6 1.2-2.6 2.6v1.9h16.4v-1.9c0-1.4-1.1-2.6-2.5-2.6z"/><path class="st7" d="M55.2 3.2v168.5H47v-1.9c0-1.4 1.2-2.6 2.6-2.6H53V53.7C40.7 52 31.1 41.4 31.1 28.5 31.1 15 41.8 3.9 55.2 3.2z"/><path class="st0" d="M39.3 173.2h-33c-1.4 0-2.6 1.2-2.6 2.6 0 1.5 1.2 2.6 2.6 2.6h33c1.5 0 2.6-1.2 2.6-2.6 0-1.4-1.2-2.6-2.6-2.6z"/><path class="st2" d="M32.2 161.4l-2.1-8.1-2.6-10.2-1.7-6.5c-.7-2.9-3.8-2.9-4.5 0l-1.7 6.5-2.6 10.2-2.1 8.1-2.6 10.2h22.4l-2.5-10.2zM8.5 171.6h30.2v4.3H8.5z"/><path class="st3" d="M34.8 171.6H12.3l2.7-10.2h17.2zM30.1 153.4H17l2.6-10.2h7.9z"/><path class="st7" d="M23.6 134.5v41.4H8.5v-4.3h3.9l2.6-10.2 2.1-8.1 2.6-10.2 1.7-6.5c.3-1.4 1.2-2.1 2.2-2.1z"/><path class="st5" d="M109.8 164.5H81.7l3.3-9.1 2.6-7.2 3.3-9.1 2.1-5.8c.5-1.3 1.6-1.9 2.8-1.9 1.2 0 2.4.6 2.8 1.9l2.1 5.9 3.3 9.1 2.6 7.3 3.2 8.9z"/><path class="st5" d="M76.9 164.5h37.7v6.8H76.9z"/><path class="st8" d="M109.8 164.5H81.7l3.3-9.1h21.5zM103.9 148.1H87.6l3.2-9.1h9.9z"/><path class="st7" d="M95.8 131.2v40H76.9v-6.7h4.8l3.3-9.1 2.6-7.2 3.3-9.1 2.1-5.8c.4-1.4 1.6-2.1 2.8-2.1z"/></svg>