<svg xmlns="http://www.w3.org/2000/svg" viewBox="0 0 750 500"><style>.st0{fill:#e0e0e0}.st1{fill:#fafafa}.st2{fill:#ebebeb}.st3{fill:#f5f5f5}.st4{fill:#263238}.st5{fill:#455a64}.st6{fill:#024eff}.st7{opacity:.5}.st8{fill:#ffbe9d}.st9{fill:#fff}.st10{fill:#eb996e}.st11{opacity:.2}.st12{opacity:.4}.st14{opacity:.3}</style><g id="Background_Complete"><path class="st0" d="M637.46 465.28v-1.44c0-3.33 2.7-6.04 6.04-6.04h50.88c3.33 0 6.04 2.7 6.04 6.04v1.44h-62.96z"/><path class="st0" d="M666.96 400.73l-18.41 57.07h39.32l-17.09-57.03c-.56-1.89-3.22-1.91-3.82-.04z"/><path class="st1" d="M660.96 419.32h15.38l6.65 22.19h-29.18z"/><path class="st0" d="M266.71 464.04v-1.44c0-3.33 2.7-6.04 6.04-6.04h50.89c3.33 0 6.04 2.7 6.04 6.04v1.44h-62.97zM296.22 399.49l-18.41 57.07h39.32l-17.09-57.03c-.56-1.89-3.22-1.92-3.82-.04z"/><path class="st1" d="M290.22 418.07h15.38l6.65 22.2h-29.19z"/><path class="st2" d="M270.05 83.97l-5.06-8.81-7.92 1.16-6.54-8.22 3.37-8.18-8.83-5.86-6.59 6.65-8.68-1.52-3.52-10.21-10.55 1.11-.6 8.93-7.86 3.99-8.32-5.89-8.44 6.15 4.39 9.45-5.02 7.57-9.13-.49-2.38 11.26 8.68 3.34.75 9.46-9 5.17 4.3 9.76 9.32-1.45 6.17 7.12-3.23 8.88 8.54 6.03 6.66-7.21 9.24 2.5 2.87 9.54 10.27-.69 1.33-8.57 8.81-5.06 7.21 5.75 9.11-6.79-4.61-8.02 4.49-8.04 9.24.68 2.83-10.47-7.93-4.29-1.06-9.54 7.69-5.19zm-35.78 30.82c-9.94 5.71-22.63 2.28-28.34-7.67-5.71-9.94-2.28-22.63 7.67-28.34 9.94-5.71 22.63-2.28 28.34 7.67 5.7 9.94 2.27 22.63-7.67 28.34z"/><path class="st2" d="M233.13 90.75c-.06.04-.49-.84-1.71-2.08a10.93 10.93 0 00-6.42-3.14c-1.52-.18-3.24-.08-4.93.54-1.68.62-3.37 1.66-4.65 3.23a9.85 9.85 0 00-1.62 2.62c-.43.96-.72 2.02-.83 3.11-.27 2.18.21 4.51 1.35 6.53 1.18 2.01 2.94 3.59 4.96 4.46 1 .46 2.05.74 3.1.85 1.05.13 2.09.11 3.08-.08 2-.31 3.76-1.25 5.14-2.39 1.39-1.15 2.34-2.59 2.95-3.99 1.22-2.85.97-5.49.52-7.13-.46-1.67-1.01-2.5-.94-2.53 0 0 .6.78 1.13 2.47.52 1.65.83 4.36-.38 7.33-.61 1.46-1.58 2.96-3.01 4.18-1.43 1.2-3.25 2.19-5.34 2.53-1.04.2-2.13.23-3.22.1-1.1-.11-2.2-.4-3.25-.88-2.12-.9-3.98-2.56-5.21-4.67-1.2-2.12-1.69-4.57-1.4-6.85.12-1.14.42-2.24.88-3.25.44-1.01 1.02-1.94 1.71-2.73 1.35-1.63 3.12-2.7 4.88-3.33 1.77-.62 3.56-.7 5.12-.49 3.17.45 5.36 2.09 6.52 3.37 1.19 1.3 1.57 2.22 1.57 2.22z"/><path class="st2" d="M243 67.63c.12.08-2.7 4.57-6.29 10.03-3.6 5.46-6.61 9.82-6.73 9.74s2.7-4.57 6.29-10.03c3.6-5.45 6.61-9.82 6.73-9.74zM253.2 103.96c-.03.07-1.09-.26-2.8-.78a120.475 120.475 0 00-13.56-3.31c-1.76-.33-2.85-.52-2.84-.6.01-.07 1.12 0 2.9.23 1.78.24 4.23.66 6.9 1.31 2.66.65 5.04 1.4 6.73 2.01 1.68.63 2.69 1.08 2.67 1.14zM228.24 106.37c.07-.02.42.9.9 2.43.48 1.52 1.07 3.65 1.62 6.02.55 2.37.96 4.54 1.2 6.12s.33 2.56.27 2.57c-.07.01-.29-.95-.63-2.51-.33-1.56-.79-3.71-1.34-6.07-.55-2.36-1.08-4.5-1.47-6.04-.39-1.54-.62-2.5-.55-2.52zM217.03 105.1c.12.07-1.72 3.36-4.12 7.33-2.4 3.98-4.44 7.14-4.57 7.07-.12-.07 1.72-3.36 4.12-7.33 2.4-3.99 4.45-7.15 4.57-7.07zM215.44 69.7c.14-.04 1.32 3.41 2.65 7.72 1.33 4.3 2.29 7.83 2.15 7.87-.14.04-1.32-3.41-2.65-7.72-1.33-4.3-2.29-7.82-2.15-7.87zM213.09 94.14c-.01.14-2.92-.02-6.49-.36-3.57-.34-6.45-.73-6.44-.88.01-.14 2.92.02 6.49.36 3.57.35 6.45.74 6.44.88zM231.03 91.96a8.57 8.57 0 01-3.16 11.69 8.57 8.57 0 01-11.69-3.16 8.57 8.57 0 013.16-11.69c4.1-2.36 9.34-.95 11.69 3.16z"/><path class="st0" d="M227.74 96.28c-.08.14-1.71-1.36-4.25-1.63-2.54-.28-4.44.83-4.5.68-.03-.05.38-.41 1.19-.74.8-.33 2.02-.61 3.36-.46 1.34.14 2.47.67 3.18 1.17.73.51 1.07.94 1.02.98z"/><path class="st0" d="M224.31 91.27c.14.08-.9 1.7-1.29 3.98-.42 2.27-.02 4.16-.18 4.18-.12.06-.78-1.87-.34-4.28.43-2.4 1.72-3.98 1.81-3.88z"/><g><path class="st0" d="M382.19 262.29l-6.54-11.39-10.25 1.51-8.46-10.63 4.36-10.58-11.42-7.58-8.53 8.6-11.23-1.97-4.55-13.21-13.65 1.44-.77 11.55-10.17 5.17-10.77-7.62-10.92 7.95 5.68 12.23-6.5 9.79-11.81-.63-3.08 14.57 11.24 4.32.97 12.24-11.65 6.69 5.57 12.63 12.06-1.87 7.99 9.22-4.18 11.49 11.04 7.8 8.62-9.33 11.96 3.23 3.72 12.34 13.29-.9 1.72-11.09 11.39-6.54 9.32 7.44 11.79-8.79-5.96-10.38 5.81-10.41 11.95.88 3.67-13.55-10.26-5.56-1.37-12.35 9.92-6.71zm-46.29 39.88c-12.87 7.39-29.28 2.95-36.67-9.92-7.39-12.87-2.95-29.28 9.92-36.67 12.87-7.39 29.28-2.95 36.67 9.92 7.39 12.86 2.95 29.28-9.92 36.67z"/><path class="st0" d="M334.43 271.06c-.07.05-.62-1.1-2.19-2.72-1.54-1.58-4.33-3.59-8.33-4.1-1.97-.24-4.21-.11-6.41.69-2.18.8-4.39 2.16-6.05 4.2-.86.99-1.57 2.15-2.11 3.41-.56 1.25-.94 2.62-1.08 4.04-.35 2.84.27 5.86 1.75 8.5 1.53 2.61 3.83 4.68 6.46 5.8 1.3.59 2.67.96 4.03 1.1 1.36.17 2.72.14 4.01-.11 2.6-.41 4.88-1.63 6.68-3.11 1.8-1.5 3.04-3.37 3.82-5.19 1.57-3.7 1.25-7.13.66-9.26-.61-2.15-1.32-3.21-1.24-3.25.01 0 .05.06.13.19.09.16.2.36.33.59.15.26.32.59.47 1 .17.4.37.87.51 1.42.35 1.08.58 2.47.58 4.09-.01 1.62-.3 3.47-1.09 5.36-.79 1.88-2.04 3.82-3.88 5.38-1.84 1.54-4.18 2.82-6.87 3.26-1.33.26-2.74.29-4.15.13-1.41-.15-2.84-.52-4.18-1.13-2.72-1.16-5.12-3.3-6.7-6.01-1.54-2.73-2.18-5.88-1.81-8.82.15-1.47.55-2.89 1.13-4.18.57-1.3 1.31-2.5 2.2-3.52 1.74-2.1 4.02-3.48 6.28-4.29 2.28-.81 4.58-.91 6.6-.64 2.03.27 3.78.96 5.18 1.76 1.4.82 2.49 1.71 3.24 2.56.41.4.7.81.97 1.15.28.34.47.65.62.91.14.23.25.43.34.58.07.14.1.21.1.21z"/><path class="st0" d="M347.2 241.15c.12.08-3.55 5.87-8.2 12.94-4.65 7.07-8.52 12.73-8.64 12.65-.12-.08 3.55-5.87 8.2-12.94 4.66-7.07 8.52-12.73 8.64-12.65zM360.4 288.16c-.03.07-1.39-.38-3.6-1.06s-5.28-1.58-8.71-2.42c-3.43-.84-6.57-1.45-8.85-1.86-2.28-.41-3.7-.64-3.69-.72 0-.04.36-.02 1.01.03s1.58.16 2.73.32c2.3.32 5.47.88 8.91 1.72 3.45.84 6.51 1.8 8.7 2.58 1.1.39 1.97.72 2.57.97.62.25.94.4.93.44zM328.11 291.27c.07-.02.5 1.18 1.11 3.16.6 1.97 1.36 4.73 2.08 7.79.71 3.07 1.24 5.87 1.57 7.91.33 2.04.46 3.31.4 3.32-.07.01-.34-1.24-.76-3.25-.42-2.02-1.01-4.8-1.72-7.86-.71-3.06-1.41-5.82-1.92-7.81-.52-2.01-.83-3.24-.76-3.26zM313.6 289.62c.12.07-2.29 4.31-5.39 9.45-3.1 5.15-5.72 9.26-5.84 9.18-.12-.07 2.29-4.3 5.4-9.45 3.09-5.14 5.71-9.25 5.83-9.18zM311.54 243.83c.14-.04 1.64 4.44 3.36 10.01 1.72 5.57 3 10.12 2.86 10.16-.14.04-1.64-4.44-3.36-10.01-1.72-5.57-3-10.12-2.86-10.16zM308.5 275.45c-.01.14-3.77-.1-8.38-.54-4.62-.44-8.35-.91-8.34-1.06.01-.14 3.77.1 8.39.54 4.61.44 8.34.92 8.33 1.06z"/><circle transform="rotate(-80.538 322.122 278.135)" class="st0" cx="322.11" cy="278.14" r="11.08"/><path class="st2" d="M327.46 278.22c-.05.06-.58-.38-1.52-.9-.94-.53-2.34-1.1-3.96-1.28-1.63-.18-3.12.09-4.15.4-1.04.31-1.64.63-1.68.56-.03-.05.52-.49 1.56-.9 1.04-.42 2.6-.76 4.32-.57 1.72.19 3.18.85 4.1 1.48.93.62 1.37 1.17 1.33 1.21z"/><path class="st2" d="M323.02 271.73c.14.08-1.23 2.17-1.75 5.14-.55 2.96.01 5.4-.15 5.43-.11.06-.93-2.43-.36-5.52.54-3.1 2.18-5.15 2.26-5.05z"/></g><g><path class="st3" d="M386.02 69.59l-3.29-5.74-5.16.76-4.26-5.35 2.19-5.33-5.75-3.82-4.29 4.33-5.65-.99-2.29-6.65-6.87.73-.39 5.82-5.12 2.6-5.42-3.84-5.5 4 2.86 6.16-3.27 4.93-5.94-.32-1.55 7.33 5.66 2.18.49 6.16-5.86 3.37 2.8 6.36 6.07-.94 4.02 4.64-2.1 5.78 5.56 3.93 4.34-4.69 6.02 1.63 1.87 6.21 6.69-.45.86-5.58 5.74-3.29 4.69 3.75 5.93-4.42-3-5.23 2.92-5.24 6.02.44 1.85-6.82-5.16-2.8-.69-6.21 4.98-3.4zm-23.3 20.08c-6.48 3.72-14.74 1.48-18.46-4.99-3.72-6.48-1.48-14.74 4.99-18.46 6.48-3.72 14.74-1.48 18.46 4.99 3.72 6.47 1.49 14.74-4.99 18.46z"/><path class="st3" d="M361.98 74.01c-.03.02-.31-.56-1.1-1.37a7.105 7.105 0 00-4.19-2.06c-.99-.12-2.12-.06-3.23.35-1.1.4-2.21 1.09-3.05 2.11-.43.5-.79 1.08-1.06 1.72-.28.63-.47 1.32-.54 2.03-.18 1.43.14 2.95.88 4.28.77 1.31 1.93 2.35 3.25 2.92.65.3 1.34.48 2.03.56.68.08 1.37.07 2.02-.05 1.31-.21 2.46-.82 3.36-1.57.91-.75 1.53-1.7 1.93-2.61.79-1.86.63-3.59.33-4.66-.31-1.1-.67-1.63-.63-1.65 0 0 .03.03.06.1.05.08.1.18.17.3.08.13.16.3.24.5.08.2.19.44.26.71.18.54.29 1.25.29 2.06s-.15 1.75-.55 2.7c-.4.94-1.03 1.92-1.95 2.71-.92.78-2.11 1.42-3.46 1.64-.67.13-1.38.15-2.09.06-.71-.07-1.43-.26-2.11-.57-1.37-.58-2.58-1.66-3.37-3.02-.77-1.38-1.1-2.96-.91-4.44.08-.74.27-1.45.57-2.1.29-.66.66-1.26 1.11-1.77.87-1.06 2.02-1.75 3.16-2.16 1.15-.41 2.31-.46 3.32-.32 1.02.14 1.9.48 2.61.89.7.41 1.25.86 1.63 1.29.21.2.35.41.49.58.14.17.24.33.31.46.07.12.13.21.17.29.04.05.05.09.05.09z"/><path class="st3" d="M368.41 58.95c.06.04-1.79 2.96-4.13 6.51-2.34 3.56-4.29 6.41-4.35 6.37-.06-.04 1.79-2.95 4.13-6.51 2.34-3.56 4.29-6.41 4.35-6.37zM375.05 82.62c-.01.04-.7-.19-1.81-.53s-2.66-.8-4.38-1.22c-1.73-.42-3.31-.73-4.45-.94-1.15-.21-1.86-.32-1.85-.36 0-.02.18-.01.51.02s.8.08 1.38.16c1.16.16 2.75.44 4.49.87 1.73.42 3.28.91 4.38 1.3.55.2.99.36 1.3.49.27.11.44.19.43.21zM358.8 84.18c.03-.01.25.59.56 1.59.3.99.69 2.38 1.05 3.92.36 1.55.63 2.96.79 3.98.17 1.03.23 1.67.2 1.67-.04.01-.17-.62-.38-1.64s-.51-2.42-.86-3.96c-.36-1.54-.71-2.93-.97-3.93-.27-1-.43-1.62-.39-1.63zM351.5 83.35c.06.04-1.15 2.17-2.72 4.76-1.56 2.59-2.88 4.66-2.94 4.62-.06-.04 1.15-2.17 2.72-4.76 1.56-2.59 2.87-4.65 2.94-4.62zM350.46 60.3c.07-.02.83 2.23 1.69 5.04.86 2.8 1.51 5.09 1.44 5.11-.07.02-.83-2.23-1.69-5.04-.87-2.8-1.51-5.09-1.44-5.11zM348.93 76.22c-.01.07-1.9-.05-4.22-.27-2.32-.22-4.2-.46-4.2-.53.01-.07 1.9.05 4.22.27 2.33.22 4.21.46 4.2.53zM360.61 74.79c1.53 2.67.61 6.08-2.06 7.61a5.577 5.577 0 01-7.61-2.06 5.577 5.577 0 012.06-7.61 5.577 5.577 0 017.61 2.06z"/><path class="st2" d="M358.47 77.61c-.03.03-.29-.19-.77-.45-.47-.27-1.18-.55-2-.64-.82-.09-1.57.04-2.09.2-.52.16-.83.32-.85.28-.02-.03.26-.25.79-.45.52-.21 1.31-.38 2.18-.29.87.09 1.6.43 2.06.75.48.31.7.58.68.6z"/><path class="st2" d="M356.24 74.35c.07.04-.62 1.09-.88 2.59-.28 1.49.01 2.72-.08 2.73-.06.03-.47-1.22-.18-2.78.27-1.56 1.1-2.59 1.14-2.54z"/></g><g><path class="st3" d="M246.92 210.84l-8.29-14.44-12.98 1.91-10.72-13.47 5.53-13.41-14.48-9.61-10.81 10.9-14.23-2.49-5.77-16.74-17.3 1.83-.98 14.64L144 176.5l-13.64-9.66-13.84 10.08 7.19 15.5-8.23 12.41-14.96-.8-3.91 18.46 14.24 5.48 1.23 15.51-14.76 8.47 7.05 16 15.28-2.37 10.12 11.68-5.29 14.56 13.99 9.88 10.92-11.82 15.15 4.1 4.71 15.64 16.84-1.14 2.17-14.05 14.44-8.29 11.81 9.43 14.94-11.14-7.55-13.16 7.36-13.19 15.15 1.12 4.65-17.17-13-7.04-1.73-15.65 12.59-8.5zm-58.66 50.53c-16.3 9.36-37.11 3.73-46.47-12.57s-3.73-37.11 12.57-46.47 37.11-3.73 46.47 12.57c9.36 16.31 3.73 37.11-12.57 46.47z"/><path class="st3" d="M186.39 221.96c-.08.06-.79-1.4-2.77-3.44-1.95-2-5.49-4.55-10.55-5.2-2.5-.3-5.33-.14-8.12.87-2.76 1.02-5.56 2.73-7.67 5.32a16.69 16.69 0 00-2.68 4.32 16.64 16.64 0 00-1.37 5.12c-.44 3.59.34 7.43 2.22 10.77 1.94 3.31 4.85 5.92 8.18 7.35a16.7 16.7 0 005.11 1.4c1.72.21 3.45.17 5.08-.13 3.3-.52 6.19-2.07 8.46-3.94 2.28-1.9 3.85-4.27 4.85-6.58 2-4.69 1.58-9.04.83-11.73-.76-2.74-1.66-4.09-1.57-4.13.01-.01.06.08.16.24.11.2.25.45.42.75.19.33.41.74.6 1.26.21.51.47 1.1.64 1.8.45 1.37.73 3.13.73 5.18-.01 2.05-.39 4.4-1.38 6.8-1 2.38-2.58 4.83-4.92 6.81-2.33 1.95-5.3 3.57-8.71 4.13-1.69.33-3.47.37-5.26.16-1.79-.19-3.59-.66-5.3-1.43-3.45-1.47-6.48-4.18-8.49-7.62-1.95-3.46-2.76-7.45-2.29-11.17.19-1.86.69-3.66 1.43-5.3.72-1.65 1.66-3.17 2.79-4.46 2.2-2.66 5.1-4.41 7.95-5.44 2.89-1.02 5.81-1.15 8.36-.82 2.57.35 4.79 1.21 6.57 2.23 1.77 1.03 3.15 2.17 4.11 3.25.52.5.89 1.02 1.23 1.46.35.43.6.82.79 1.15.17.3.32.54.44.74.09.19.14.28.13.28z"/><path class="st3" d="M202.58 184.05c.15.1-4.5 7.44-10.39 16.39-5.89 8.95-10.79 16.13-10.95 16.03-.15-.1 4.5-7.44 10.4-16.39 5.89-8.95 10.79-16.13 10.94-16.03zM219.3 243.62c-.03.09-1.76-.48-4.56-1.34-2.8-.87-6.69-2-11.04-3.07-4.35-1.06-8.32-1.84-11.21-2.36-2.89-.52-4.68-.81-4.67-.91.01-.05.46-.03 1.28.04.82.07 2 .2 3.46.41 2.92.4 6.93 1.12 11.29 2.18 4.37 1.07 8.25 2.28 11.03 3.27 1.39.49 2.5.91 3.26 1.23.76.31 1.18.51 1.16.55zM178.38 247.56c.08-.03.64 1.5 1.4 4 .77 2.5 1.73 5.99 2.63 9.88.9 3.89 1.58 7.44 1.99 10.03.42 2.58.59 4.19.5 4.21-.09.02-.43-1.57-.96-4.12-.53-2.56-1.28-6.08-2.18-9.96-.9-3.88-1.79-7.37-2.44-9.9-.63-2.54-1.03-4.11-.94-4.14zM160 245.48c.16.09-2.91 5.46-6.84 11.97-3.93 6.52-7.25 11.73-7.4 11.63-.16-.09 2.9-5.45 6.84-11.98 3.93-6.51 7.24-11.72 7.4-11.62zM157.39 187.45c.17-.05 2.08 5.62 4.25 12.68s3.8 12.82 3.62 12.87c-.17.05-2.08-5.62-4.25-12.68-2.17-7.05-3.8-12.82-3.62-12.87zM153.54 227.52c-.02.18-4.77-.12-10.62-.68s-10.58-1.16-10.56-1.34c.02-.18 4.77.12 10.63.68 5.83.56 10.56 1.16 10.55 1.34z"/><circle transform="rotate(-73.889 170.77 230.928)" class="st3" cx="170.78" cy="230.92" r="14.04"/><path class="st2" d="M177.56 231.03c-.07.08-.73-.48-1.93-1.14-1.19-.67-2.96-1.4-5.02-1.62-2.06-.22-3.95.11-5.25.51-1.31.39-2.08.8-2.13.7-.04-.06.65-.62 1.98-1.14 1.31-.53 3.3-.96 5.48-.72 2.18.24 4.03 1.08 5.19 1.88 1.18.79 1.73 1.48 1.68 1.53z"/><path class="st2" d="M171.93 222.8c.18.1-1.56 2.75-2.21 6.51-.7 3.75.01 6.85-.19 6.88-.14.08-1.18-3.08-.46-6.99.69-3.92 2.76-6.52 2.86-6.4z"/></g><g><path class="st3" d="M630.28 202.09l-8.29-14.44-12.99 1.91-10.72-13.47 5.53-13.41-14.48-9.61-10.81 10.9-14.23-2.49-5.77-16.74-17.3 1.83-.98 14.64-12.89 6.55-13.64-9.66-13.84 10.08 7.19 15.5-8.23 12.41-14.96-.8-3.91 18.46 14.24 5.48 1.23 15.51-14.76 8.47 7.05 16 15.28-2.37 10.12 11.68-5.29 14.56 13.99 9.88 10.92-11.82 15.15 4.1 4.71 15.64 16.84-1.14 2.17-14.05 14.44-8.29 11.81 9.43 14.94-11.14-7.55-13.16 7.36-13.19 15.15 1.12 4.65-17.17-13-7.04-1.73-15.65 12.6-8.51zm-58.67 50.53c-16.3 9.36-37.11 3.73-46.47-12.57s-3.73-37.11 12.57-46.47 37.11-3.73 46.47 12.57c9.37 16.3 3.74 37.11-12.57 46.47z"/><path class="st3" d="M569.74 213.21c-.08.06-.79-1.4-2.77-3.44-1.95-2-5.49-4.55-10.55-5.2-2.5-.3-5.33-.14-8.12.87-2.77 1.02-5.56 2.73-7.67 5.32-1.09 1.26-1.99 2.73-2.68 4.32a16.64 16.64 0 00-1.37 5.12c-.44 3.59.34 7.43 2.22 10.77 1.94 3.31 4.85 5.92 8.18 7.35a16.7 16.7 0 005.11 1.4c1.72.21 3.45.17 5.08-.13 3.3-.52 6.19-2.07 8.46-3.94 2.28-1.9 3.85-4.27 4.85-6.58 2-4.69 1.58-9.04.83-11.73-.76-2.75-1.66-4.09-1.57-4.13.01-.01.06.08.16.24.11.2.25.45.42.75.19.33.41.74.6 1.26.21.51.47 1.1.64 1.8.45 1.37.73 3.13.73 5.18-.01 2.05-.39 4.4-1.38 6.8-1 2.38-2.58 4.83-4.92 6.81-2.33 1.95-5.3 3.57-8.71 4.13-1.69.33-3.47.37-5.26.16-1.79-.19-3.59-.66-5.3-1.43-3.45-1.47-6.48-4.18-8.49-7.62-1.95-3.46-2.76-7.45-2.29-11.17.19-1.86.69-3.66 1.43-5.3.72-1.65 1.66-3.17 2.79-4.46 2.2-2.66 5.1-4.41 7.95-5.44 2.89-1.02 5.81-1.15 8.36-.82 2.57.35 4.79 1.21 6.57 2.23 1.77 1.03 3.15 2.17 4.11 3.25.52.5.89 1.02 1.23 1.46.35.43.6.82.79 1.15.17.3.32.54.44.74.1.18.14.27.13.28z"/><path class="st3" d="M585.94 175.3c.15.1-4.5 7.44-10.39 16.39-5.89 8.95-10.79 16.13-10.95 16.03-.15-.1 4.5-7.44 10.4-16.39 5.88-8.95 10.78-16.13 10.94-16.03zM602.66 234.87c-.03.09-1.76-.48-4.56-1.34-2.8-.87-6.69-2-11.04-3.07-4.35-1.06-8.32-1.84-11.21-2.36-2.89-.52-4.68-.81-4.67-.91.01-.05.46-.03 1.28.04.82.07 2 .2 3.46.41 2.92.4 6.93 1.12 11.29 2.18 4.37 1.07 8.25 2.28 11.03 3.27 1.39.49 2.5.91 3.26 1.23.76.31 1.17.51 1.16.55zM561.74 238.81c.08-.03.64 1.5 1.4 4 .77 2.5 1.73 5.99 2.63 9.88.9 3.89 1.58 7.44 1.99 10.03.42 2.58.59 4.19.5 4.21-.09.02-.43-1.57-.96-4.12-.53-2.56-1.28-6.08-2.17-9.96-.9-3.88-1.79-7.37-2.44-9.9-.65-2.55-1.04-4.12-.95-4.14zM543.35 236.72c.16.09-2.91 5.46-6.84 11.97-3.93 6.52-7.25 11.73-7.4 11.63-.16-.09 2.9-5.45 6.84-11.98 3.93-6.5 7.25-11.71 7.4-11.62zM540.74 178.7c.17-.05 2.08 5.62 4.25 12.68s3.8 12.82 3.62 12.87c-.17.05-2.08-5.62-4.25-12.68-2.17-7.05-3.79-12.82-3.62-12.87zM536.89 218.76c-.02.18-4.77-.12-10.62-.68s-10.58-1.16-10.56-1.34c.02-.18 4.77.12 10.63.68 5.84.56 10.57 1.16 10.55 1.34z"/><circle transform="rotate(-74.663 554.115 222.168)" class="st3" cx="554.13" cy="222.17" r="14.04"/><path class="st2" d="M560.91 222.28c-.07.08-.73-.48-1.93-1.14-1.19-.67-2.96-1.4-5.02-1.62-2.06-.22-3.95.11-5.25.51-1.31.39-2.08.8-2.13.7-.04-.06.65-.62 1.98-1.14 1.31-.53 3.3-.96 5.48-.72 2.18.24 4.03 1.08 5.19 1.88 1.18.78 1.74 1.47 1.68 1.53z"/><path class="st2" d="M555.29 214.05c.18.1-1.56 2.75-2.21 6.51-.7 3.75.01 6.85-.19 6.88-.14.08-1.18-3.08-.46-6.99.68-3.93 2.75-6.52 2.86-6.4z"/></g><g><path class="st3" d="M477.2 291.36l-4.08-7.1-6.38.94-5.27-6.62 2.72-6.6-7.12-4.72-5.31 5.36-7-1.23-2.84-8.23-8.51.9-.48 7.2-6.34 3.22-6.71-4.75-6.8 4.96 3.54 7.62-4.05 6.1-7.36-.39-1.92 9.08 7 2.69.6 7.63-7.26 4.17 3.47 7.87 7.51-1.17 4.98 5.74-2.6 7.16 6.88 4.86 5.37-5.81 7.45 2.02 2.32 7.69 8.28-.56 1.07-6.91 7.1-4.08 5.81 4.64 7.35-5.48-3.71-6.47 3.62-6.48 7.45.55 2.28-8.44-6.39-3.46-.85-7.69 6.18-4.21zm-28.84 24.85c-8.02 4.6-18.25 1.84-22.85-6.18-4.6-8.02-1.84-18.25 6.18-22.85s18.25-1.84 22.85 6.18c4.6 8.01 1.84 18.24-6.18 22.85z"/><path class="st3" d="M447.44 296.83c-.04.03-.39-.69-1.36-1.69-.96-.98-2.7-2.24-5.19-2.55-1.23-.15-2.62-.07-3.99.43-1.36.5-2.73 1.34-3.77 2.61a8.22 8.22 0 00-1.32 2.12 8.16 8.16 0 00-.67 2.52c-.22 1.77.17 3.65 1.09 5.3.95 1.63 2.39 2.91 4.02 3.62.81.37 1.66.6 2.51.69.85.1 1.7.09 2.5-.07 1.62-.26 3.04-1.02 4.16-1.94 1.12-.93 1.89-2.1 2.38-3.23.98-2.31.78-4.45.41-5.77-.37-1.36-.82-2.02-.77-2.04 0 0 .03.04.08.12.06.1.12.22.21.37.09.16.2.37.29.62.1.25.23.54.32.88.22.67.36 1.54.36 2.55 0 1.01-.19 2.16-.68 3.34-.49 1.17-1.27 2.38-2.42 3.35-1.14.96-2.61 1.76-4.28 2.03-.83.16-1.71.18-2.59.08-.88-.09-1.77-.33-2.61-.71-1.7-.72-3.19-2.06-4.18-3.74-.96-1.7-1.36-3.66-1.13-5.49.09-.92.34-1.8.7-2.61.35-.81.82-1.56 1.37-2.19 1.08-1.31 2.51-2.17 3.91-2.68 1.42-.5 2.86-.57 4.11-.4 1.26.17 2.36.6 3.23 1.1.87.51 1.55 1.07 2.02 1.6.25.25.44.5.6.72.17.21.3.41.39.57.09.15.16.27.21.36.07.08.09.12.09.13z"/><path class="st3" d="M455.4 278.18c.07.05-2.21 3.66-5.11 8.06-2.9 4.4-5.31 7.93-5.38 7.88-.07-.05 2.21-3.66 5.11-8.06 2.9-4.4 5.31-7.92 5.38-7.88zM463.62 307.48c-.02.05-.87-.23-2.24-.66-1.38-.43-3.29-.99-5.43-1.51a90.29 90.29 0 00-5.51-1.16c-1.42-.26-2.3-.4-2.3-.45 0-.02.23-.01.63.02s.99.1 1.7.2c1.43.2 3.41.55 5.55 1.07 2.15.52 4.06 1.12 5.42 1.61.68.24 1.23.45 1.6.61.39.15.59.25.58.27zM443.5 309.41c.04-.01.31.74.69 1.97.38 1.23.85 2.94 1.29 4.86.44 1.91.77 3.66.98 4.93.2 1.27.29 2.06.25 2.07-.05.01-.21-.77-.47-2.03-.26-1.26-.63-2.99-1.07-4.9-.44-1.91-.88-3.62-1.2-4.87-.32-1.24-.51-2.01-.47-2.03zM434.46 308.39c.08.05-1.43 2.68-3.36 5.89-1.93 3.21-3.56 5.77-3.64 5.72-.08-.05 1.43-2.68 3.36-5.89 1.93-3.21 3.56-5.77 3.64-5.72zM433.18 279.86c.09-.03 1.02 2.77 2.09 6.23 1.07 3.47 1.87 6.3 1.78 6.33-.09.03-1.02-2.76-2.09-6.24-1.07-3.46-1.87-6.3-1.78-6.32zM431.28 299.56c-.01.09-2.35-.06-5.22-.34-2.88-.27-5.2-.57-5.19-.66.01-.09 2.35.06 5.23.34 2.87.27 5.19.57 5.18.66z"/><circle transform="rotate(-72.18 439.768 301.246)" class="st3" cx="439.76" cy="301.23" r="6.9"/><path class="st2" d="M443.1 301.29c-.03.04-.36-.23-.95-.56-.58-.33-1.46-.69-2.47-.8a6.51 6.51 0 00-2.58.25c-.65.19-1.02.39-1.05.35-.02-.03.32-.3.97-.56.65-.26 1.62-.47 2.69-.35 1.07.12 1.98.53 2.55.92.59.38.86.72.84.75z"/><path class="st2" d="M440.33 297.24c.09.05-.77 1.35-1.09 3.2-.34 1.84.01 3.37-.09 3.38-.07.04-.58-1.51-.22-3.44.33-1.92 1.35-3.2 1.4-3.14z"/></g><g><path class="st0" d="M525.81 91.5l-6.54-11.39-10.25 1.51-8.46-10.63 4.36-10.58-11.42-7.58-8.53 8.6-11.23-1.97-4.55-13.21-13.65 1.44-.77 11.55-10.17 5.17-10.77-7.62-10.92 7.95 5.67 12.23-6.5 9.79-11.81-.63-3.08 14.57 11.24 4.32.97 12.24-11.65 6.69 5.57 12.63 12.06-1.87 7.99 9.22-4.18 11.49 11.04 7.8 8.62-9.33 11.96 3.23 3.72 12.34 13.29-.9 1.72-11.09 11.39-6.54 9.32 7.44 11.79-8.79-5.96-10.38 5.81-10.41 11.95.88 3.67-13.55-10.26-5.56-1.37-12.35 9.93-6.71zm-46.29 39.88c-12.87 7.39-29.28 2.95-36.67-9.92-7.39-12.87-2.95-29.28 9.92-36.67 12.87-7.39 29.28-2.95 36.67 9.92 7.38 12.86 2.94 29.28-9.92 36.67z"/><path class="st0" d="M478.04 100.27c-.07.05-.62-1.1-2.19-2.72-1.54-1.58-4.33-3.59-8.33-4.1-1.97-.24-4.21-.11-6.41.69-2.18.8-4.39 2.16-6.05 4.2-.86.99-1.57 2.15-2.11 3.41-.56 1.25-.94 2.62-1.08 4.04-.35 2.84.27 5.86 1.75 8.5 1.53 2.61 3.83 4.68 6.46 5.8 1.3.59 2.67.96 4.03 1.1 1.36.17 2.72.14 4.01-.11 2.6-.41 4.88-1.63 6.68-3.11 1.8-1.5 3.04-3.37 3.82-5.19 1.57-3.7 1.25-7.13.66-9.26-.6-2.15-1.31-3.21-1.24-3.25.01 0 .05.06.13.19.09.16.2.36.33.59.15.26.32.59.47 1 .17.4.37.87.51 1.42.35 1.08.58 2.47.58 4.09-.01 1.62-.3 3.47-1.09 5.36-.79 1.88-2.04 3.82-3.88 5.38-1.84 1.54-4.18 2.82-6.87 3.26-1.33.26-2.74.29-4.15.13-1.41-.15-2.84-.52-4.18-1.13-2.72-1.16-5.12-3.3-6.7-6.01-1.54-2.73-2.18-5.88-1.81-8.82.15-1.47.55-2.89 1.13-4.18.57-1.3 1.31-2.5 2.2-3.52 1.74-2.1 4.02-3.48 6.28-4.29 2.28-.81 4.58-.91 6.6-.64 2.03.27 3.78.96 5.18 1.76 1.4.82 2.49 1.71 3.24 2.56.41.4.7.81.97 1.15.28.34.47.65.62.91.14.23.25.43.34.58.07.14.11.21.1.21z"/><path class="st0" d="M490.82 70.36c.12.08-3.55 5.87-8.2 12.94-4.65 7.07-8.52 12.73-8.64 12.65-.12-.08 3.55-5.87 8.2-12.94 4.65-7.07 8.52-12.73 8.64-12.65zM504.01 117.37c-.03.07-1.39-.38-3.6-1.06s-5.28-1.58-8.71-2.42c-3.43-.84-6.57-1.45-8.85-1.86-2.28-.41-3.7-.64-3.69-.72 0-.04.36-.02 1.01.03s1.58.16 2.73.32c2.3.32 5.47.88 8.91 1.72 3.45.84 6.51 1.8 8.7 2.58 1.1.39 1.97.72 2.57.97.62.25.94.4.93.44zM471.72 120.47c.07-.02.5 1.18 1.11 3.16.6 1.97 1.36 4.73 2.08 7.79.71 3.07 1.24 5.87 1.57 7.91.33 2.04.46 3.31.4 3.32-.07.01-.34-1.24-.76-3.25-.42-2.02-1.01-4.8-1.72-7.86-.71-3.06-1.41-5.82-1.92-7.81-.52-2-.83-3.23-.76-3.26zM457.21 118.83c.12.07-2.29 4.31-5.39 9.45-3.1 5.15-5.72 9.26-5.84 9.18-.12-.07 2.29-4.3 5.4-9.45 3.09-5.14 5.71-9.25 5.83-9.18zM455.15 73.04c.14-.04 1.64 4.44 3.36 10.01 1.72 5.57 3 10.12 2.86 10.16-.14.04-1.64-4.44-3.36-10.01-1.71-5.57-2.99-10.12-2.86-10.16zM452.11 104.66c-.01.14-3.77-.1-8.38-.54-4.62-.44-8.35-.91-8.34-1.06.01-.14 3.77.1 8.39.54 4.61.44 8.35.92 8.33 1.06z"/><circle transform="rotate(-15.647 465.707 107.348)" class="st0" cx="465.72" cy="107.35" r="11.08"/><path class="st2" d="M471.07 107.43c-.05.06-.58-.38-1.52-.9-.94-.53-2.34-1.1-3.96-1.28-1.63-.18-3.12.09-4.15.4-1.04.31-1.64.63-1.68.56-.03-.05.52-.49 1.56-.9 1.04-.42 2.6-.76 4.32-.57 1.72.19 3.18.85 4.1 1.48.93.62 1.38 1.17 1.33 1.21z"/><path class="st2" d="M466.63 100.94c.14.08-1.23 2.17-1.75 5.14-.55 2.96.01 5.4-.15 5.43-.11.06-.93-2.43-.36-5.52.54-3.1 2.18-5.15 2.26-5.05z"/></g><g><path class="st2" d="M323.95 113.32l-1.7-2.95-2.66.39-2.19-2.76 1.13-2.74-2.96-1.97-2.21 2.23-2.91-.51-1.18-3.42-3.54.37-.2 2.99-2.64 1.34-2.79-1.98-2.83 2.06 1.47 3.17-1.68 2.54-3.06-.16-.8 3.78 2.91 1.12.25 3.17-3.02 1.73 1.44 3.27 3.12-.49 2.07 2.39-1.08 2.98 2.86 2.02 2.23-2.42 3.1.84.96 3.2 3.44-.23.44-2.87 2.95-1.7 2.42 1.93 3.06-2.28-1.54-2.69 1.51-2.7 3.1.23.95-3.51-2.66-1.44-.35-3.2 2.59-1.73zm-12 10.33c-3.33 1.91-7.59.76-9.5-2.57-1.91-3.33-.76-7.59 2.57-9.5 3.33-1.91 7.59-.76 9.5 2.57 1.92 3.33.76 7.59-2.57 9.5z"/><path class="st2" d="M311.57 115.59c-.04.02-.21-.26-.62-.65-.41-.39-1.12-.87-2.12-.98-.98-.12-2.24.23-3.08 1.25-.84.98-1.1 2.62-.34 3.92.74 1.32 2.29 1.92 3.56 1.68a3.51 3.51 0 002.63-2.03c.41-.92.35-1.78.22-2.33-.13-.55-.29-.84-.25-.86.02-.01.24.24.45.81.2.56.33 1.49-.08 2.52-.38 1.02-1.41 2.09-2.88 2.36-1.44.3-3.24-.38-4.09-1.9-.88-1.5-.56-3.4.43-4.49.97-1.14 2.42-1.49 3.49-1.3 1.1.17 1.84.75 2.22 1.2.37.47.48.79.46.8z"/><path class="st2" d="M314.88 107.84c.12.08-.76 1.63-1.96 3.46-1.21 1.83-2.28 3.25-2.4 3.17-.12-.08.76-1.63 1.97-3.46 1.19-1.83 2.27-3.25 2.39-3.17zM318.3 120.02c-.05.14-1.47-.29-3.24-.71-1.76-.43-3.22-.71-3.2-.86.01-.14 1.52-.09 3.33.35 1.8.44 3.16 1.09 3.11 1.22zM309.93 120.83c.13-.04.64 1.19 1.01 2.79s.46 2.93.32 2.95c-.14.02-.46-1.26-.83-2.84-.36-1.57-.64-2.86-.5-2.9zM306.17 120.4c.12.07-.43 1.22-1.23 2.55-.8 1.33-1.56 2.35-1.68 2.28-.12-.07.43-1.22 1.23-2.55.8-1.33 1.56-2.35 1.68-2.28zM305.64 108.53c.14-.04.61 1.09 1.05 2.54.44 1.44.69 2.65.56 2.69-.14.04-.61-1.09-1.05-2.54-.45-1.44-.7-2.65-.56-2.69zM304.85 116.73c-.01.14-.99.17-2.19.05-1.2-.11-2.16-.32-2.14-.47.01-.14.99-.17 2.19-.05 1.19.11 2.15.32 2.14.47zM310.86 115.99c.79 1.38.31 3.13-1.06 3.92-1.38.79-3.13.31-3.92-1.06a2.875 2.875 0 011.06-3.92c1.38-.79 3.13-.31 3.92 1.06z"/><path class="st0" d="M309.76 117.44c-.1.11-.66-.3-1.44-.37-.78-.09-1.41.18-1.49.06-.1-.1.55-.68 1.55-.57.99.11 1.5.8 1.38.88z"/><path class="st0" d="M308.61 115.76c.12.09-.14.65-.26 1.37-.14.72-.09 1.33-.23 1.37-.13.05-.44-.61-.28-1.46.15-.85.66-1.37.77-1.28z"/></g><g><path class="st2" d="M600.84 100.96l-2.76-4.8-4.32.63-3.56-4.48 1.84-4.46-4.81-3.19-3.59 3.62-4.73-.83-1.92-5.56-5.75.61-.33 4.87-4.28 2.18-4.54-3.21-4.6 3.35 2.39 5.15-2.74 4.12-4.97-.26-1.3 6.13 4.73 1.82.41 5.15-4.91 2.82 2.34 5.32 5.08-.79 3.36 3.88-1.76 4.84 4.65 3.29 3.63-3.93 5.04 1.36 1.57 5.2 5.6-.38.72-4.67 4.8-2.76 3.93 3.13 4.97-3.7-2.51-4.37 2.45-4.38 5.03.37 1.54-5.71-4.32-2.34-.58-5.2 4.2-2.82zm-19.5 16.8c-5.42 3.11-12.33 1.24-15.45-4.18-3.11-5.42-1.24-12.33 4.18-15.45 5.42-3.11 12.33-1.24 15.45 4.18 3.11 5.42 1.24 12.33-4.18 15.45z"/><path class="st2" d="M580.72 104.65c-.05.03-.3-.44-.96-1.1a5.914 5.914 0 00-3.48-1.66c-1.62-.22-3.73.35-5.13 2.04-1.41 1.62-1.86 4.37-.58 6.55 1.24 2.2 3.84 3.21 5.95 2.8 2.16-.36 3.72-1.9 4.35-3.4.66-1.53.55-2.95.32-3.84-.24-.9-.52-1.36-.47-1.39.02-.01.09.1.22.32.13.21.3.56.44 1.02.3.9.49 2.4-.17 4.04-.62 1.62-2.27 3.32-4.61 3.73-1.15.21-2.43.1-3.59-.43-1.18-.5-2.21-1.42-2.89-2.59-.66-1.18-.94-2.54-.78-3.8.14-1.27.68-2.44 1.44-3.32 1.54-1.81 3.83-2.38 5.54-2.1 1.75.26 2.95 1.18 3.58 1.89.32.36.54.67.65.89.13.23.18.35.17.35z"/><path class="st2" d="M586.1 92.05c.12.08-1.37 2.56-3.33 5.53-1.96 2.98-3.64 5.32-3.76 5.25-.12-.08 1.37-2.56 3.33-5.53 1.96-2.98 3.64-5.32 3.76-5.25zM591.66 111.85c-.05.14-2.34-.62-5.22-1.32-2.88-.71-5.26-1.08-5.24-1.23.01-.14 2.45.01 5.37.73 2.91.71 5.14 1.7 5.09 1.82zM578.06 113.16c.13-.04.89 1.98 1.49 4.58.6 2.59.82 4.74.68 4.77-.15.02-.59-2.08-1.19-4.65-.6-2.57-1.12-4.65-.98-4.7zM571.95 112.47c.12.07-.84 1.89-2.14 4.06-1.31 2.17-2.47 3.86-2.59 3.79-.12-.07.84-1.89 2.14-4.06 1.3-2.17 2.46-3.86 2.59-3.79zM571.08 93.18c.14-.04.83 1.82 1.56 4.17.72 2.35 1.2 4.28 1.06 4.32-.14.04-.83-1.82-1.56-4.17-.72-2.34-1.2-4.27-1.06-4.32zM569.8 106.5c-.01.14-1.6.11-3.55-.08-1.95-.19-3.51-.45-3.5-.6.01-.14 1.6-.11 3.55.08 1.95.19 3.51.46 3.5.6zM579.58 105.31c1.28 2.23.51 5.09-1.72 6.37a4.673 4.673 0 01-6.37-1.72 4.67 4.67 0 011.72-6.37c2.23-1.29 5.08-.51 6.37 1.72z"/><path class="st0" d="M577.78 107.67c-.09.12-.99-.63-2.33-.77-1.33-.15-2.37.39-2.44.25-.1-.1.94-.93 2.49-.77 1.56.18 2.41 1.22 2.28 1.29z"/><path class="st0" d="M575.92 104.94c.13.08-.38.98-.59 2.19-.23 1.21-.06 2.22-.21 2.26-.13.05-.55-1.01-.3-2.35.23-1.35.99-2.2 1.1-2.1z"/></g><g><path class="st2" d="M244.09 329.09l-2.76-4.8-4.32.63-3.56-4.48 1.84-4.46-4.81-3.19-3.59 3.62-4.73-.83-1.92-5.56-5.75.61-.33 4.87-4.28 2.18-4.53-3.21-4.6 3.35 2.39 5.15-2.74 4.12-4.97-.26-1.3 6.13 4.73 1.82.41 5.15-4.91 2.82 2.34 5.32 5.08-.79 3.36 3.88-1.76 4.84 4.65 3.29 3.63-3.93 5.04 1.36 1.57 5.2 5.6-.38.72-4.67 4.8-2.76 3.93 3.13 4.97-3.7-2.51-4.37 2.45-4.38 5.03.37 1.54-5.71-4.32-2.34-.58-5.2 4.19-2.82zm-19.5 16.8c-5.42 3.11-12.33 1.24-15.45-4.18-3.11-5.42-1.24-12.33 4.18-15.45 5.42-3.11 12.33-1.24 15.45 4.18 3.11 5.42 1.24 12.34-4.18 15.45z"/><path class="st2" d="M223.97 332.79c-.05.03-.3-.44-.96-1.1a5.914 5.914 0 00-3.48-1.66c-1.62-.22-3.73.36-5.13 2.04-1.41 1.62-1.86 4.37-.58 6.55 1.24 2.2 3.84 3.21 5.95 2.8 2.16-.36 3.72-1.9 4.35-3.4.66-1.53.55-2.95.32-3.84-.24-.91-.52-1.37-.47-1.39.02-.01.09.1.22.32.13.21.3.55.44 1.02.3.9.49 2.4-.17 4.04-.62 1.62-2.27 3.32-4.61 3.73-1.15.21-2.43.1-3.59-.43-1.18-.5-2.21-1.42-2.89-2.59-.66-1.18-.94-2.54-.78-3.8.14-1.27.68-2.44 1.44-3.32 1.54-1.81 3.83-2.38 5.54-2.1 1.75.26 2.95 1.18 3.58 1.89.32.36.54.67.65.89.13.22.18.34.17.35z"/><path class="st2" d="M229.35 320.19c.12.08-1.37 2.56-3.33 5.53-1.96 2.98-3.64 5.32-3.76 5.25-.12-.08 1.37-2.56 3.33-5.53 1.96-2.98 3.64-5.33 3.76-5.25zM234.91 339.99c-.05.14-2.34-.62-5.22-1.32-2.88-.71-5.26-1.08-5.24-1.23.01-.14 2.45.01 5.37.73 2.91.7 5.14 1.69 5.09 1.82zM221.31 341.3c.13-.04.89 1.98 1.49 4.58.6 2.59.82 4.74.68 4.77-.15.02-.59-2.08-1.19-4.65-.6-2.58-1.12-4.66-.98-4.7zM215.2 340.6c.12.07-.84 1.89-2.14 4.06-1.31 2.17-2.47 3.86-2.59 3.79-.12-.07.84-1.89 2.14-4.06 1.3-2.16 2.46-3.86 2.59-3.79zM214.33 321.32c.14-.04.83 1.82 1.56 4.17.72 2.35 1.2 4.28 1.06 4.32-.14.04-.83-1.82-1.56-4.17-.72-2.35-1.2-4.28-1.06-4.32zM213.05 334.63c-.01.14-1.6.11-3.55-.08-1.95-.19-3.51-.45-3.5-.6.01-.14 1.6-.11 3.55.08 1.95.19 3.51.46 3.5.6zM222.83 333.44a4.67 4.67 0 01-1.72 6.37 4.67 4.67 0 01-6.37-1.72 4.673 4.673 0 011.72-6.37 4.675 4.675 0 016.37 1.72z"/><path class="st0" d="M221.03 335.8c-.1.12-.99-.63-2.33-.77-1.33-.15-2.37.39-2.44.25-.1-.1.94-.93 2.49-.77 1.56.18 2.4 1.22 2.28 1.29z"/><path class="st0" d="M219.16 333.07c.13.08-.38.98-.59 2.19-.23 1.21-.06 2.22-.21 2.26-.13.05-.55-1.01-.3-2.35.24-1.34 1-2.19 1.1-2.1z"/></g></g><path class="st3" d="M148.57 307.07c27.68 42.33 51.9 59.18 100.26 73.97 48.36 14.79 113.17 11.62 163.45 6.15 38.15-4.15 78.12-21.03 111.83-39.37 31.55-17.16 56.43-51.97 72.33-84.16 15.9-32.2 20.41-70.27 10.44-104.77-6.61-22.88-20.95-45.22-43.24-53.61-21.47-8.09-46.27-1.52-65.16 11.5-18.89 13.02-32.98 31.72-46.52 50.24-13.54 18.52-27.15 37.48-45.44 51.32-19.85 15.03-44.73 23.26-69.63 23.05-24.26-.21-47.69-8.13-70.97-15-23.27-6.87-47.65-12.81-71.61-8.96-4.66.75-9.03 1.97-13.08 3.63-25.46 10.42-53.43 53.18-32.66 86.01.44.7-.37-.55 0 0z" id="Background_Simple"/><path class="st4" d="M715.72 465.5c0 .14-153.16.26-342.05.26-188.96 0-342.08-.12-342.08-.26s153.13-.26 342.08-.26c188.89 0 342.05.11 342.05.26z" id="Floor"/><g id="Gears"><path class="st4" d="M445.13 241.36v-7.3l-5.36-2.11-1.14-7.47 5.03-3.9-3.41-6.82-6.49 1.79-4.87-4.06 1.46-7.63-6.98-3.08-3.57 5.36-6.33-.32-3.08-6.66-7.47.81-.65 7.47-5.84 2.92-5.52-3.57-5.52 6.17 4.22 5.19-2.92 6.17h-7.47l-.81 7.63 6.33 2.43 1.3 6.66-5.19 4.38 3.17 6.82 6.74-2.11 4.87 4.87-1.62 6.98 6.66 3.25 3.9-4.87h7.3l2.43 6.17 8.12-.97v-6.66l5.68-3.41 5.52 3.73 5.52-5.52-3.41-5.52 2.76-6.33 6.64-.49zm-33.36 6.41c-8.25 0-14.93-6.69-14.93-14.93 0-8.25 6.69-14.93 14.93-14.93s14.93 6.69 14.93 14.93c0 8.24-6.68 14.93-14.93 14.93z"/><path class="st4" d="M419.67 232.37c-.06 0-.03-.7-.35-1.9a7.873 7.873 0 00-2.89-4.23c-.88-.65-1.98-1.2-3.25-1.41-1.26-.21-2.68-.16-4.03.35a7.688 7.688 0 00-3.55 2.67c-.94 1.25-1.47 2.86-1.48 4.52.02 1.66.54 3.26 1.48 4.52.91 1.27 2.2 2.19 3.55 2.68 1.35.52 2.77.56 4.03.35 1.27-.22 2.37-.77 3.25-1.41a7.93 7.93 0 002.89-4.23c.32-1.21.29-1.92.35-1.91.02 0 .03.17.03.51.01.33-.04.83-.18 1.45-.26 1.22-1.03 3.04-2.86 4.47-.9.7-2.06 1.3-3.39 1.55-1.33.24-2.83.21-4.27-.33a8.017 8.017 0 01-3.79-2.82c-1.01-1.33-1.58-3.05-1.59-4.82.01-1.77.59-3.49 1.59-4.82a8 8 0 013.79-2.82c1.44-.54 2.94-.57 4.27-.33 1.34.25 2.49.85 3.39 1.55 1.83 1.43 2.6 3.25 2.86 4.47.14.62.18 1.11.18 1.45-.01.31-.01.49-.03.49z"/><path class="st4" d="M434.11 221.48c.06.13-3.29 1.95-7.48 4.07-4.2 2.12-7.65 3.73-7.72 3.6-.06-.13 3.29-1.95 7.48-4.07 4.2-2.11 7.66-3.73 7.72-3.6zM427.46 247.8c-.12.1-2.21-2.31-5.05-5-2.84-2.71-5.34-4.67-5.25-4.8.04-.05.72.37 1.76 1.14 1.04.78 2.42 1.92 3.85 3.28 1.43 1.36 2.64 2.69 3.46 3.68.82.99 1.28 1.65 1.23 1.7zM411.03 240.36c.14.03-.37 2.83-1.39 6.19-1.01 3.36-2.14 5.98-2.27 5.93-.14-.05.77-2.74 1.77-6.08 1.02-3.34 1.74-6.08 1.89-6.04zM404.49 235.55c.07.13-2.24 1.54-5.16 3.16s-5.34 2.83-5.41 2.71c-.07-.13 2.24-1.54 5.16-3.16 2.91-1.62 5.34-2.84 5.41-2.71zM416.17 212.9c.14.03-.33 2.62-1.04 5.78s-1.41 5.7-1.55 5.66c-.14-.03.33-2.62 1.04-5.78.72-3.15 1.41-5.69 1.55-5.66zM405.95 227.3c-.08.12-1.86-1-3.96-2.49-2.1-1.49-3.74-2.79-3.66-2.91.08-.12 1.86 1 3.96 2.49 2.11 1.49 3.75 2.8 3.66 2.91zM417.93 232.37c0 3.4-2.76 6.16-6.16 6.16s-6.16-2.76-6.16-6.16c0-3.4 2.76-6.16 6.16-6.16s6.16 2.75 6.16 6.16z"/><path class="st5" d="M414.33 233.89c-.14.06-.64-1.42-2.11-2.48-1.46-1.07-3.02-1.09-3.01-1.25 0-.07.39-.15 1.02-.08.63.07 1.5.33 2.29.91.8.58 1.31 1.33 1.57 1.9.27.58.3.98.24 1z"/><path class="st5" d="M413.98 229.53c.07.14-1.13.8-2.18 2.07-1.07 1.25-1.52 2.55-1.66 2.5-.13-.02.12-1.48 1.27-2.84 1.14-1.36 2.53-1.86 2.57-1.73z"/><g><path class="st6" d="M411.38 154.29l-4.94-8.6-7.74 1.14-6.39-8.03 3.29-7.99-8.63-5.72-6.44 6.49-8.48-1.49-3.44-9.97-10.31 1.09-.58 8.72-7.68 3.9-8.13-5.75-8.25 6.01 4.28 9.23-4.91 7.39-8.92-.47-2.33 11 8.48 3.26.73 9.24-8.79 5.05 4.2 9.53 9.1-1.41 6.03 6.96-3.15 8.67 8.34 5.89 6.51-7.04 9.03 2.44 2.81 9.32 10.03-.68 1.3-8.37 8.6-4.94 7.04 5.62 8.9-6.64-4.5-7.84 4.39-7.86 9.02.66 2.77-10.23-7.75-4.19-1.03-9.32 7.54-5.07zm-34.95 30.11c-9.71 5.58-22.11 2.22-27.69-7.49-5.58-9.71-2.22-22.11 7.49-27.69 9.71-5.58 22.11-2.22 27.69 7.49 5.58 9.72 2.22 22.11-7.49 27.69z"/><path class="st4" d="M375.32 160.92c-.06.04-.49-.82-1.67-2.03a10.725 10.725 0 00-6.27-3.07c-1.48-.18-3.16-.08-4.82.52-1.64.61-3.29 1.62-4.54 3.16a9.81 9.81 0 00-1.58 2.56c-.42.94-.7 1.97-.81 3.03-.26 2.13.21 4.4 1.32 6.38 1.15 1.96 2.87 3.51 4.84 4.36.97.44 2 .72 3.03.83 1.02.13 2.04.1 3.01-.08 1.95-.31 3.67-1.22 5.02-2.33 1.35-1.12 2.29-2.53 2.88-3.9 1.19-2.78.95-5.36.51-6.97-.46-1.63-.99-2.43-.92-2.46 0 0 .59.76 1.11 2.41.5 1.61.82 4.26-.37 7.16-.59 1.42-1.54 2.9-2.94 4.08-1.39 1.17-3.17 2.14-5.21 2.48-1.01.2-2.08.22-3.15.1-1.07-.11-2.15-.4-3.18-.86-2.07-.88-3.89-2.51-5.09-4.56-1.17-2.08-1.65-4.46-1.37-6.69.12-1.12.41-2.19.86-3.17.43-.99.99-1.9 1.67-2.67 1.32-1.59 3.05-2.64 4.77-3.25 1.73-.61 3.48-.69 5.01-.48 3.1.44 5.23 2.04 6.37 3.29 1.15 1.26 1.52 2.16 1.52 2.16z"/><path class="st4" d="M384.96 138.33c.12.08-2.63 4.47-6.14 9.8-3.51 5.34-6.46 9.59-6.58 9.52-.12-.08 2.63-4.47 6.14-9.8 3.52-5.34 6.46-9.6 6.58-9.52zM394.93 173.82c-.03.07-1.06-.25-2.73-.76s-3.99-1.18-6.58-1.81c-2.59-.63-4.95-1.1-6.67-1.42-1.72-.32-2.78-.51-2.78-.59.01-.07 1.09-.01 2.83.22s4.13.65 6.74 1.28c2.6.64 4.92 1.37 6.57 1.96 1.65.61 2.64 1.06 2.62 1.12zM370.55 176.17c.07-.02.41.88.88 2.37a82.14 82.14 0 011.59 5.88c.54 2.32.93 4.44 1.17 5.98.24 1.54.32 2.5.26 2.51-.07.01-.29-.93-.62-2.45s-.78-3.62-1.31-5.93c-.54-2.31-1.06-4.39-1.43-5.9-.39-1.5-.61-2.44-.54-2.46zM359.59 174.93c.12.07-1.68 3.28-4.02 7.17s-4.34 6.97-4.46 6.9c-.12-.07 1.68-3.28 4.02-7.17s4.34-6.98 4.46-6.9zM358.04 140.36c.14-.04 1.3 3.33 2.59 7.54 1.3 4.21 2.23 7.65 2.1 7.69-.14.04-1.3-3.33-2.59-7.54-1.3-4.21-2.24-7.65-2.1-7.69zM355.74 164.23c-.01.14-2.85-.01-6.34-.34-3.49-.33-6.3-.72-6.29-.86.01-.14 2.85.01 6.34.34 3.49.33 6.3.71 6.29.86z"/><circle transform="rotate(-19.49 365.994 166.27)" class="st4" cx="366.01" cy="166.26" r="8.36"/><path class="st5" d="M370.06 166.32c-.08.13-1.67-1.32-4.15-1.58-2.48-.28-4.34.81-4.39.66-.03-.05.37-.4 1.16-.72.78-.33 1.97-.59 3.29-.45 1.31.14 2.42.66 3.11 1.14.7.48 1.02.91.98.95z"/><path class="st5" d="M366.7 161.42c.14.08-.87 1.67-1.26 3.89-.41 2.22-.02 4.06-.18 4.09-.12.06-.77-1.83-.34-4.18.43-2.35 1.69-3.89 1.78-3.8z"/></g><g><path class="st4" d="M444.05 178.68l-1.7-2.95-2.66.39-2.19-2.76 1.13-2.74-2.96-1.97-2.21 2.23-2.91-.51-1.18-3.42-3.54.37-.2 2.99-2.64 1.34-2.79-1.98-2.83 2.06 1.47 3.17-1.68 2.54-3.06-.16-.8 3.77 2.91 1.12.25 3.17-3.02 1.73 1.44 3.27 3.12-.49 2.07 2.39-1.08 2.98 2.86 2.02 2.23-2.42 3.1.84.96 3.2 3.44-.23.44-2.87 2.95-1.7 2.42 1.93 3.06-2.28-1.54-2.69 1.51-2.7 3.1.23.95-3.51-2.66-1.44-.35-3.2 2.59-1.72zm-12 10.34c-3.33 1.91-7.59.76-9.5-2.57-1.91-3.33-.76-7.59 2.57-9.5 3.33-1.91 7.59-.76 9.5 2.57 1.92 3.33.76 7.58-2.57 9.5z"/><path class="st4" d="M431.67 180.95c-.04.02-.21-.26-.62-.65-.41-.39-1.12-.87-2.12-.98-.98-.12-2.24.23-3.08 1.25-.84.98-1.1 2.62-.34 3.92.74 1.32 2.29 1.92 3.56 1.68a3.51 3.51 0 002.63-2.03c.41-.92.35-1.78.22-2.33-.13-.55-.3-.83-.25-.86.02-.01.24.24.45.81.2.56.33 1.49-.08 2.52-.38 1.02-1.41 2.09-2.88 2.36-1.44.3-3.24-.38-4.09-1.9-.88-1.5-.56-3.4.43-4.49.97-1.14 2.42-1.49 3.49-1.3 1.1.17 1.84.75 2.22 1.2.37.47.48.79.46.8z"/><path class="st4" d="M434.98 173.2c.12.08-.76 1.63-1.96 3.46-1.21 1.83-2.28 3.25-2.4 3.17-.12-.08.76-1.63 1.96-3.46s2.28-3.25 2.4-3.17zM438.4 185.39c-.05.14-1.47-.29-3.24-.71-1.76-.43-3.22-.71-3.2-.86.01-.14 1.52-.09 3.33.35 1.8.43 3.16 1.09 3.11 1.22zM430.03 186.19c.13-.04.64 1.19 1.01 2.79s.46 2.93.32 2.96c-.14.02-.46-1.26-.83-2.84-.36-1.58-.64-2.87-.5-2.91zM426.27 185.76c.12.07-.43 1.22-1.23 2.55-.8 1.33-1.56 2.35-1.68 2.28-.12-.07.43-1.22 1.23-2.55.8-1.33 1.56-2.35 1.68-2.28zM425.73 173.9c.14-.04.61 1.09 1.05 2.54.44 1.44.69 2.65.56 2.69-.14.04-.61-1.09-1.05-2.54-.44-1.45-.69-2.65-.56-2.69zM424.95 182.09c-.01.14-.99.17-2.19.05-1.2-.11-2.16-.32-2.14-.47.01-.14.99-.17 2.19-.05 1.19.12 2.15.33 2.14.47zM430.96 181.36c.79 1.38.31 3.13-1.06 3.92-1.38.79-3.13.31-3.92-1.06a2.875 2.875 0 011.06-3.92c1.38-.79 3.13-.32 3.92 1.06z"/><path class="st5" d="M429.86 182.81c-.1.11-.66-.3-1.44-.37-.78-.09-1.41.18-1.49.06-.1-.1.55-.68 1.55-.57.99.1 1.5.8 1.38.88z"/><path class="st5" d="M428.71 181.13c.12.09-.14.65-.26 1.37-.14.72-.09 1.33-.23 1.37-.13.05-.44-.62-.28-1.46.14-.86.66-1.37.77-1.28z"/></g></g><g id="Character_2"><path class="st6" d="M492.85 179.97s-3.4-1.19-3.44-3.41c-.03-2.23 25.45-5.42 30.32 7.02 0 0-.95.68-4.89.42"/><path d="M492.85 179.97s-3.4-1.19-3.44-3.41c-.03-2.23 25.45-5.42 30.32 7.02 0 0-.95.68-4.89.42"/><path class="st8" d="M514.01 216.03l-15.55-1.24c-.1-1.82.03-8.84.03-8.84s-6.47-1.01-6.55-7.48c-.08-6.47 1.04-21.33 1.04-21.33a22.48 22.48 0 0122.59 2.84l.96.74-2.52 35.31z"/><path class="st4" d="M494.47 188.27c.38-.35.41-.94.06-1.33a.945.945 0 00-1.33-.06c-.38.35-.41.94-.06 1.33.35.38.95.41 1.33.06z"/><path class="st4" d="M492.9 186.79c.1.11.74-.38 1.63-.38.89-.02 1.54.46 1.64.34.05-.05-.05-.25-.34-.47a2.17 2.17 0 00-1.31-.41c-.56.01-1.03.22-1.3.44-.27.23-.37.43-.32.48zM503.17 187.57a.94.94 0 00-.31 1.29c.27.44.85.58 1.29.31a.94.94 0 00.31-1.29.932.932 0 00-1.29-.31z"/><path class="st4" d="M502.58 187.58c.1.11.74-.38 1.63-.38.89-.02 1.54.46 1.64.34.05-.05-.05-.25-.33-.47a2.17 2.17 0 00-1.31-.41c-.56.01-1.03.22-1.3.44-.28.22-.38.43-.33.48zM499.01 194.93c.01-.07-.54-.18-1.44-.31-.23-.03-.42-.08-.43-.2-.04-.14.05-.39.17-.67.23-.59.46-1.19.7-1.81.97-2.58 1.66-4.71 1.53-4.76-.13-.05-1.03 2-2 4.58-.23.63-.45 1.23-.67 1.82-.09.27-.25.58-.13.97.06.19.25.33.4.37.15.05.29.05.4.05.9.04 1.46.03 1.47-.04z"/><path class="st9" d="M501.9 195.91c-1.17.46-2.56 1.05-4.37 1.27 0 0 1.04 1.66 2.91.98 1.93-.71 1.46-2.25 1.46-2.25z"/><path class="st10" d="M498.48 205.86s4.09.33 8.43-2.4c0 0-1.99 4.66-8.45 4.07l.02-1.67z"/><g><path class="st4" d="M492.85 178.78s3.79 2.19 9.08.02c3.48-1.43 7.45-1.95 8.26-1.22.81.74.74 4.21 3.98 5.46 0 0-.72 6.57 1.93 6.53 2.65-.04 1.76-10.37 1.76-10.37l-6.2-3.62-6.92-1.84-6.68.44-5.22 1.02v3.58z"/></g><g><path class="st8" d="M515.74 187.43c.11-.05 4.45-1.31 4.3 3.11-.14 4.42-4.55 3.37-4.56 3.24 0-.13.26-6.35.26-6.35z"/><path class="st10" d="M516.89 192.15c.02-.01.08.06.2.12.13.06.34.11.58.03.47-.16.89-.89.94-1.68.02-.4-.05-.79-.18-1.11-.12-.33-.33-.56-.56-.61-.23-.06-.4.07-.46.2-.06.12-.04.21-.06.22-.01.01-.09-.08-.05-.26.02-.09.08-.19.18-.27.11-.08.27-.12.43-.1.34.03.64.36.78.71.16.36.25.79.23 1.24-.06.89-.54 1.71-1.18 1.87-.31.07-.57-.03-.7-.14-.15-.12-.17-.22-.15-.22z"/></g><g><path class="st4" d="M518.74 173.72c-.04.15-.69.09-1.43.33-.74.22-1.25.64-1.36.54-.12-.08.31-.76 1.2-1.04.9-.28 1.64.04 1.59.17z"/></g><g><path class="st4" d="M516.23 170.93c.12-.01.37.92.14 2.11-.23 1.2-.99 1.92-1.08 1.82-.12-.09.37-.85.57-1.92.21-1.07.21-2 .37-2.01z"/></g><g><path class="st4" d="M497.23 185.34c-.14.26-.99.05-2 .01-1.01-.06-1.87.08-2-.19-.13-.25.75-.91 2.04-.85 1.29.06 2.12.79 1.96 1.03z"/></g><g><path class="st4" d="M507.16 185.34c-.14.26-.99.05-2 .01-1.01-.06-1.87.08-2-.19-.13-.25.75-.91 2.04-.85 1.29.06 2.11.79 1.96 1.03z"/></g><g><path class="st6" d="M503.41 175.66c-11.66-1.27-13.9.79-14 .89-.33-.4-.55-.79-.6-1.16-.42-3.45 3.76-4.42 3.76-4.42 2.62-11.93 13.34-10.71 13.34-10.71l.02-.09c.2-1.05 1.21-1.73 2.26-1.53l1.68.32c1.05.2 1.73 1.21 1.53 2.26 12.58 4.19 8.4 15.82 8.4 15.82l1.84 2.22c1.63 3.3-1.91 4.31-1.91 4.31s-4.36-6.61-16.32-7.91z"/></g><g class="st7"><path d="M509.28 171.59c-.14-.03.27-2.33.92-5.13s1.29-5.05 1.43-5.02c.14.03-.27 2.33-.92 5.13s-1.29 5.05-1.43 5.02z"/></g><g class="st7"><path d="M503.01 170.04c-.14-.04.37-2.25 1.13-4.94.76-2.69 1.49-4.83 1.63-4.79.14.04-.37 2.25-1.13 4.94-.76 2.68-1.49 4.83-1.63 4.79z"/></g><g class="st7"><path d="M493.1 171.48c-.01-.03.35-.17 1.02-.36.67-.19 1.65-.41 2.89-.57 2.47-.33 5.97-.29 9.67.62 3.71.9 6.84 2.4 8.99 3.63 1.08.62 1.92 1.16 2.49 1.56.57.4.87.64.85.67-.05.07-1.33-.76-3.52-1.9-2.18-1.14-5.29-2.56-8.94-3.45-3.64-.89-7.07-.99-9.51-.76-2.44.22-3.92.66-3.94.56z"/></g><g class="st11"><path class="st9" d="M508.72 173.7c.01-.06.81.04 2.07.39 1.25.35 2.95.98 4.69 1.93 1.75.95 3.2 2.03 4.17 2.89.98.86 1.5 1.48 1.45 1.52-.11.12-2.43-2.1-5.87-3.96-3.43-1.88-6.55-2.61-6.51-2.77z"/></g><g class="st11"><path class="st9" d="M510.61 161.97c-.14-.06-.03-.6-.16-1.22-.12-.63-.42-1.08-.32-1.19.08-.11.67.29.83 1.09.17.8-.23 1.39-.35 1.32z"/></g><g class="st11"><path class="st9" d="M518.71 175.32c-.72-.15-.45-3.53-2.25-6.88-1.74-3.38-4.68-5.08-4.4-5.75.13-.32 1.11-.32 2.49.35 1.37.65 3.09 2.07 4.21 4.19 1.12 2.12 1.31 4.34 1.07 5.84-.23 1.52-.79 2.33-1.12 2.25z"/></g><g><path class="st8" d="M425.35 258.54s-7.69-3.95-9.04-5.74c-1.35-1.8-1.92-8.12-1.92-8.12l13.12 4.9-2.16 8.96zM482.61 242.03c-.45.15-8.93 19.06-15.74 19.16-6.87.1-41.52-2.65-41.52-2.65l2.16-8.96 33.29-1.07 10.91-14.77 10.9 8.29z"/></g><g><path class="st6" d="M543.77 457.89l1.54 6.48s10.59 13.76 13.86 13.08c2.14-.44-.49-4.03-4.52-14.48l-.85-4.32-10.03-.76z"/><path class="st4" d="M559.6 475.41s-.01.08-.08.19c-.07.12-.21.29-.45.42-.23.13-.56.23-.94.21-.39-.02-.8-.18-1.2-.44-1.5-1.14-3.36-2.92-5.34-4.97-1.97-2.06-3.6-4.06-4.73-5.55-.56-.74-1.01-1.36-1.3-1.78-.12-.18-.23-.34-.34-.5-.08-.12-.11-.18-.11-.18.01 0 .05.05.14.16.12.15.24.31.37.47.4.51.85 1.09 1.35 1.74 1.16 1.46 2.81 3.44 4.77 5.49 1.96 2.04 3.82 3.85 5.27 5 .75.55 1.58.53 2.02.28.47-.23.55-.56.57-.54z"/><path class="st4" d="M558.1 470.99c-.01.04-.33-.03-.86.04-.52.07-1.22.3-1.91.72-.69.41-1.19.96-1.43 1.43-.25.46-.32.79-.35.78-.02 0 0-.35.22-.85s.73-1.11 1.45-1.54c.71-.44 1.45-.66 2-.69.56-.03.89.09.88.11zM548.08 467.76c-.04-.01.11-.46.2-1.21.09-.75 0-1.81-.53-2.84-.52-1.02-1.36-1.71-2.02-2.04-.67-.34-1.16-.38-1.15-.42 0-.01.12-.01.34.02.21.03.52.11.88.27.71.31 1.6 1.01 2.15 2.08.55 1.06.63 2.19.49 2.95-.06.38-.14.68-.21.89-.09.2-.14.31-.15.3z"/><path class="st4" d="M544.45 458.99c.06-.02.39.88.59 2.03.19 1.15.4 2.06.36 2.07-.06.02-.37-.89-.56-2.04-.21-1.14-.44-2.05-.39-2.06zM554.84 463.88c0 .06-.6.04-1.31.21-.71.16-1.24.44-1.27.39-.03-.04.48-.42 1.23-.59.74-.18 1.36-.06 1.35-.01zM555.06 464.99c-.01.06-.51.01-1.1.15-.59.14-1.01.41-1.05.36-.04-.04.36-.41 1-.56.64-.15 1.17 0 1.15.05zM555.91 466.38c-.02.06-.53-.1-1.14.04-.62.13-1.01.5-1.05.46-.05-.03.31-.51 1-.66.68-.16 1.22.12 1.19.16zM554.11 463.42c0 .01-.13 0-.35-.04a7.627 7.627 0 01-2.26-.84 8.51 8.51 0 01-.73-.45c-.23-.18-.52-.41-.53-.81.03-.43.5-.6.81-.51.33.08.55.31.74.49.39.38.71.74.97 1.06.26.32.45.59.58.78.13.19.19.3.18.31-.03.02-.33-.39-.87-.99-.27-.3-.6-.65-.99-1.02-.19-.18-.4-.38-.65-.43-.24-.06-.55.07-.55.32-.01.24.23.48.44.64.23.17.47.32.7.45.46.27.9.47 1.28.62.75.28 1.24.38 1.23.42z"/><path class="st4" d="M553.56 463.28c-.01 0-.02-.12-.01-.32.01-.21.02-.51.07-.88s.13-.82.33-1.28c.11-.23.23-.46.42-.68.17-.19.5-.45.85-.27.33.21.32.58.29.84-.04.28-.13.53-.23.76-.21.46-.5.82-.76 1.09-.26.27-.5.46-.67.58-.18.12-.29.17-.29.16-.02-.03.36-.29.85-.84.24-.28.5-.63.69-1.07.09-.22.17-.46.2-.71.03-.24 0-.53-.19-.64-.19-.11-.43.04-.6.22-.16.18-.29.41-.39.62-.2.43-.3.86-.36 1.22-.12.75-.17 1.21-.2 1.2z"/><path d="M545.32 464.36l-.75-3.11s2.6.48 3.27 2.42c.67 1.94.51 3.32.51 3.32l5.64 6.07s1.42-2.77 3.98-2.1c0 0 2.02 4.43 1.95 5.55-.07 1.22-1.35.98-1.81.77-.21-.09-2.64-1.49-5.05-3.99-3-3.09-6.3-7.02-7.74-8.93z"/></g><g><path class="st6" d="M491.13 461.16l-.05-8.64 16.18-.2.21 12.63-1 .08c-4.46.3-22.7 1.22-25.7.35-3.35-.96 10.36-4.22 10.36-4.22z"/><path d="M501.59 464.91c.21-1.35.95-2.62 2.02-3.47 1.07-.85 2.4-1.31 3.77-1.22l.06 4.52-5.85.17z"/><path class="st12" d="M484.43 462.99s-4.8 1.45-4.19 2.23c.61.79 19.08.55 27.22-.27l-.03-.36-21.54.46c0 .01-.52-2.03-1.46-2.06z"/><path class="st4" d="M507.68 464.59c0 .01-.1.02-.28.03-.24.02-.5.04-.8.06-.8.04-1.78.1-2.94.16-2.48.12-5.91.24-9.7.29-3.79.05-7.23.02-9.71-.03-1.16-.03-2.14-.06-2.94-.08-.3-.01-.56-.03-.8-.04-.18-.01-.28-.02-.28-.03 0-.01.1-.01.28-.01h.8c.8.01 1.78.01 2.94.02a429.097 429.097 0 0019.41-.26c1.16-.04 2.14-.07 2.94-.1.3-.01.56-.02.8-.02.19 0 .28 0 .28.01z"/><path class="st4" d="M485.9 465.31c-.06.01-.11-.69-.57-1.4-.44-.71-1.05-1.06-1.02-1.11.01-.05.71.25 1.18 1.01.49.75.46 1.51.41 1.5zM490.64 462.83c-.05.03-.28-.25-.52-.61-.24-.37-.4-.69-.35-.72.05-.03.28.25.52.61s.39.69.35.72zM491.94 462.12c-.04.04-.29-.13-.58-.37-.28-.25-.48-.48-.45-.52.04-.04.29.13.57.37.3.24.5.48.46.52zM492.75 460.58c0 .05-.38.11-.84.12-.47.01-.85-.02-.85-.08 0-.05.38-.11.84-.12.47-.01.85.03.85.08zM493.02 459.5c.02.05-.39.24-.94.29-.55.05-.98-.07-.97-.12.01-.06.44-.03.96-.08.51-.04.93-.14.95-.09z"/><path class="st4" d="M490.07 461.42c0 .02-.4.08-1.04.01-.32-.03-.7-.11-1.11-.23-.2-.07-.42-.12-.64-.25-.1-.07-.22-.16-.26-.32-.04-.16.04-.33.15-.42.99-.53 1.99.02 2.36.53.21.26.3.51.35.69.04.18.04.28.03.28-.04.01-.08-.41-.48-.88-.2-.23-.51-.46-.9-.57-.37-.1-.89-.13-1.24.1-.16.12-.1.32.09.42.17.11.39.17.59.24.4.13.76.21 1.07.26.64.12 1.03.11 1.03.14z"/><path class="st4" d="M489.8 461.48c-.01.01-.17-.25-.13-.72.02-.23.1-.5.27-.76.18-.23.41-.55.86-.54.24.03.36.3.33.48-.02.18-.1.34-.17.47-.15.26-.32.47-.48.64-.32.32-.58.45-.59.43-.02-.03.2-.19.49-.52.14-.17.29-.38.43-.63.14-.22.23-.62-.03-.66-.26-.02-.52.24-.68.45-.16.23-.25.47-.29.68-.07.4.03.67-.01.68zM507.3 460.17c0 .04-.46-.04-1.19.06-.72.09-1.73.4-2.59 1.11-.87.71-1.37 1.63-1.6 2.32-.24.7-.26 1.16-.29 1.16-.01 0-.02-.12 0-.33.01-.21.06-.51.17-.87.2-.72.7-1.69 1.61-2.43a4.93 4.93 0 012.7-1.09c.38-.03.68-.02.89.01.19.01.3.04.3.06zM505.53 453.46c.05 0 .14 1.49.18 3.32.05 1.84.04 3.32-.01 3.33-.05 0-.14-1.49-.18-3.32-.05-1.84-.04-3.33.01-3.33zM499.54 463.35c.01.05-1.04.24-2.36.26-1.31.03-2.37-.11-2.37-.16 0-.06 1.06-.01 2.36-.04 1.31-.01 2.36-.11 2.37-.06z"/><path class="st4" d="M502.71 463.31c.04.04-.08.22-.19.47-.11.24-.16.46-.22.46-.05 0-.09-.25.04-.54.12-.28.33-.43.37-.39zM503.88 461.81c.04.04-.06.21-.23.38s-.33.28-.37.24c-.04-.04.06-.21.23-.38s.33-.28.37-.24zM505.58 461.11c-.01.05-.23.06-.46.14-.24.08-.41.22-.45.18-.04-.03.09-.26.38-.36.3-.11.55-.01.53.04z"/><g><path class="st4" d="M506.8 460.77c.02.05-.07.13-.21.19-.13.05-.26.06-.28.01-.02-.05.07-.13.21-.19.13-.06.26-.06.28-.01z"/></g></g><path class="st6" d="M528.97 291.98l-48.85 2.77c-.13-5.36 1.92-48.45 1.92-48.45l-2.69 5.05-13.98-12.47 12.22-16.51a24.2 24.2 0 0116.18-9.57c1.9-.26 3.34-.38 4.28-.5 5.53 1.7 11.05 1.7 16.58-.01 2.56.11 4.78.56 6.87 1.32 4.3 1.55 7.89 3.91 10.96 7.09l14.63 24.59-17.74 11.16-2.56-7.73 2.18 43.26z"/><g><path class="st4" d="M480.12 289.65l7.55 167.79 25.19.53-4.18-140.47 28.33 141.54h23.95l-31.99-169.39"/><path class="st5" d="M535.76 456.76l.58 2.48 24.62.33-.37-3.88zM508.51 456.5c.14-.01.28.32.3.74.02.41-.08.75-.22.76-.14.01-.28-.32-.3-.74-.02-.41.08-.75.22-.76zM508.27 450.43c.14 0 .29.67.32 1.51.03.84-.06 1.52-.2 1.53-.14.01-.29-.67-.32-1.51-.04-.84.05-1.53.2-1.53zM508.08 444.35c.14 0 .28.67.3 1.51.02.84-.07 1.52-.22 1.53-.14 0-.28-.67-.3-1.51-.02-.84.08-1.53.22-1.53zM507.93 438.27c.14 0 .28.67.3 1.51.02.84-.08 1.52-.22 1.53-.14 0-.28-.67-.3-1.51-.02-.85.08-1.53.22-1.53zM507.79 432.18c.14 0 .28.67.3 1.51.02.84-.08 1.52-.22 1.53-.14 0-.28-.67-.3-1.52-.03-.83.07-1.51.22-1.52zM507.62 426.1c.14 0 .28.67.31 1.51.03.84-.07 1.52-.21 1.53-.14 0-.28-.67-.31-1.51-.03-.85.06-1.53.21-1.53zM507.38 420.02c.14-.01.29.67.33 1.51.03.84-.05 1.53-.2 1.53-.14.01-.29-.67-.32-1.51-.04-.84.05-1.53.19-1.53zM507.13 413.94c.14-.01.29.67.32 1.51.03.84-.06 1.52-.2 1.53-.14.01-.29-.67-.32-1.51-.03-.84.06-1.53.2-1.53zM506.91 407.86c.14-.01.28.67.31 1.51.03.84-.06 1.52-.21 1.53-.14.01-.28-.67-.31-1.51-.02-.84.07-1.53.21-1.53zM506.72 401.77c.14 0 .28.67.31 1.51.03.84-.07 1.52-.21 1.53-.14 0-.28-.67-.31-1.51-.03-.84.07-1.52.21-1.53zM506.56 395.7c.14 0 .28.67.3 1.51.02.84-.08 1.52-.22 1.53-.14 0-.28-.67-.3-1.51-.03-.85.07-1.53.22-1.53zM506.42 389.61c.14 0 .27.68.29 1.52.02.84-.09 1.52-.23 1.53-.14 0-.27-.68-.29-1.52-.01-.84.09-1.52.23-1.53zM506.32 383.53c.14 0 .27.68.28 1.52.01.84-.09 1.52-.24 1.52s-.27-.68-.28-1.52c-.01-.83.1-1.52.24-1.52zM506.25 377.45c.14 0 .27.68.28 1.52.01.84-.1 1.52-.24 1.52-.14 0-.27-.68-.28-1.52-.01-.84.1-1.52.24-1.52zM506.21 371.36c.14 0 .26.68.27 1.52 0 .84-.11 1.52-.25 1.52s-.26-.68-.27-1.52c0-.83.11-1.52.25-1.52zM506.21 365.28c.14 0 .26.68.26 1.52s-.12 1.52-.26 1.52-.26-.68-.26-1.52.12-1.52.26-1.52zM506.24 359.2c.14 0 .26.68.25 1.52-.01.84-.13 1.52-.27 1.52s-.26-.68-.25-1.52c0-.84.13-1.52.27-1.52zM506.3 353.11c.14 0 .25.68.24 1.52-.01.84-.13 1.52-.28 1.52-.14 0-.25-.68-.24-1.52.01-.84.14-1.52.28-1.52zM506.4 347.03c.14 0 .25.68.23 1.52-.01.84-.14 1.52-.29 1.52-.14 0-.25-.68-.23-1.52.01-.84.14-1.52.29-1.52zM506.52 340.95c.14 0 .25.69.23 1.53-.02.84-.15 1.52-.29 1.52-.14 0-.25-.69-.23-1.53.02-.85.15-1.53.29-1.52zM506.71 334.86c.14.01.24.69.21 1.53-.03.84-.17 1.52-.31 1.51-.14 0-.24-.69-.21-1.53.02-.84.16-1.52.31-1.51zM507.03 328.78c.14.01.22.7.17 1.53-.05.84-.21 1.51-.35 1.5-.14-.01-.22-.69-.17-1.53.05-.84.21-1.51.35-1.5zM507.56 322.72c.14.02.19.71.11 1.54-.08.83-.26 1.5-.41 1.49-.14-.01-.19-.7-.11-1.54.09-.84.27-1.51.41-1.49zM508.14 318.22c.14.02.21.37.15.78-.06.41-.22.73-.36.71-.14-.02-.21-.37-.15-.78.06-.42.22-.73.36-.71z"/><g><path class="st5" d="M487.01 458.25l26.64.44-.21-4.44-26.43.14z"/></g><g><path class="st4" d="M516.84 294.75l-2.68-51.26h-29.38l-4.76 52.72z"/></g><g><path class="st4" d="M523.21 214.28s-11.9 3.12-12.1 31.07h-4.8s-1.26-23.47 11.69-32.69c0 0 3.74-.9 5.21 1.62z"/></g><g><path class="st4" d="M498.04 212.29s-8.45 4-8.65 31.95h-4.08s-.34-26.17 7.64-31.33c.01 0 2.39-1.71 5.09-.62z"/></g><g><path class="st5" d="M555.94 454.33c.14-.02.31.29.38.7s.01.76-.14.78c-.14.02-.31-.29-.38-.7-.06-.41 0-.76.14-.78zM554.99 448.49c.14-.02.36.61.5 1.42.13.81.12 1.48-.02 1.5-.14.02-.36-.61-.5-1.42-.13-.8-.13-1.47.02-1.5zM554.02 442.66c.14-.02.36.61.5 1.42.13.81.13 1.48-.02 1.5-.14.02-.36-.61-.5-1.42-.12-.8-.12-1.47.02-1.5zM553.05 436.84c.14-.02.37.61.5 1.41.13.8.13 1.48-.01 1.5-.14.02-.37-.61-.5-1.41-.14-.81-.13-1.48.01-1.5zM552.07 431.01c.14-.02.37.61.5 1.41.14.8.13 1.48-.01 1.5-.14.02-.37-.61-.5-1.41-.13-.81-.13-1.48.01-1.5zM551.08 425.18c.14-.02.37.61.5 1.41.14.8.13 1.48-.01 1.5-.14.02-.37-.61-.5-1.41-.13-.8-.13-1.47.01-1.5zM550.08 419.36c.14-.02.37.61.51 1.41.14.8.14 1.48-.01 1.5-.14.02-.37-.61-.51-1.41-.13-.81-.13-1.48.01-1.5zM549.08 413.53c.14-.02.37.61.51 1.41.14.8.14 1.48 0 1.5-.14.02-.37-.61-.51-1.41-.15-.8-.15-1.47 0-1.5zM548.06 407.71c.14-.02.37.61.51 1.41.14.8.14 1.48 0 1.5-.14.02-.37-.61-.51-1.41-.14-.8-.14-1.47 0-1.5zM547.03 401.89c.14-.02.37.61.51 1.41.14.8.14 1.48 0 1.5-.14.03-.37-.61-.51-1.41-.14-.8-.14-1.47 0-1.5zM546 396.08c.14-.03.37.61.52 1.41.14.8.14 1.48 0 1.5-.14.03-.37-.61-.52-1.41-.14-.81-.14-1.48 0-1.5zM544.95 390.26c.14-.03.37.6.52 1.41.14.8.15 1.47.01 1.5-.14.03-.37-.6-.52-1.41-.15-.8-.15-1.48-.01-1.5zM543.9 384.44c.14-.03.37.6.52 1.41.15.8.15 1.47.01 1.5-.14.03-.37-.6-.52-1.41-.15-.8-.15-1.47-.01-1.5zM542.84 378.63c.14-.03.38.6.52 1.41.15.8.15 1.47.01 1.5-.14.03-.38-.6-.52-1.41-.15-.8-.15-1.47-.01-1.5zM541.77 372.82c.14-.03.38.6.52 1.41.15.8.15 1.47.01 1.5-.14.03-.38-.6-.52-1.41-.15-.8-.16-1.48-.01-1.5zM540.68 367.01c.14-.03.38.6.53 1.4.15.8.16 1.47.01 1.5-.14.03-.38-.6-.53-1.4-.14-.8-.15-1.47-.01-1.5zM539.6 361.2c.14-.03.38.6.53 1.4.15.8.16 1.47.02 1.5-.14.03-.38-.6-.53-1.4-.16-.8-.17-1.47-.02-1.5zM538.5 355.39c.14-.03.38.6.53 1.4.15.8.16 1.47.02 1.5-.14.03-.38-.6-.53-1.4-.16-.8-.16-1.47-.02-1.5zM537.39 349.59c.14-.03.38.6.53 1.4.15.8.16 1.47.02 1.5-.14.03-.38-.6-.53-1.4-.15-.8-.16-1.47-.02-1.5zM536.27 343.79c.14-.03.38.6.54 1.4.15.8.17 1.47.02 1.5-.14.03-.38-.6-.54-1.4-.15-.8-.16-1.48-.02-1.5zM535.15 337.99c.14-.03.38.6.54 1.4.16.8.17 1.47.03 1.5-.14.03-.38-.6-.54-1.4-.16-.81-.18-1.48-.03-1.5zM534.01 332.19c.14-.03.38.6.54 1.4.16.8.17 1.47.03 1.5s-.38-.6-.54-1.4c-.16-.8-.17-1.48-.03-1.5zM532.87 326.39c.14-.03.38.6.54 1.4.16.8.17 1.47.03 1.5-.14.03-.38-.6-.54-1.4-.16-.8-.17-1.47-.03-1.5zM531.71 320.59c.14-.03.38.6.54 1.4.16.8.17 1.47.03 1.5-.14.03-.38-.6-.54-1.4-.15-.8-.17-1.47-.03-1.5zM530.55 314.8c.14-.03.39.6.55 1.4.16.8.18 1.47.04 1.5-.14.03-.39-.6-.55-1.4-.16-.8-.18-1.47-.04-1.5zM529.38 309.01c.14-.03.39.6.55 1.4.16.8.18 1.47.04 1.5-.14.03-.39-.6-.55-1.4-.16-.8-.18-1.48-.04-1.5zM528.49 304.64c.14-.03.32.28.4.68.08.41.04.76-.11.79-.14.03-.32-.28-.41-.68-.07-.41-.02-.76.12-.79z"/></g><g><path class="st5" d="M489.52 242.82c.06 0 .22.54.25 1.48 0 .47-.04 1.06-.34 1.65-.28.57-.83 1.19-1.65 1.33-.82.14-1.56-.3-1.97-.8-.44-.52-.57-1.13-.59-1.61-.01-.97.3-1.5.35-1.48.09.02-.09.58.02 1.45.06.42.21.93.58 1.33.36.4.94.71 1.52.6.59-.1 1.05-.56 1.31-1.04.27-.48.35-1.01.39-1.45.07-.88.04-1.46.13-1.46z"/></g><g><path class="st5" d="M487.39 243.55c-.03-.06.3-.19.64.12.16.15.31.41.26.75-.04.35-.37.64-.72.7-.35.07-.76-.08-.92-.38-.17-.3-.12-.6-.03-.79.21-.42.56-.42.55-.35.02.07-.16.19-.21.47-.06.29.11.62.51.55.4-.07.43-.44.27-.69-.13-.26-.34-.3-.35-.38z"/></g><g><path class="st5" d="M510.79 243c.06 0 .2.51.2 1.4-.01.44-.1 1-.42 1.54-.29.54-.95 1.04-1.7 1.06a2.56 2.56 0 01-1.87-.69c-.45-.43-.69-.95-.81-1.38-.23-.88-.1-1.43-.04-1.43.08 0 .09.54.39 1.31.15.38.4.8.79 1.14.38.33.94.56 1.52.53.58-.02 1.05-.35 1.32-.79.28-.43.4-.91.46-1.32.09-.82.08-1.37.16-1.37z"/></g><g><path class="st5" d="M508.49 243.54c-.01-.07.26-.15.52.13.12.13.22.35.17.63-.05.28-.33.51-.62.56-.29.06-.62-.07-.77-.32a.697.697 0 01-.05-.65c.15-.35.44-.36.44-.3.03.07-.09.19-.09.39 0 .22.11.41.38.36.26-.05.31-.26.23-.47-.06-.18-.21-.25-.21-.33z"/></g><g><path class="st5" d="M509.67 255.93c.02.03-.23.2-.69.48-.46.29-1.15.66-2.02 1.07-1.74.83-4.28 1.76-7.18 2.32-2.91.55-5.61.62-7.54.49-.97-.06-1.74-.15-2.27-.25-.53-.09-.82-.16-.82-.2.01-.09 1.19.05 3.11.08 1.91.04 4.56-.09 7.42-.63 2.86-.55 5.37-1.41 7.13-2.15 1.77-.72 2.82-1.28 2.86-1.21z"/></g></g><g><path class="st6" d="M532.89 300.85l-53.55-4.64v6.1l53.55 4.56z"/><path class="st5" d="M496.24 297.42c-.04.04-.86 0-2.23-.07-1.38-.07-3.29-.19-5.56-.36l.25-.27c.33 1.84.7 3.92 1.09 6.12.03.16.06.33.08.49l-.24-.22c2.6.17 5.02.33 7.11.46l-.23.23c-.12-1.88-.19-3.45-.24-4.57-.04-1.11-.06-1.77-.03-1.81.03-.03.11.57.24 1.68.12 1.1.29 2.72.47 4.68l.02.25-.25-.01c-2.09-.11-4.51-.24-7.12-.38l-.21-.01-.04-.2c-.03-.16-.06-.32-.09-.49l-1.03-6.12-.05-.3.3.03c2.35.22 4.32.43 5.68.59 1.36.15 2.12.25 2.08.28z"/><path class="st4" d="M485.99 298.69c.01-.14 1.35-.17 2.98-.06 1.64.11 2.96.32 2.95.46-.01.14-1.35.17-2.98.06-1.64-.11-2.96-.32-2.95-.46zM485.64 300.44c.01-.14 1.44-.12 3.19.06 1.75.17 3.15.43 3.14.57-.01.14-1.44.12-3.19-.06-1.75-.17-3.15-.43-3.14-.57z"/></g><g><path class="st5" d="M425.87 244.71l-19.82-6.67-.78 2.55s7.74 12.21 16.77 14.72l3.83-10.6z"/><path class="st5" d="M484.79 280.21s-30.6-21.48-32.44-22.13c-1.84-.65-14.97-.68-18.26-.33-3.29.35-12.71-.62-12.71-.62l9.71-26.93-20.63-5.29 1.09-3.67s16.59-9.96 26.19-7.12c9.59 2.84 14.09 15.44 16.08 18.55 2 3.11 6.31 14.26 26.8 27.36l12.12 8.09-7.95 12.09z"/><path class="st4" d="M451.78 236.83c0 .01-.04.11-.12.31-.09.22-.21.5-.36.84-.33.76-.79 1.83-1.37 3.18-1.2 2.75-2.9 6.66-5 11.46l-.19-.27c1.13-.08 2.29-.1 3.51-.04 1.21.1 2.5.17 3.73.78 2.28 1.29 4.52 2.85 6.91 4.45 4.75 3.23 9.88 6.82 15.22 10.61.72.54 1.4.98 2.23 1.07.81.11 1.65-.04 2.34-.45 1.43-.78 2.17-2.53 1.79-4.06-.17-.76-.59-1.45-1.16-1.96-.6-.48-1.31-.95-1.95-1.41-1.3-.93-2.58-1.84-3.83-2.73-4.97-3.56-9.45-6.77-13.23-9.47-.98-.66-1.72-1.54-2.36-2.36-.65-.83-1.21-1.64-1.72-2.4a83.43 83.43 0 01-2.5-4.01c-.66-1.12-1.14-2-1.47-2.6-.15-.28-.26-.51-.36-.69-.08-.16-.1-.23-.11-.25-.01-.02.06.07.15.22.11.17.24.39.4.66.38.62.89 1.47 1.55 2.55.68 1.1 1.52 2.44 2.57 3.95.52.75 1.09 1.55 1.74 2.36.66.81 1.36 1.63 2.32 2.26 3.79 2.68 8.3 5.86 13.29 9.38 1.25.89 2.53 1.79 3.84 2.72.66.48 1.31.9 1.99 1.44.65.58 1.14 1.36 1.33 2.23.44 1.73-.4 3.73-2.03 4.62-.79.46-1.75.64-2.67.51-.93-.09-1.79-.65-2.46-1.16-5.34-3.78-10.46-7.39-15.2-10.63-2.37-1.6-4.63-3.19-6.84-4.45-1.09-.55-2.38-.66-3.55-.75-1.19-.07-2.35-.06-3.45.01l-.33.02.14-.29c2.22-4.82 4.02-8.75 5.29-11.51.61-1.31 1.09-2.34 1.43-3.08.15-.32.27-.58.37-.79.08-.19.12-.28.12-.27z"/><path class="st5" d="M531.22 304.75c-2.85 4.29-8.71 5.32-12.86 2.27l-40.83-31.88 7.25-12.34 44.1 29.56c4.01 2.8 5.05 8.3 2.34 12.39z"/><g><path class="st4" d="M441.56 235.1l-3.68 11.48-6.73.03 4.18-11.47z"/><path class="st4" d="M430.72 244.06c0-.29 2.22-.53 4.95-.55 2.74-.01 4.96.21 4.96.49 0 .29-2.22.53-4.95.55-2.74.02-4.96-.2-4.96-.49zM432 240.4c0-.29 2.22-.53 4.95-.55 2.74-.01 4.96.21 4.96.5 0 .29-2.22.53-4.95.55-2.74.01-4.96-.22-4.96-.5zM432.8 236.9c0-.29 2.22-.53 4.95-.55 2.74-.01 4.96.21 4.96.49 0 .29-2.22.53-4.95.55-2.74.02-4.96-.2-4.96-.49z"/></g><g><path class="st4" d="M425.98 243.42c.14.03-.46 2.76-1.64 5.98-1.17 3.22-2.32 5.74-2.45 5.69-.14-.06.79-2.66 1.96-5.87 1.17-3.2 1.99-5.83 2.13-5.8z"/></g></g><path class="st8" d="M553.05 268.94c.1-7.54-7.98-22.4-7.98-22.4l-14.47 9.11 2.34 6.15-32.39 13.33-8.87.41-5.69 8.12 7.28 6.68 19.02-5.25c12.01-2.05 40.65-7.79 40.76-16.15z"/></g><g id="Character_1"><path class="st6" d="M264.82 313.58l4.04-7.63-14.25-7.67-6.03 11.1.85.53c3.81 2.33 19.56 11.6 22.61 12.21 3.42.7-7.22-8.54-7.22-8.54z"/><path d="M253.81 312.05c.44-1.3.37-2.76-.18-4.02-.55-1.25-1.52-2.28-2.77-2.83l-2.15 3.98 5.1 2.87z"/><path class="st12" d="M269.9 318.31s3.58 3.51 2.68 3.92c-.9.41-17.17-8.35-24-12.84l.19-.31 18.88 10.38c.01 0 1.41-1.56 2.25-1.15z"/><path class="st4" d="M248.56 308.95c0 .01.08.06.23.16.2.13.43.26.68.42.69.41 1.53.91 2.53 1.51 2.14 1.26 5.13 2.95 8.47 4.76 3.34 1.8 6.39 3.37 8.62 4.47 1.04.51 1.93.94 2.65 1.29.27.13.51.24.73.34.17.08.26.11.26.11 0-.01-.08-.05-.24-.14-.21-.11-.45-.23-.71-.37-.71-.36-1.59-.81-2.62-1.34-2.21-1.13-5.25-2.72-8.59-4.52-3.33-1.8-6.33-3.48-8.49-4.7-1.01-.57-1.86-1.06-2.56-1.45-.26-.14-.49-.27-.7-.39-.17-.11-.26-.15-.26-.15z"/><path class="st4" d="M267.53 319.68c.05.04.42-.56 1.15-.97.72-.43 1.42-.46 1.42-.52.01-.05-.74-.11-1.51.35-.78.44-1.1 1.13-1.06 1.14zM264.48 315.29c.03.05.36-.09.74-.3.38-.22.67-.43.65-.48-.03-.05-.36.09-.74.3-.39.22-.68.43-.65.48zM263.66 314.05c.01.05.32.02.68-.06.36-.09.65-.2.64-.26-.01-.05-.32-.02-.68.06-.37.1-.66.21-.64.26zM263.65 312.32c-.03.05.28.27.69.5.41.23.76.37.79.32.03-.05-.28-.27-.69-.49-.41-.23-.76-.38-.79-.33zM263.91 311.23c-.04.03.24.39.7.69.46.3.9.4.92.35.02-.05-.37-.23-.81-.51-.44-.28-.77-.56-.81-.53z"/><path class="st4" d="M265.63 314.3c-.01.02.32.25.92.49.3.12.67.23 1.09.31.21.03.42.09.68.07.12-.01.27-.04.38-.16.11-.12.12-.31.06-.44-.63-.92-1.77-.9-2.34-.63-.3.13-.51.32-.63.45-.12.14-.17.23-.16.23.03.03.26-.33.84-.56.29-.11.66-.17 1.06-.09.37.08.85.3 1.05.66.09.19-.06.33-.27.34-.2.02-.43-.03-.63-.06-.41-.07-.77-.16-1.07-.26-.61-.19-.96-.37-.98-.35z"/><path class="st4" d="M265.85 314.48c.01.02.27-.14.45-.58.09-.21.14-.49.11-.8-.05-.29-.11-.68-.51-.88-.23-.09-.46.1-.51.27-.07.17-.07.35-.06.49.01.3.07.57.13.79.14.43.3.66.32.65.03-.01-.09-.26-.19-.69-.05-.21-.08-.47-.09-.76-.02-.26.08-.65.33-.57.24.1.35.46.39.71.04.28 0 .53-.06.73-.13.42-.34.61-.31.64zM250.95 305.21c-.01.03.43.18 1.03.6.6.41 1.35 1.15 1.79 2.18.44 1.03.46 2.08.34 2.8-.11.73-.31 1.15-.28 1.16.01.01.07-.09.16-.29.08-.19.18-.48.26-.85.15-.73.16-1.83-.3-2.9-.46-1.07-1.25-1.83-1.89-2.22-.32-.2-.6-.33-.79-.4-.2-.06-.32-.09-.32-.08z"/><path class="st4" d="M255.62 300.08c-.05-.03-.81 1.25-1.7 2.86-.89 1.61-1.58 2.93-1.53 2.95.05.03.81-1.25 1.7-2.86.89-1.6 1.58-2.92 1.53-2.95zM256.35 311.63c-.03.04.82.69 1.97 1.33 1.15.64 2.15 1 2.17.96.02-.05-.94-.5-2.08-1.13-1.14-.63-2.03-1.21-2.06-1.16zM253.56 310.12c-.05.02-.03.24-.05.5-.02.27-.07.48-.02.5.05.02.19-.19.21-.49.03-.3-.09-.52-.14-.51zM253.21 308.25c-.05.02-.04.21.03.44s.16.4.22.39c.05-.02.04-.21-.03-.44s-.16-.41-.22-.39zM252.03 306.84c-.02.05.17.15.34.34.17.18.26.38.32.37.05-.01.04-.27-.17-.5-.21-.23-.48-.26-.49-.21z"/><g><path class="st4" d="M251.11 305.98c-.04.04 0 .15.09.26s.2.17.24.13c.04-.04 0-.15-.09-.26-.09-.11-.2-.17-.24-.13z"/></g><g><path class="st4" d="M317.26 311.86h36.07v7.25h-36.07zM332.78 359.37h36.07v7.25h-36.07zM341.96 401.49h43.36v7.25h-43.36zM305.18 262.73h30.68v7.25h-30.68zM289.87 213.68h30.68v7.25h-30.68z"/><path class="st4" d="M277.14 164.9l-98.86 300.81h9.41l92.74-280.1 70.15 280.1h11.29L286.08 164.9z"/><path class="st5" d="M300.21 164.9l-76.74 300.81h14.6l68.26-279.63 92.26 279.63h12.89L310.85 164.9z"/><path class="st5" d="M215.27 365.69c0 2 1.62 3.62 3.62 3.62h32.76c2 0 3.62-1.62 3.62-3.62s-1.62-3.62-3.62-3.62h-32.76c-2 0-3.62 1.62-3.62 3.62zM200.95 412.36c0 2 1.62 3.62 3.62 3.62h32.76c2 0 3.62-1.62 3.62-3.62s-1.62-3.62-3.62-3.62h-32.76c-1.99-.01-3.62 1.62-3.62 3.62zM231.03 317.62c0 2 1.62 3.62 3.62 3.62h32.76c2 0 3.62-1.62 3.62-3.62s-1.62-3.62-3.62-3.62h-32.76c-2 0-3.62 1.62-3.62 3.62zM246.87 267.83c0 2 1.62 3.62 3.62 3.62h30.66c2 0 3.62-1.62 3.62-3.62s-1.62-3.62-3.62-3.62H250.5a3.615 3.615 0 00-3.63 3.62zM261.64 218.56c0 2 1.62 3.62 3.62 3.62h23.43c2 0 3.62-1.62 3.62-3.62s-1.62-3.62-3.62-3.62h-23.43c-2 0-3.62 1.62-3.62 3.62z"/></g><g><path class="st8" d="M268.31 144.35c.45.15 8.93 19.06 15.74 19.16 6.87.1 41.52-2.65 41.52-2.65l.43-10.13-35.88.1-10.91-14.77-10.9 8.29z"/><path class="st8" d="M321.6 152.04s5.91-1.9 6.57-2.83c.66-.93 3.32-5.3 3.32-5.3s1 1.34.66 2.62c-.19.72-.51 1.99-.76 2.97a.86.86 0 00.98 1.06c1.4-.25 3.45-.5 3.69.17.38 1.03-1.25 7.64-2.44 8.86-1.19 1.22-9.33 1.24-9.33 1.24l-2.69-8.79z"/><path class="st10" d="M334.57 152.67c.04.05-.38.44-1.2.83-.42.19-.91.38-1.55.47-.31.03-.69.03-1.05-.2-.36-.22-.53-.72-.45-1.12.07-.4.32-.76.62-.97.3-.22.62-.33.91-.42.59-.15 1.09-.25 1.53-.34.87-.17 1.42-.24 1.43-.17.02.07-.5.27-1.34.53-.5.15-.99.29-1.48.44-.53.17-1.07.47-1.16 1.02-.12.55.4.82.94.76.53-.05 1.05-.2 1.45-.34.83-.28 1.31-.56 1.35-.49z"/><path class="st10" d="M333.59 155.67c.01.06-.34.27-1 .53-.17.06-.36.12-.59.15-.23.05-.59-.09-.75-.27-.39-.33-.67-1.05-.3-1.65.37-.56.93-.74 1.33-.9l1.12-.45c.65-.25 1.08-.33 1.11-.26.02.07-.35.26-.95.59-.3.16-.66.36-1.08.56-.41.18-.86.38-1.08.73-.22.33-.08.77.19 1.04.15.15.22.19.4.19.17 0 .35-.03.51-.07.63-.18 1.07-.28 1.09-.19zM329.99 157.86c-.07.02-.18-.34-.5-.84-.31-.5-.85-1.15-1.67-1.58l-.34-.18.3-.25c.21-.17.42-.35.62-.55 1.68-1.62 2.14-3.55 2.29-3.5.06.01.04.51-.23 1.27-.26.75-.81 1.75-1.69 2.61-.22.22-.45.4-.67.58l-.03-.43c.92.52 1.47 1.29 1.72 1.88.25.59.25.98.2.99z"/><path class="st10" d="M333.74 157.99c.02.05-.26.32-.89.55-.3.1-.77.18-1.22-.06-.22-.11-.42-.28-.56-.54a.994.994 0 01-.03-.89c.3-.55.75-.74 1.11-.96.37-.2.71-.36 1-.47.59-.23.98-.29 1-.22.02.07-.31.25-.85.55-.26.15-.58.34-.92.55-.32.21-.73.47-.88.77-.15.28.06.62.35.79.28.18.61.17.9.12.58-.11.96-.26.99-.19z"/><path class="st4" d="M233.55 91.55c-.21 1.77-.42 3.55-1.03 5.22-.61 1.67-1.68 3.24-3.23 4.11-1.48.83-3.52 1.18-4.09 2.78-.57 1.58.67 3.66-.5 4.86-.47.48-1.17.61-1.81.78-2.18.59-4.22 1.98-5.2 4.01-1.13 2.36-.69 5.23.52 7.55 1.21 2.32 3.1 4.2 4.97 6.04l19.04-4.07s-5.62-30.13-5.52-29.92c.08.23-3.15-1.36-3.15-1.36z"/><path class="st4" d="M258.75 93.14c.09.95.83 1.71 1.63 2.22.8.52 1.69.89 2.42 1.5 1.29 1.1 1.86 2.87 1.88 4.56.02 1.7-.44 3.36-.9 4.99 3.1.07 6.07 1.73 7.98 4.17 1.92 2.44 2.83 5.59 2.82 8.69 0 2.22-.56 4.62-2.26 6.05-1.33 1.13-3.14 1.47-4.87 1.73-3.45.51-6.92.82-10.4 1.11-3.49.3-7.21.54-10.28-1.13-2.57-1.39-4.32-3.96-5.42-6.67-1.63-4.02-2.01-8.47-1.62-12.79.39-4.32 1.52-8.54 2.82-12.68M234.82 88.26c-1.74-.74-3.55-1.49-5.44-1.44-1.89.04-3.89 1.11-4.41 2.93-.27.97-.09 2.02.34 2.93.43.91 1.09 1.69 1.8 2.4.72.72 1.56 1.42 2.57 1.51.78.07 1.55-.23 2.22-.64 1.29-.78 2.34-2.01 2.7-3.47s-.07-3.14-1.24-4.09"/><path class="st6" d="M256.44 83.98s3.4-1.19 3.44-3.41c.03-2.23-25.45-5.42-30.32 7.02 0 0 .95.68 4.89.42"/><path d="M256.44 83.98s3.4-1.19 3.44-3.41c.03-2.23-25.45-5.42-30.32 7.02 0 0 .95.68 4.89.42"/><path class="st8" d="M236.92 118.35l15.55-1.24c.1-1.82-.03-8.84-.03-8.84s6.47-1.01 6.55-7.48c.08-6.47-1.04-21.33-1.04-21.33a22.48 22.48 0 00-22.59 2.84l-.96.74 2.52 35.31z"/><path class="st4" d="M255.34 90.24a.945.945 0 01-.06-1.33c.35-.38.94-.41 1.33-.06.38.35.41.94.06 1.33-.35.38-.95.41-1.33.06z"/><path class="st4" d="M258.02 89.11c-.1.11-.74-.38-1.63-.38-.89-.02-1.54.46-1.64.34-.05-.05.05-.25.34-.47.28-.21.75-.42 1.31-.41.56.01 1.03.22 1.3.44.28.23.37.43.32.48zM246.93 89.59c.44.27.58.85.31 1.29a.94.94 0 01-1.29.31c-.44-.27-.58-.85-.31-1.29s.85-.59 1.29-.31z"/><path class="st4" d="M248.35 89.9c-.1.11-.74-.38-1.63-.38-.89-.02-1.54.46-1.64.34-.05-.05.05-.25.33-.47.28-.21.75-.42 1.31-.41.56.01 1.03.22 1.3.44.28.22.38.43.33.48zM251.92 97.25c-.01-.07.54-.18 1.44-.31.23-.03.42-.08.43-.2.04-.14-.05-.39-.17-.67-.23-.59-.46-1.19-.7-1.81-.97-2.58-1.66-4.71-1.53-4.76.13-.05 1.03 2 2 4.58.23.63.45 1.23.67 1.82.09.27.25.58.13.97-.06.19-.25.33-.4.37-.15.05-.29.05-.4.05-.9.04-1.46.03-1.47-.04z"/><path class="st10" d="M252.45 108.18s-4.09.33-8.43-2.4c0 0 1.99 4.66 8.45 4.07l-.02-1.67z"/><path class="st4" d="M258.08 81.1s-3.79 2.19-9.08.02c-3.48-1.43-7.45-1.95-8.26-1.22-.81.74.6 7.45-2.65 8.71 0 0-.62 3.33-3.27 3.29-2.65-.04-1.76-10.37-1.76-10.37l6.2-3.62 6.92-1.84 6.68.44 5.22 1.02v3.57z"/><path class="st8" d="M235.19 89.75c-.11-.05-4.45-1.31-4.3 3.11.14 4.42 4.55 3.37 4.56 3.24 0-.13-.26-6.35-.26-6.35z"/><path class="st10" d="M234.04 94.47c-.02-.01-.08.06-.2.12-.13.06-.34.11-.58.03-.47-.16-.89-.89-.94-1.68-.02-.4.05-.79.18-1.11.12-.33.33-.56.56-.61.23-.06.4.07.46.2.06.12.04.21.06.22.01.01.09-.08.05-.26a.497.497 0 00-.18-.27.617.617 0 00-.43-.1c-.34.03-.64.36-.78.71-.16.36-.25.79-.23 1.24.06.89.54 1.71 1.18 1.87.31.07.57-.03.7-.14.14-.12.16-.21.15-.22z"/><path class="st4" d="M232.19 76.04c-.05-.13.69-.45 1.58-.17.9.28 1.32.96 1.2 1.04-.11.1-.62-.32-1.36-.54-.73-.24-1.39-.18-1.42-.33z"/><g><path class="st4" d="M234.7 73.25c.16.01.16.94.37 2 .2 1.07.69 1.83.57 1.92-.09.1-.85-.61-1.08-1.82-.23-1.18.02-2.11.14-2.1z"/></g><g><path class="st4" d="M253.69 87.66c-.15-.24.67-.97 1.96-1.03 1.29-.06 2.17.6 2.04.85-.12.27-.98.14-2 .19-1.01.04-1.85.25-2-.01z"/></g><g><path class="st4" d="M240.61 79.74c1.41.77 2.56 1.93 3.85 2.89 1.28.97 2.82 1.77 4.42 1.62l-.39-.75c2.34.93 4.82 1.53 7.32 1.77.93.09 2.02.06 2.59-.68.58-.76-.23-2.09-.32-3.49-.07-1-.42-1.27-1.36-1.62-.43-.16-.91-.14-1.37-.12-3.5.14-7.02-.05-10.49-.58-.81-.12-1.64-.27-2.46-.19-.82.08-1.65.4-2.16 1.05"/></g><g><path class="st10" d="M252.02 98.08c-.27-.2-.67-.2-.95-.01-.28.18-.45.52-.46.86-.01.34.14.67.36.92.18.2.42.36.69.42.44.09.92-.12 1.16-.5.24-.38.23-.89-.01-1.27-.24-.38-.69-.6-1.14-.58"/></g><g><path class="st4" d="M254.23 99.33c.03.06-.26.24-.77.26-.5.03-1.18-.1-1.87-.39-1.39-.54-2.26-1.49-2.1-1.61.08-.06.98.61 2.3 1.13.65.27 1.25.44 1.69.5.45.07.73.04.75.11z"/></g><g><path class="st4" d="M248.15 87.57c-.11.1-.32.06-.59.1-.28.03-.71.14-1.28.19-1.1.1-2.01-.05-2.03-.34-.03-.29.84-.6 1.94-.7.52-.04 1.09-.07 1.53.13.44.2.54.54.43.62z"/></g><g><path class="st4" d="M237.6 82.57c.07 3.55.76 7.06.8 10.6.04 3.55-.65 7.29-2.97 9.97-.82.95-1.9 1.77-3.14 1.87-.72.06-1.55-.22-1.82-.89-.21-.53-.03-1.13.2-1.65.72-1.66 1.81-3.13 2.75-4.67.95-1.54 1.77-3.23 1.85-5.04.06-1.32-.29-2.62-.56-3.91-.27-1.29-.48-2.65-.15-3.93.33-1.28 1.32-2.47 2.63-2.66"/></g><g><path class="st6" d="M245.88 79.67c11.66-1.27 13.9.79 14 .89.33-.4.55-.79.6-1.16.42-3.45-3.76-4.42-3.76-4.42-2.62-11.93-13.34-10.71-13.34-10.71l-.02-.09a1.926 1.926 0 00-2.26-1.53l-1.68.32c-1.05.2-1.73 1.21-1.53 2.26-12.58 4.19-8.4 15.82-8.4 15.82l-1.84 2.22c-1.63 3.3 1.91 4.31 1.91 4.31s4.36-6.61 16.32-7.91z"/></g><g class="st7"><path d="M240.01 75.6c-.14.03-.78-2.21-1.43-5.01-.65-2.8-1.06-5.1-.92-5.13.14-.03.78 2.21 1.43 5.02.65 2.79 1.06 5.09.92 5.12z"/></g><g class="st7"><path d="M246.28 74.05c-.14.04-.87-2.11-1.63-4.79-.76-2.69-1.27-4.9-1.13-4.94.14-.04.87 2.11 1.63 4.79.76 2.69 1.27 4.9 1.13 4.94z"/></g><g class="st7"><path d="M256.19 75.49c-.02.09-1.5-.34-3.95-.56-2.44-.23-5.87-.13-9.51.76-3.64.89-6.76 2.31-8.94 3.45-2.18 1.14-3.47 1.97-3.52 1.9-.02-.03.28-.27.85-.67s1.41-.94 2.49-1.56c2.15-1.23 5.29-2.73 8.99-3.63 3.7-.91 7.21-.95 9.67-.62 1.24.16 2.22.38 2.89.57.68.19 1.04.33 1.03.36z"/></g><g class="st11"><path class="st9" d="M240.57 77.71c.04.16-3.08.9-6.51 2.78-3.45 1.86-5.76 4.08-5.87 3.96-.04-.05.48-.66 1.45-1.52s2.43-1.94 4.17-2.89c1.75-.95 3.44-1.58 4.69-1.93 1.26-.36 2.06-.47 2.07-.4z"/></g><g class="st11"><path class="st9" d="M230.59 79.33c-.33.07-.89-.73-1.12-2.25-.24-1.5-.04-3.72 1.07-5.84 1.12-2.12 2.84-3.54 4.21-4.19 1.38-.67 2.37-.67 2.49-.35.29.68-2.65 2.37-4.4 5.75-1.8 3.35-1.53 6.73-2.25 6.88z"/></g><g><path class="st6" d="M221.95 194.28l47.2 4.26c.08-3.23-.9-22.92-1.48-35.87-.11-2.45 2.31-6.7 2.22-8.75-.23-5.1-1-5.3-1-5.3l2.69 5.05 13.98-12.47-12.22-16.51a24.2 24.2 0 00-16.18-9.57c-1.9-.26-3.34-.38-4.28-.5-5.53 1.7-11.05 1.7-16.58-.01-2.56.11-4.78.56-6.87 1.32-4.3 1.55-7.89 3.91-10.96 7.09l-20.01 23.56 18.56 11.93 7.12-7.5.93 19.46-3.12 23.81z"/><path class="st9" d="M265.79 140.56c0 .14-6.96.26-15.54.26-8.58 0-15.54-.12-15.54-.26s6.96-.26 15.54-.26c8.58 0 15.54.11 15.54.26zM264.75 135.5c0 .14-2.03.26-4.53.26-2.5 0-4.53-.12-4.53-.26s2.03-.26 4.53-.26c2.5 0 4.53.12 4.53.26z"/><path class="st4" d="M231.02 142.61c.05.05-.68.98-1.91 2.45a346.83 346.83 0 01-4.89 5.67c-1.93 2.19-3.7 4.16-5 5.56-1.3 1.41-2.13 2.25-2.19 2.21-.05-.05.68-.98 1.91-2.45 1.23-1.47 2.96-3.48 4.89-5.67a354 354 0 015-5.57c1.31-1.41 2.14-2.25 2.19-2.2z"/></g><g><path class="st6" d="M227.65 353.6l-1.54 6.48s-10.59 13.76-13.86 13.08c-2.14-.44.49-4.03 4.52-14.48l.85-4.32 10.03-.76z"/><path class="st4" d="M211.82 371.13c.02-.02.11.3.57.54.45.25 1.27.27 2.02-.28 1.44-1.14 3.3-2.95 5.27-5a85.65 85.65 0 004.77-5.49c.51-.65.96-1.23 1.35-1.74.13-.17.25-.32.37-.47.09-.11.13-.16.14-.16.01 0-.03.07-.11.18-.11.16-.22.32-.34.5-.3.43-.74 1.04-1.3 1.78a70.497 70.497 0 01-4.73 5.55c-1.98 2.05-3.84 3.83-5.34 4.97-.4.26-.81.42-1.2.44-.38.02-.71-.07-.94-.21-.24-.13-.37-.3-.44-.42-.08-.12-.09-.19-.09-.19z"/><path class="st4" d="M213.32 366.71c-.01-.02.32-.14.87-.1.55.03 1.29.25 2 .69.72.43 1.23 1.03 1.45 1.54.23.5.24.85.22.85-.04.01-.1-.32-.35-.78-.24-.46-.74-1.01-1.43-1.43-.68-.42-1.39-.65-1.91-.72-.52-.08-.85-.02-.85-.05zM223.34 363.48c-.01 0-.06-.1-.13-.31-.07-.2-.15-.51-.21-.89-.13-.76-.06-1.89.49-2.95.54-1.07 1.44-1.78 2.15-2.08.36-.16.66-.24.88-.27.21-.03.33-.03.34-.02.01.04-.47.08-1.15.42-.67.33-1.51 1.02-2.02 2.04-.53 1.02-.62 2.09-.53 2.84.07.75.22 1.21.18 1.22z"/><path class="st4" d="M226.97 354.7c.05.02-.18.92-.38 2.07-.19 1.15-.5 2.06-.56 2.04-.05-.02.16-.93.36-2.07.19-1.16.52-2.06.58-2.04zM216.58 359.6c-.01-.05.61-.17 1.36.01.75.17 1.26.55 1.23.59-.03.05-.56-.23-1.27-.39-.72-.17-1.32-.15-1.32-.21zM216.36 360.71c-.02-.05.51-.2 1.15-.05.64.15 1.04.52 1 .56-.04.05-.46-.22-1.05-.36-.59-.15-1.09-.09-1.1-.15zM215.51 362.1c-.03-.04.5-.32 1.19-.16.69.15 1.05.63 1 .66-.04.05-.43-.32-1.05-.46-.61-.15-1.12.02-1.14-.04zM217.31 359.13c-.01-.03.49-.14 1.24-.43.38-.15.81-.35 1.28-.62.23-.13.47-.28.7-.45.21-.16.45-.39.44-.64 0-.25-.31-.38-.55-.32-.25.06-.46.25-.65.43-.39.37-.72.72-.99 1.02-.54.6-.84 1.01-.87.99-.01-.01.05-.12.18-.31s.32-.46.58-.78c.26-.32.59-.68.97-1.06.19-.18.41-.41.74-.49.31-.09.78.08.81.51-.01.4-.3.63-.53.81-.25.17-.49.32-.73.45-.48.26-.93.45-1.32.59-.39.13-.71.21-.94.25-.23.06-.36.06-.36.05z"/><path class="st4" d="M217.86 359c-.03 0-.08-.46-.2-1.18-.07-.36-.16-.79-.36-1.22-.1-.21-.23-.44-.39-.62s-.4-.34-.6-.22c-.19.1-.22.4-.19.64.04.25.11.49.2.71.19.44.45.79.69 1.06.49.53.87.8.85.83-.01.01-.11-.04-.28-.16-.17-.12-.41-.31-.67-.58a3.94 3.94 0 01-.76-1.09c-.1-.23-.19-.48-.23-.76-.03-.26-.03-.64.29-.84.35-.18.68.07.85.27.19.22.31.45.42.68.2.46.28.91.33 1.28.05.37.06.67.07.88 0 .2 0 .32-.02.32z"/><path d="M226.1 360.08l.75-3.11s-2.6.48-3.27 2.42c-.67 1.94-.51 3.32-.51 3.32l-5.64 6.07s-1.42-2.77-3.98-2.1c0 0-2.02 4.43-1.95 5.55.07 1.22 1.35.98 1.81.77.21-.09 2.64-1.49 5.05-3.99 3-3.09 6.3-7.03 7.74-8.93z"/></g><g><path class="st8" d="M193.71 177.82c-5.17-5.95-5.14-14.8.07-20.72l7.88-8.49 14.23 9.15c-.46.31-9.82 10.44-9.82 10.44l16.41 20.46c2.53 3.15 3.26 7.38 1.95 11.2l-2.81 11.44-13.58-6.09.91-1.4h9.01l.54-2.16-24.79-23.83z"/><path class="st10" d="M202.54 164.55c.1-.09 1.06.76 2.19 1.88 1.14 1.12 1.88 2.21 1.76 2.3-.11.08-1-.82-2.13-1.94-1.12-1.11-1.93-2.14-1.82-2.24z"/></g><g><path class="st4" d="M234.09 197.07l2.68-51.26h29.38l2.16 54.34z"/><path class="st5" d="M262.03 159.08c.02.03-.22.22-.68.54-.45.33-1.14.75-2.02 1.22-1.76.95-4.34 2.01-7.33 2.63-3 .61-5.79.65-7.78.47-.99-.09-1.8-.2-2.34-.32-.55-.11-.84-.19-.84-.23.01-.09 1.23.11 3.2.19 1.97.08 4.7-.02 7.65-.62 2.94-.61 5.5-1.6 7.27-2.45 1.78-.85 2.82-1.5 2.87-1.43zM241.45 166.58c-.14 0-.28-.33-.31-.73-.03-.4.07-.74.21-.77.14-.02.28.3.31.73.03.43-.07.77-.21.77zM240.65 172.21c-.14-.02-.15-.67-.01-1.44.13-.78.36-1.39.5-1.36.14.03.15.67.01 1.44-.14.77-.36 1.38-.5 1.36zM241.35 177.77c-.12.08-.56-.46-.78-1.25-.22-.79-.15-1.46-.01-1.47.15-.01.31.6.51 1.33.2.73.41 1.32.28 1.39zM246.13 180.31c0 .14-.66.25-1.46.1-.81-.15-1.38-.57-1.3-.69.07-.13.66.04 1.4.18.73.14 1.36.26 1.36.41zM251.82 180.26c0 .14-.63.27-1.42.28-.79.01-1.42-.1-1.43-.24 0-.14.63-.27 1.42-.28.79-.01 1.43.09 1.43.24zM257.51 180.17c0 .14-.64.27-1.42.28-.79.01-1.43-.1-1.43-.24 0-.14.63-.27 1.42-.28.79 0 1.43.1 1.43.24zM262.14 177.61c.13.04.06.74-.5 1.4-.57.67-1.3.8-1.33.67-.06-.14.48-.46.94-1.01.46-.55.74-1.11.89-1.06zM263.18 172.02c.14.02.16.67.05 1.45-.12.78-.33 1.39-.47 1.37-.14-.02-.16-.67-.05-1.45.12-.78.33-1.39.47-1.37zM263.75 166.36c.14.01.21.65.14 1.44-.07.79-.23 1.41-.38 1.4-.14-.01-.21-.66-.14-1.44.07-.79.23-1.41.38-1.4zM263.93 162.01c.14 0 .25.34.24.76-.01.42-.14.75-.28.74-.14-.01-.25-.34-.24-.76.01-.4.13-.74.28-.74z"/><g><path class="st4" d="M227.72 116.6s11.9 3.12 12.1 31.07h4.8s1.26-23.47-11.69-32.69c-.01 0-3.75-.9-5.21 1.62zM252.88 114.61s8.45 4 8.65 31.95h4.08s.34-26.17-7.64-31.33c0 0-2.38-1.7-5.09-.62z"/><path class="st5" d="M244.58 145.53c.05 0 .27.57.29 1.58 0 .5-.1 1.15-.53 1.74-.43.61-1.25.93-2.04.94-.78.04-1.63-.21-2.1-.79-.47-.56-.6-1.2-.63-1.7-.03-1.02.15-1.6.2-1.6.09 0 .04.63.16 1.56.07.46.24 1 .63 1.43.38.43 1.02.62 1.72.59.69-.02 1.33-.26 1.67-.71.36-.45.49-1.01.54-1.47.08-.94 0-1.56.09-1.57z"/><path class="st5" d="M242.2 146.36c-.03-.06.26-.22.63.05.17.12.34.41.27.73-.06.3-.3.61-.68.69a.854.854 0 01-.87-.43c-.17-.28-.1-.61.02-.78.26-.37.59-.31.58-.25.02.07-.18.17-.25.42-.04.12-.03.25.06.36.08.11.25.19.38.17.13-.02.26-.15.3-.28.05-.13.01-.25-.06-.36-.16-.22-.38-.25-.38-.32zM265.7 145.51c.06-.02.28.48.24 1.36-.03.43-.16.97-.5 1.46-.32.49-.91.95-1.63 1.03-.71.11-1.44-.23-1.8-.72-.38-.48-.51-1.02-.56-1.45-.07-.86.04-1.36.1-1.37.08-.01.11.53.26 1.31.09.38.24.83.57 1.2.31.37.82.59 1.37.51.55-.07 1.01-.4 1.31-.8.3-.4.45-.84.52-1.23.13-.77.04-1.29.12-1.3z"/><path class="st5" d="M263.43 146.19c-.05-.04.13-.3.57-.24.2.03.48.19.58.5.1.29.04.67-.26.92-.31.24-.7.2-.96.04a.71.71 0 01-.32-.71c.09-.45.42-.51.43-.44.04.06-.1.21-.06.46.02.12.08.23.19.27.11.06.29.05.39-.03.1-.08.15-.25.12-.38-.02-.13-.11-.22-.22-.28-.22-.11-.42-.05-.46-.11z"/></g><g><path class="st4" d="M269.15 198.54l30.04 49.57a7.073 7.073 0 01-.02 7.38l-27.92 57.58-22.9-12.13 22.76-44.42a7.093 7.093 0 00-.57-7.5l-29.5-35.76 1.2-14.73h26.91z"/><path class="st4" d="M221.95 191.97l-14.49 164.88h23.95l20.38-139.93-.31-19.85z"/><path class="st5" d="M234.49 199.23c.06.01-.02.75-.54 1.82-.5 1.06-1.52 2.44-3.08 3.41-1.56.97-3.25 1.27-4.42 1.25-1.19-.01-1.89-.27-1.87-.33.01-.08.73.04 1.86-.04 1.13-.07 2.7-.41 4.16-1.32a9.247 9.247 0 003.03-3.14c.57-.98.77-1.68.86-1.65zM240.75 289.4c-.02 0 .02-.29.11-.82.1-.58.24-1.36.41-2.34.35-2.09.85-5.02 1.47-8.62 1.21-7.28 2.75-17.36 4.35-28.51 1.58-11.16 2.92-21.27 3.8-28.6.43-3.63.78-6.58 1.02-8.68.11-.99.21-1.77.27-2.36.07-.54.11-.82.13-.82.02 0 .01.29-.03.83-.04.59-.1 1.38-.18 2.37-.17 2.06-.46 5.03-.86 8.7-.79 7.34-2.07 17.47-3.65 28.63-1.6 11.15-3.2 21.23-4.5 28.5-.65 3.64-1.21 6.57-1.63 8.59-.21.97-.38 1.75-.5 2.32-.12.54-.2.82-.21.81zM231.91 352.84c0 .14-5.43.14-12.13-.01-6.7-.15-12.12-.39-12.12-.53s5.43-.14 12.13.01c6.7.15 12.12.39 12.12.53zM273.83 309.63c-.01.03-.38-.09-1.02-.35-.64-.25-1.56-.65-2.68-1.15-2.25-1.01-5.3-2.52-8.59-4.35-3.28-1.84-6.17-3.66-8.21-5.04a78.7 78.7 0 01-2.39-1.68c-.55-.41-.85-.66-.83-.68.02-.03.35.16.94.52.68.42 1.51.94 2.47 1.54 2.09 1.3 4.99 3.06 8.26 4.9 3.27 1.83 6.29 3.38 8.49 4.48 1.02.51 1.89.94 2.61 1.3.63.29.96.48.95.51z"/><path class="st5" d="M229.57 351.8c.14.02.22.36.18.77-.04.41-.2.73-.34.72-.14-.02-.22-.36-.18-.77.05-.41.2-.73.34-.72zM230.22 345.84c.14.02.19.7.1 1.52-.09.82-.28 1.48-.42 1.46-.14-.02-.19-.7-.1-1.52.09-.82.28-1.48.42-1.46zM230.88 339.88c.14.02.18.7.09 1.52-.09.82-.28 1.48-.43 1.46-.14-.02-.18-.7-.09-1.52.1-.82.29-1.48.43-1.46zM231.57 333.92c.14.02.18.7.09 1.52-.1.82-.29 1.48-.43 1.46-.14-.02-.18-.7-.09-1.52.09-.82.29-1.47.43-1.46zM232.27 327.97c.14.02.18.7.08 1.52-.1.82-.29 1.48-.44 1.46-.14-.02-.18-.7-.08-1.52.1-.83.3-1.48.44-1.46zM232.99 322.01c.14.02.18.7.08 1.52-.1.82-.3 1.47-.44 1.46-.14-.02-.18-.7-.08-1.52.1-.82.3-1.47.44-1.46zM233.73 316.06c.14.02.18.7.07 1.52-.1.82-.3 1.47-.44 1.46-.14-.02-.17-.7-.07-1.52.1-.82.3-1.47.44-1.46zM234.49 310.12c.14.02.17.7.07 1.52-.11.82-.31 1.47-.45 1.45-.14-.02-.17-.7-.07-1.52.11-.82.31-1.47.45-1.45zM235.27 304.17c.14.02.17.7.06 1.52-.11.82-.31 1.47-.45 1.45-.14-.02-.17-.7-.06-1.52.1-.82.3-1.47.45-1.45zM236.06 298.23c.14.02.17.7.06 1.52-.11.82-.32 1.47-.46 1.45-.14-.02-.17-.7-.06-1.52.11-.82.32-1.47.46-1.45zM236.87 292.29c.14.02.17.7.05 1.52-.11.82-.32 1.47-.46 1.45-.14-.02-.17-.7-.05-1.52.12-.82.32-1.47.46-1.45zM237.71 286.35c.14.02.16.7.05 1.52-.12.82-.32 1.47-.47 1.45-.14-.02-.16-.7-.05-1.52.11-.82.32-1.47.47-1.45zM238.56 280.41c.14.02.16.7.04 1.52-.12.82-.33 1.47-.47 1.45-.14-.02-.16-.7-.04-1.52.11-.82.32-1.47.47-1.45zM239.42 274.48c.14.02.16.7.04 1.52-.12.82-.33 1.47-.48 1.45-.14-.02-.16-.7-.04-1.52.13-.83.34-1.47.48-1.45zM240.31 268.55c.14.02.16.7.03 1.52-.12.82-.34 1.47-.48 1.44-.14-.02-.16-.7-.03-1.52.12-.82.34-1.46.48-1.44zM241.21 262.62c.14.02.16.7.03 1.52-.13.82-.34 1.46-.48 1.44-.14-.02-.16-.7-.03-1.52.12-.82.34-1.46.48-1.44zM242.14 256.69c.14.02.15.7.03 1.52-.13.82-.35 1.46-.49 1.44-.14-.02-.15-.7-.03-1.52.13-.81.34-1.46.49-1.44zM243.08 250.77c.14.02.15.7.02 1.52-.13.82-.35 1.46-.49 1.44-.14-.02-.15-.7-.02-1.52.12-.82.35-1.46.49-1.44zM244.04 244.85c.14.02.15.7.02 1.52-.13.82-.36 1.46-.5 1.44-.14-.02-.15-.7-.02-1.52.13-.82.35-1.46.5-1.44zM245.01 238.94c.14.02.15.7.01 1.52-.14.82-.36 1.46-.5 1.44-.14-.02-.15-.7-.01-1.52.14-.82.36-1.47.5-1.44zM246.01 233.02c.14.02.14.71.01 1.52-.14.82-.36 1.46-.51 1.43-.14-.02-.14-.71-.01-1.52.14-.81.37-1.45.51-1.43zM247.03 227.11c.14.03.14.71 0 1.52-.14.82-.37 1.46-.51 1.43-.14-.02-.14-.71 0-1.52.13-.81.36-1.45.51-1.43zM248.21 221.23c.14.03.11.71-.06 1.52-.18.81-.43 1.44-.57 1.41-.14-.03-.11-.71.06-1.52.18-.81.43-1.44.57-1.41zM249.95 215.5c.13.05.03.73-.24 1.5-.26.78-.59 1.38-.73 1.34-.14-.04-.03-.71.24-1.5.27-.8.59-1.4.73-1.34zM251.84 211.42c.13.07.07.42-.12.78-.19.36-.45.6-.58.54-.13-.06-.08-.41.12-.78.2-.36.46-.61.58-.54z"/><g><path class="st5" d="M254 297.58c.12.08.03.42-.2.77-.23.35-.51.56-.63.48-.12-.08-.03-.42.2-.77.22-.34.51-.56.63-.48zM257.26 292.55c.12.08-.14.71-.59 1.4-.45.7-.91 1.2-1.03 1.12-.12-.08.14-.71.59-1.4.45-.7.91-1.2 1.03-1.12zM260.46 287.47c.12.08-.13.71-.57 1.41-.44.7-.89 1.21-1.01 1.13-.12-.08.13-.71.57-1.41.43-.7.88-1.21 1.01-1.13zM263.57 282.35c.12.07-.12.71-.55 1.42-.43.71-.88 1.22-1 1.15-.12-.07.12-.71.55-1.42.43-.71.88-1.23 1-1.15zM266.62 277.18c.12.07-.11.71-.53 1.43-.42.72-.86 1.24-.98 1.16-.12-.07.11-.71.53-1.43.41-.72.85-1.24.98-1.16zM269.59 271.96c.13.07-.1.71-.51 1.43-.41.72-.84 1.25-.96 1.18s.1-.71.51-1.43c.4-.72.83-1.25.96-1.18zM272.48 266.71c.13.07-.09.71-.49 1.44s-.82 1.26-.95 1.19c-.13-.07.09-.71.49-1.44s.82-1.26.95-1.19zM275.29 261.41c.13.07-.08.72-.47 1.45-.39.73-.8 1.27-.93 1.21-.13-.07.08-.72.47-1.45.39-.74.8-1.28.93-1.21zM277.53 255.86c.14.03.11.73-.16 1.53s-.65 1.38-.78 1.32c-.13-.06.03-.71.29-1.48.25-.79.5-1.4.65-1.37zM277.05 249.98c.13-.06.53.52.74 1.35.22.83.11 1.54-.01 1.54-.16.01-.29-.64-.49-1.41-.2-.77-.37-1.42-.24-1.48zM273.64 245.07c.11-.1.62.35 1.15 1 .53.65.86 1.24.74 1.33-.12.08-.63-.36-1.15-1-.52-.64-.85-1.23-.74-1.33zM269.66 240.58c.11-.1.64.33 1.19.95.55.62.91 1.2.8 1.3-.11.1-.64-.33-1.19-.95-.55-.62-.91-1.2-.8-1.3zM265.68 236.09c.11-.1.64.33 1.19.95.55.62.91 1.2.8 1.3-.11.1-.64-.33-1.19-.95-.55-.62-.91-1.2-.8-1.3zM261.7 231.6c.11-.1.64.33 1.19.95.55.62.91 1.2.8 1.3-.11.1-.64-.33-1.19-.95-.55-.62-.9-1.2-.8-1.3zM257.73 227.11c.11-.1.64.33 1.19.95.55.62.91 1.2.8 1.3-.11.1-.64-.33-1.19-.95-.55-.62-.91-1.2-.8-1.3zM253.75 222.62c.11-.1.64.33 1.19.95.55.62.91 1.2.8 1.3-.11.1-.64-.33-1.19-.95-.55-.63-.91-1.21-.8-1.3zM250.77 219.25c.11-.1.42.08.69.39.27.31.41.64.3.73-.11.1-.42-.08-.69-.39-.27-.3-.41-.63-.3-.73z"/></g><g><path class="st5" d="M266.8 195.79c.01-.01.19.22.51.65.34.48.8 1.13 1.38 1.94 1.18 1.69 2.85 4.17 4.85 7.27 4.03 6.18 9.24 14.93 15.23 24.45 2.99 4.76 5.97 9.21 8.76 13.21 1.38 2.01 2.57 4.1 2.96 6.3.18 1.09.19 2.17.05 3.19-.16 1.01-.45 1.96-.79 2.82-.71 1.73-1.58 3.16-2.34 4.42-.77 1.23-1.44 2.29-2 3.18-.52.85-.93 1.52-1.24 2.02-.28.46-.43.7-.45.7-.02-.01.11-.27.36-.75s.64-1.18 1.16-2.07c.54-.9 1.18-1.98 1.92-3.23.73-1.26 1.58-2.7 2.24-4.4.32-.85.59-1.77.73-2.75.12-.98.1-2.01-.08-3.05-.39-2.1-1.55-4.12-2.93-6.11a305.2 305.2 0 01-8.8-13.2c-5.99-9.53-11.15-18.31-15.1-24.53-1.96-3.12-3.58-5.62-4.7-7.35-.54-.83-.97-1.5-1.29-1.99-.3-.46-.45-.71-.43-.72z"/></g></g></g></g></g><g id="Toolbox"><path class="st6" d="M116.04 432.31l-.08-4.8 10.15-15.12 11.61 15.09v4.83z"/><path d="M116.04 432.31l-.08-4.8 10.15-15.12 11.61 15.09v4.83z"/><path class="st6" d="M75.89 414.11c.24-.13 51.19 0 51.19 0v4.27h-47.7l-3.49-4.27z"/><path d="M75.89 414.11c.24-.13 51.19 0 51.19 0v4.27h-47.7l-3.49-4.27z"/><path class="st6" d="M73.19 412.39l-12.31 15.52v37.8h23.79v-38.64z"/><path class="st6" d="M141.97 465.71v-38.79l-10.64-14.53h-5.25l11.64 15.09v4.83H88.88v-6.1l-12.04-13.82h-3.65l11.48 14.68v38.64z"/><path class="st4" d="M141.73 435.43c0 .14-12.86.26-28.71.26-15.86 0-28.72-.12-28.72-.26s12.85-.26 28.72-.26c15.85 0 28.71.12 28.71.26zM141.55 463.56c0 .14-12.86.26-28.71.26-15.86 0-28.72-.12-28.72-.26s12.85-.26 28.72-.26c15.85 0 28.71.12 28.71.26z"/><path class="st9" d="M73.19 412.39l-12.31 15.52v37.8h23.79v-38.64z" opacity=".1"/></g><g id="Traffic_cone"><path class="st6" d="M589.58 465.75v-1.99c0-4.6 3.73-8.33 8.33-8.33h70.19c4.6 0 8.33 3.73 8.33 8.33v1.99h-86.85z"/><path class="st6" d="M630.28 376.71l-25.39 78.73h54.24l-23.57-78.67c-.79-2.6-4.45-2.64-5.28-.06z"/><g class="st7"><path class="st9" d="M622.01 402.36h21.21l9.17 30.61h-40.26z"/></g><path d="M604.89 455.44h54.23l-1.96-6.54-51.22 3.27z"/><g class="st11"><path class="st9" d="M602.06 458.25c-.02.08-.68-.06-1.73-.03-1.05.02-2.52.26-3.93 1.02-1.41.76-2.41 1.86-3 2.73-.6.87-.84 1.5-.92 1.47-.06-.02.06-.7.61-1.67.53-.96 1.56-2.18 3.07-3 1.51-.82 3.09-1.01 4.18-.93 1.1.08 1.74.35 1.72.41z"/></g><g class="st11"><path class="st9" d="M614.39 435.11c.13.05-.9 3.19-2.31 7.02-1.41 3.83-2.66 6.89-2.8 6.84-.13-.05.9-3.19 2.31-7.02 1.41-3.83 2.67-6.89 2.8-6.84z"/></g><g class="st11"><path class="st9" d="M632.13 377.33c.07.02-.32 1.29-.98 3.32-.7 2.17-1.59 4.91-2.58 7.94-.97 3.04-1.85 5.78-2.54 7.95-.65 2.03-1.08 3.29-1.15 3.27-.07-.02.23-1.31.8-3.37.56-2.06 1.4-4.9 2.4-8.01 1-3.11 1.98-5.9 2.73-7.9.74-2 1.25-3.22 1.32-3.2z"/></g></g></svg>