<svg xmlns="http://www.w3.org/2000/svg" viewBox="0 0 750 500"><style>.st0{fill:#e0e0e0}.st1{fill:#ebebeb}.st2{fill:#f5f5f5}.st3{fill:#024eff}.st4{fill:#e8505b}.st5{opacity:.3}.st6{fill:#263238}.st7{fill:#fff}.st9{fill:#ffbe9d}.st10{fill:#eb996e}.st11{fill:#455a64}.st12{fill:#b78876}.st13{fill:#aa6550}</style><path class="st0" d="M706.04 242.24c-.01-.01-.01-.1-.02-.28 0-.2-.01-.46-.02-.79-.01-.72-.02-1.74-.04-3.05-.02-2.67-.05-6.52-.09-11.38l.16.16c-13.18.02-34.07.06-57.55.1l.26-.26v15.49l-.25-.25c16.41.05 30.75.09 41.03.12 5.13.03 9.24.06 12.1.07 1.4.01 2.49.03 3.27.03.36.01.64.01.85.02.2.01.3.01.3.02.01.01-.09.01-.27.02-.21 0-.48.01-.82.02-.76.01-1.84.02-3.21.03-2.85.02-6.94.04-12.04.07-10.32.03-24.73.07-41.21.12h-.25v-.26-7.62-3.91V226.75c.52-.52.15-.14.26-.26 23.48.04 44.37.08 57.55.1h.16v.16c-.04 4.9-.07 8.78-.09 11.47-.02 1.29-.03 2.3-.04 3.01-.01.32-.01.57-.02.77-.01.16-.01.24-.02.24z"/><path class="st1" d="M372.08 35.17h57.55v15.5h-57.55z"/><path class="st0" d="M453.71 66.57c-.01-.01-.01-.1-.02-.28 0-.2-.01-.46-.02-.79-.01-.72-.02-1.74-.04-3.05-.02-2.67-.05-6.52-.09-11.38l.16.16c-13.18.02-34.07.06-57.55.1l.26-.26v15.49l-.25-.25c16.41.05 30.75.09 41.03.12 5.13.03 9.24.06 12.1.07 1.4.01 2.49.03 3.27.03.36.01.64.01.85.02.19.01.29.01.3.02s-.09.01-.27.02c-.21 0-.48.01-.82.02-.76.01-1.84.02-3.21.03-2.85.02-6.94.04-12.04.07-10.32.03-24.73.07-41.21.12h-.25v-.26-7.62-3.91V51.07c.52-.52.15-.14.26-.26 23.48.04 44.37.08 57.55.1h.16v.16c-.04 4.9-.07 8.78-.09 11.47-.02 1.29-.03 2.3-.04 3.01-.01.32-.01.57-.02.77-.01.17-.01.25-.02.25zM141.09 306.13c-.01-.01-.01-.1-.02-.28 0-.2-.01-.46-.02-.79-.01-.72-.02-1.74-.04-3.05-.02-2.67-.05-6.52-.09-11.38l.16.16c-13.18.02-34.07.06-57.55.1.11-.12-.26.26.26-.26v15.49l-.25-.25c16.41.05 30.75.09 41.03.12 5.13.03 9.24.06 12.1.07 1.4.01 2.49.03 3.27.03.36.01.64.01.85.02.19.01.29.01.3.02.01.01-.09.01-.27.02-.21 0-.48.01-.82.02-.76.01-1.84.02-3.21.03-2.85.02-6.94.04-12.04.07-10.32.03-24.73.07-41.21.12h-.25v-.26-7.62-3.91V290.64c.52-.52.15-.14.26-.26 23.48.04 44.37.08 57.55.1h.16v.16c-.04 4.9-.07 8.78-.09 11.47-.02 1.29-.03 2.3-.04 3.01-.01.32-.01.57-.02.77-.01.16-.02.24-.02.24z"/><path class="st0" d="M147.5 321.63c-.01-.01-.01-.11-.02-.3-.01-.22-.01-.49-.02-.82-.01-.76-.03-1.8-.05-3.11-.03-2.72-.06-6.56-.11-11.27l.2.2c-7.66.02-17.75.04-28.77.06-.23.23.31-.32.26-.26V314.14c0 2.59-.01 5.1-.01 7.49l-.24-.24c8.36.05 15.51.09 20.62.12 2.52.03 4.54.05 5.97.07.67.01 1.2.02 1.61.03.35 0 .55.01.56.02.01.01-.17.02-.52.03-.39.01-.91.02-1.56.03-1.42.02-3.42.04-5.92.07-5.16.03-12.36.07-20.78.12h-.24v-.25c0-2.39-.01-4.9-.01-7.49v-3.95V306.13c-.06.05.49-.5.26-.26 11.03.02 21.11.05 28.77.06h.2v.2c-.04 4.76-.08 8.64-.11 11.39-.02 1.3-.04 2.32-.05 3.07-.01.32-.02.58-.02.79-.01.17-.01.26-.02.25zM684.82 78.68c-.01-.01-.01-.1-.02-.28 0-.2-.01-.46-.02-.79-.01-.72-.02-1.74-.04-3.05-.02-2.67-.05-6.52-.09-11.38l.16.16c-13.18.02-34.07.06-57.55.1.11-.12-.26.26.26-.26v15.49l-.25-.25c16.41.05 30.75.09 41.03.12 5.13.03 9.24.06 12.1.07 1.4.01 2.49.03 3.27.03.36.01.64.01.85.02.19.01.29.01.3.02s-.09.01-.27.02c-.21 0-.48.01-.82.02-.76.01-1.84.02-3.21.03-2.85.02-6.94.04-12.04.07-10.32.03-24.73.07-41.21.12h-.25v-.26-7.62-3.91V63.18c.52-.52.15-.14.26-.26 23.48.04 44.37.08 57.55.1h.16v.16c-.04 4.9-.07 8.78-.09 11.47-.02 1.29-.03 2.3-.04 3.01-.01.32-.01.57-.02.77-.01.17-.02.26-.02.25z"/><path class="st0" d="M691.23 94.18c-.01-.01-.01-.11-.02-.3-.01-.22-.01-.49-.02-.82-.01-.76-.03-1.8-.05-3.11-.03-2.72-.06-6.56-.11-11.27l.2.2c-7.66.02-17.75.04-28.77.06-.23.23.31-.32.26-.26V86.69c0 2.59-.01 5.1-.01 7.49l-.24-.24c8.36.05 15.51.09 20.62.12 2.52.03 4.54.05 5.97.07.67.01 1.2.02 1.61.03.35 0 .55.01.56.02.01.01-.17.02-.52.03-.39.01-.91.02-1.56.03-1.42.02-3.42.04-5.92.07-5.16.03-12.36.07-20.78.12h-.24v-.25c0-2.39-.01-4.9-.01-7.49v-3.95V78.68c-.06.05.49-.5.26-.26 11.03.02 21.11.05 28.77.06h.2v.2c-.04 4.76-.08 8.64-.11 11.39-.02 1.3-.04 2.32-.05 3.07-.01.32-.02.58-.02.79-.01.17-.02.26-.02.25z"/><path class="st1" d="M43.54 150.32h57.55v15.5H43.54z"/><path class="st0" d="M125.18 181.72c-.01-.01-.01-.1-.02-.28 0-.2-.01-.46-.02-.79-.01-.72-.02-1.74-.04-3.05-.02-2.67-.05-6.52-.09-11.38l.16.16c-13.18.02-34.07.06-57.55.1l.26-.26v15.49l-.25-.25c16.41.05 30.75.09 41.03.12 5.13.03 9.24.06 12.1.07 1.4.01 2.49.03 3.27.03.36.01.64.01.85.02.19 0 .29.01.3.02.01.01-.09.01-.27.02-.21 0-.48.01-.82.02-.76.01-1.84.02-3.21.03-2.85.02-6.94.04-12.04.07-10.32.03-24.73.07-41.21.12h-.25v-.26-7.62-3.91V166.23c.52-.52.15-.14.26-.26 23.48.04 44.37.08 57.55.1h.16v.16c-.04 4.9-.07 8.78-.09 11.47-.02 1.29-.03 2.3-.04 3.01-.01.32-.01.57-.02.77-.01.16-.02.24-.02.24z"/><path class="st1" d="M484.01 272.44h57.55v15.5h-57.55z"/><path class="st0" d="M565.64 303.84c-.01-.01-.01-.1-.02-.28 0-.2-.01-.46-.02-.79-.01-.72-.02-1.74-.04-3.05-.02-2.67-.05-6.52-.09-11.38l.16.16c-13.18.02-34.07.06-57.55.1l.26-.26v15.49l-.25-.25c16.41.05 30.75.09 41.03.12 5.13.03 9.24.06 12.1.07 1.4.01 2.49.03 3.27.03.36.01.64.01.85.02.19.01.3.01.3.02.01.01-.09.01-.27.02-.21 0-.48.01-.82.02-.76.01-1.84.02-3.21.03-2.85.02-6.94.04-12.04.07-10.32.03-24.73.07-41.21.12h-.25v-.26-7.62-3.91V288.35c.52-.52.15-.14.26-.26 23.48.04 44.37.08 57.55.1h.16v.16c-.04 4.9-.07 8.78-.09 11.47-.02 1.29-.03 2.3-.04 3.01-.01.32-.01.57-.02.77-.01.16-.01.24-.02.24zM281.11 362.47c-.01-.01-.01-.1-.02-.28 0-.2-.01-.46-.02-.79-.01-.72-.02-1.74-.04-3.05-.02-2.67-.05-6.52-.09-11.38l.16.16c-13.18.02-34.07.06-57.55.1l.26-.26v15.49l-.25-.25c16.41.05 30.75.09 41.03.12 5.13.03 9.24.06 12.1.07 1.4.01 2.49.03 3.27.03.36.01.64.01.85.02.19 0 .3.01.3.02s-.09.01-.27.02c-.21 0-.48.01-.82.02-.76.01-1.84.02-3.21.03-2.85.02-6.94.04-12.04.07-10.32.03-24.73.07-41.21.12h-.25v-.26-7.62-3.91V346.98c.52-.52.15-.14.26-.26 23.48.04 44.37.08 57.55.1h.16v.16c-.04 4.9-.07 8.78-.09 11.47-.02 1.29-.03 2.3-.04 3.01-.01.32-.01.57-.02.77-.01.16-.01.24-.02.24zM234.57 89.04c-.01-.01-.01-.1-.02-.28 0-.2-.01-.46-.02-.79-.01-.72-.02-1.74-.04-3.05-.02-2.67-.05-6.52-.09-11.38l.16.16c-13.18.02-34.07.06-57.55.1l.26-.26v15.49l-.25-.25c16.41.05 30.75.09 41.03.12 5.13.03 9.24.06 12.1.07 1.4.01 2.49.03 3.27.03.36.01.64.01.85.02.2.01.3.02.3.02.01.01-.09.01-.27.02-.21 0-.48.01-.82.02-.76.01-1.84.02-3.21.03-2.85.02-6.94.04-12.04.07-10.32.03-24.73.07-41.21.12h-.25v-.26-7.62-3.91V73.54c.52-.52.15-.14.26-.26 23.48.04 44.37.08 57.55.1h.16v.16c-.04 4.9-.07 8.78-.09 11.47-.02 1.29-.03 2.3-.04 3.01-.01.32-.01.57-.02.77-.01.17-.01.26-.02.25z"/><path class="st2" d="M611.1 464.82c-15.99-12.61-18.52-34.44-16.73-53.82.3-3.24.14-6.67 1.85-9.43 1.71-2.75 5.42-4.49 8.24-2.96 2.34 1.27 3.23 4.14 4.44 6.53 1.61 3.19 4.14 5.89 7.18 7.7 2 1.19 4.52 1.99 6.62.99 2.89-1.38 3.44-5.23 3.61-8.45l.93-18.04c.17-3.23.35-6.52 1.53-9.52 1.18-3 3.56-5.72 6.68-6.4 3.12-.68 6.81 1.31 7.27 4.5.19 1.33-.15 2.68-.14 4.02.01 1.34.55 2.86 1.8 3.31 1.27.45 2.61-.39 3.63-1.27 3.52-3.06 6.02-7.13 8.37-11.18 2.35-4.05 4.65-8.2 7.88-11.58 3.23-3.38 7.57-5.95 12.2-5.94 4.63.01 9.39 3.14 10.29 7.74.91 4.61-2.01 9.07-5.11 12.59-4.6 5.21-9.94 9.75-15.82 13.42-1.06.66-2.21 1.38-2.66 2.55-.83 2.11 1.09 4.36 3.17 5.19 2.36.94 4.98.84 7.48 1.28 2.5.44 5.16 1.71 5.97 4.14 1.13 3.37-1.83 6.67-4.67 8.77a61.618 61.618 0 01-18.86 9.48c-2.42.73-4.96 1.35-6.97 2.9-2.01 1.56-3.33 4.39-2.31 6.73 1.02 2.34 3.95 3.24 6.46 2.92 2.51-.32 4.81-1.54 7.23-2.29 4.53-1.42 10.23-.78 12.85 3.22 1.72 2.63 1.68 6.14.56 9.09-1.12 2.95-3.18 5.42-5.35 7.69-7.59 7.92-17.07 14.1-27.56 17.07-10.47 2.96-20.06 3.38-30.06-.95"/><path class="st0" d="M616.82 452.93c3.43-9.64 8.06-19.89 13.28-30.45 1.31-2.63 2.61-5.24 3.89-7.8 1.28-2.56 2.55-5.09 3.95-7.5 2.77-4.82 5.81-9.25 8.82-13.35 3.01-4.11 6.02-7.9 8.86-11.43 2.85-3.52 5.56-6.75 8.16-9.59 5.18-5.7 9.9-9.8 13.25-12.48 1.67-1.35 3.01-2.35 3.92-3.01.44-.32.78-.56 1.04-.75.24-.17.36-.25.37-.24.01.01-.11.11-.33.29-.25.2-.58.46-1.01.8-.89.7-2.2 1.73-3.85 3.1a121.5 121.5 0 00-13.09 12.58c-2.57 2.85-5.26 6.09-8.09 9.62-2.82 3.54-5.81 7.33-8.8 11.44-2.99 4.11-6 8.52-8.76 13.32-1.39 2.39-2.64 4.91-3.93 7.47-1.28 2.56-2.57 5.17-3.89 7.8-5.21 10.55-9.85 20.77-13.29 30.37"/><path class="st0" d="M638.11 407.17c-.04 0-.12-.49-.24-1.39-.12-.9-.24-2.21-.38-3.83-.27-3.24-.49-7.72-.71-12.66-.22-4.95-.51-9.41-.82-12.64-.15-1.61-.29-2.92-.4-3.82-.1-.9-.14-1.4-.1-1.41.04-.01.15.48.33 1.38.18.89.38 2.19.59 3.8.43 3.22.78 7.71 1 12.66.21 4.88.4 9.29.54 12.67.07 1.52.14 2.81.19 3.84.04.89.04 1.4 0 1.4z"/><path class="st0" d="M680.02 401.83c0 .04-.6.08-1.67.1-1.07.03-2.62.07-4.53.18-3.82.19-9.09.64-14.88 1.38-5.79.76-11.01 1.67-14.76 2.43-1.88.37-3.39.71-4.44.94-1.05.23-1.63.34-1.64.3-.01-.04.55-.23 1.59-.53 1.03-.3 2.53-.7 4.41-1.13 3.74-.88 8.96-1.85 14.77-2.61 5.81-.75 11.1-1.13 14.94-1.21 1.92-.06 3.47-.03 4.54.01 1.08.05 1.67.1 1.67.14zM617.38 452.2c-.02.01-.11-.17-.26-.52-.17-.42-.37-.93-.62-1.54-.53-1.34-1.26-3.3-2.12-5.73-1.72-4.87-3.9-11.66-6.19-19.19-2.3-7.54-4.4-14.34-6.02-19.24-.8-2.38-1.45-4.34-1.94-5.79-.21-.63-.38-1.15-.52-1.58-.11-.36-.16-.56-.14-.57.02-.01.11.17.26.52l.62 1.54c.53 1.34 1.26 3.3 2.12 5.73 1.72 4.87 3.9 11.66 6.19 19.2 2.3 7.53 4.4 14.34 6.02 19.23.8 2.38 1.45 4.34 1.94 5.79.21.63.38 1.15.52 1.58.11.37.16.56.14.57z"/><path class="st0" d="M673.5 437.64c0 .02-.19.09-.56.19-.44.12-.98.27-1.63.44-1.51.39-3.54.92-6.01 1.57-5.08 1.33-12.06 3.24-19.78 5.36-7.72 2.13-14.73 3.98-19.84 5.2-2.55.61-4.62 1.09-6.06 1.38-.66.13-1.21.24-1.66.33-.38.07-.58.1-.59.08 0-.02.19-.09.56-.19.44-.12.98-.26 1.63-.44 1.51-.39 3.54-.92 6.01-1.57 5.08-1.33 12.07-3.24 19.79-5.36 7.72-2.12 14.73-3.97 19.84-5.2 2.55-.61 4.62-1.09 6.06-1.38.66-.13 1.21-.24 1.66-.33.38-.08.58-.1.58-.08z"/><path class="st1" d="M119.92 333.17s-8.06 2.78.16 20.01c8.21 17.23 13.99 25.8 13.99 25.8s1.43 3.99-1.91 4.51c-3.34.52-10.62-.84-12.21 3.18-1.65 4.17 1.31 8.23 7.42 11.89 6.11 3.66 19.21 12.15 20.4 12.93 1.16.76 2.29 2.63.08 3.35-2.22.72-18.71 1.99-17.64 9.79 1.07 7.79 19.78 15.18 21.81 16.02 2.03.85 2.5 1.73 2.3 2.85-.2 1.12-5.78 1.03-10.46 1.58-4.68.55-10 2.02-9.01 6.46 1 4.44 11.93 14.02 39.03 17.41l12.66.75 7.18-10.52c14-23.45 13.19-37.96 10.3-41.48-2.89-3.52-7.32-.22-10.63 3.12-3.32 3.34-6.68 7.8-7.68 7.27-1.01-.53-1.41-1.45-.83-3.57s6.27-21.41.79-27.05c-5.48-5.64-16.64 6.58-18.57 7.88-1.93 1.3-2.71-.74-2.59-2.12.12-1.41 1.48-16.96 2.36-24.03.88-7.07-.5-11.89-4.8-13.16-4.15-1.22-7.56 5.35-10.02 7.66-2.47 2.31-4.73-1.27-4.73-1.27s-3.2-9.83-11.73-26.91c-8.52-17.08-15.83-12.28-15.83-12.28"/><path class="st0" d="M187.11 472.7c-6.21-12.57-16.88-35.08-26.13-54.37-9.25-19.28-17.65-36.73-23.79-49.32-3.07-6.28-5.57-11.37-7.3-14.91-.85-1.75-1.52-3.11-1.98-4.06-.22-.45-.39-.81-.51-1.06-.11-.24-.16-.37-.16-.37s.07.12.2.35c.13.25.31.59.54 1.04.48.93 1.16 2.29 2.05 4.02 1.77 3.5 4.3 8.57 7.41 14.85 6.21 12.57 14.65 30 23.9 49.27 9.26 19.29 19.88 41.82 26.03 54.42"/><path class="st0" d="M130.06 388.99c.01-.03.32.07.88.27s1.35.5 2.33.89c1.96.78 4.64 1.92 7.57 3.24 2.89 1.31 5.5 2.49 7.49 3.4.9.4 1.66.74 2.28 1.01.54.24.83.38.82.41-.01.03-.32-.07-.88-.26-.56-.2-1.35-.5-2.33-.9-1.95-.8-4.61-1.98-7.54-3.29-2.89-1.29-5.51-2.45-7.51-3.34-.9-.4-1.67-.73-2.28-1-.55-.26-.84-.4-.83-.43zM152.31 397.42c-.1-.04 2.02-5.66 4.73-12.56 2.71-6.9 4.99-12.45 5.09-12.41.1.04-2.01 5.66-4.73 12.56-2.71 6.89-4.99 12.45-5.09 12.41zM165.19 427.68c-.02-.02.17-.29.54-.77l1.56-2.01c1.31-1.7 3.11-4.06 5-6.73 1.9-2.67 3.53-5.15 4.7-6.95.55-.85 1.01-1.56 1.39-2.13.33-.5.52-.77.55-.76.02.01-.13.31-.42.84s-.72 1.28-1.28 2.2c-1.11 1.84-2.71 4.35-4.62 7.03-1.9 2.68-3.74 5.02-5.11 6.68-.69.83-1.25 1.49-1.66 1.94-.4.43-.63.67-.65.66zM143.38 424.48c0-.03.31-.01.87.04.64.07 1.42.15 2.34.25 1.97.23 4.7.57 7.7.97s5.72.79 7.69 1.08c.92.15 1.69.27 2.32.37.55.1.85.16.84.19 0 .03-.31.01-.87-.04-.64-.07-1.42-.15-2.34-.25-1.97-.23-4.7-.57-7.7-.97s-5.72-.79-7.68-1.08c-.92-.15-1.69-.27-2.32-.37-.55-.1-.85-.16-.85-.19zM151.36 452.63c0-.03.4 0 1.11.06.78.08 1.79.18 3 .31 2.53.28 6.02.69 9.88 1.16 3.86.48 7.34.93 9.87 1.28 1.2.17 2.21.32 2.98.43.7.11 1.09.18 1.09.21s-.4 0-1.11-.06c-.78-.08-1.79-.18-3-.31-2.53-.28-6.02-.69-9.88-1.16-3.85-.48-7.34-.93-9.86-1.28-1.2-.17-2.21-.32-2.98-.43-.72-.11-1.1-.18-1.1-.21zM178.64 455.82c-.02-.02.21-.37.65-.99.49-.68 1.12-1.56 1.88-2.62 1.59-2.22 3.76-5.29 6.07-8.74 2.32-3.45 4.33-6.64 5.77-8.95.69-1.11 1.27-2.03 1.71-2.74.41-.65.64-1 .67-.98.02.01-.17.39-.53 1.06-.37.67-.91 1.63-1.6 2.81a188.359 188.359 0 01-11.86 17.72c-.83 1.09-1.5 1.96-1.98 2.55-.49.57-.76.89-.78.88z"/><path class="st1" d="M566.76 125.95l-2.57-4.18c-21.66-35.25-60.83-56.5-102.13-53.93-5.31.33-10.59 1.04-15.81 2.14-37.55 7.94-70.22 35.98-83.76 71.88-7.96 21.12-10.19 45.43-25.3 62.2-19.67 21.82-53.06 22.5-82.42 21.6-29.36-.9-62.78-.13-82.35 21.77-12.26 13.72-16.16 33.22-15.17 51.59 2.62 48.63 36.94 92.12 80.58 113.74 43.65 21.62 95.03 23.55 142.8 14.04 66.92-13.32 130.55-49.9 168.81-106.4 38.24-56.5 47.92-133.47 17.32-194.45z"/><path class="st3" d="M116.75 425.36c-4.72-5.57-5.34-14.51-4.65-21.77.69-7.26 2.38-14.57 1.23-21.78-.68-4.27-2.34-8.35-2.89-12.63-.56-4.29.23-9.13 3.56-11.9 3.82-3.18 9.83-2.43 13.8.56 3.97 2.99 6.27 7.68 7.95 12.35 3.69 10.27 5.05 21.66 2.02 32.15-3.03 10.49-10.16 19.86-20.6 23.03"/><path class="st4" d="M141.81 438.01c.78-2.69 2.44-5.29 5-6.39 2.67-1.15 5.77-.5 8.5.5 2.73.99 5.42 2.32 8.32 2.5 2.9.18 6.18-1.2 7.05-3.97.82-2.61-.76-5.39-2.73-7.29-4.14-3.99-10.36-5.68-15.95-4.33-5.59 1.34-10.36 5.67-12.24 11.1"/><g class="st5"><path class="st3" d="M141.81 438.01c.78-2.69 2.44-5.29 5-6.39 2.67-1.15 5.77-.5 8.5.5 2.73.99 5.42 2.32 8.32 2.5 2.9.18 6.18-1.2 7.05-3.97.82-2.61-.76-5.39-2.73-7.29-4.14-3.99-10.36-5.68-15.95-4.33-5.59 1.34-10.36 5.67-12.24 11.1"/></g><path class="st3" d="M118.8 449.67c-4.26-4.05-4.05-11.09-1.92-16.57s6.76-9.69 11.94-12.46c10.04-5.37 22.6-5.78 32.97-1.07-5.1.17-10.02 3.06-12.65 7.43-2.34 3.88-2.85 8.58-4.78 12.68-2.15 4.56-6.09 8.25-10.79 10.08-4.7 1.84-10.1 1.81-14.77-.09"/><path class="st6" d="M114.49 471.04c-.02 0-.03-.22-.03-.64 0-.42-.01-1.04.02-1.84.05-1.6.2-3.91.55-6.75.35-2.84.91-6.2 1.8-9.88.88-3.69 2.38-7.62 4.51-11.45 4.3-7.68 10.34-13.16 15.11-16.27 1.18-.81 2.32-1.43 3.31-2 1.01-.53 1.89-.96 2.61-1.3.7-.29 1.26-.52 1.7-.7.39-.16.6-.23.61-.21.01.02-.19.12-.57.31-.43.2-.98.47-1.66.79-.7.37-1.57.83-2.56 1.37-.96.59-2.08 1.22-3.24 2.05-4.69 3.17-10.62 8.62-14.87 16.22-4.33 7.57-5.52 15.54-6.4 21.13-.4 2.82-.6 5.12-.71 6.71l-.12 1.83c-.02.41-.04.63-.06.63z"/><path class="st4" d="M73.49 409.93c-8.73 5.27-8.7 10.06-7.24 14.58 1.46 4.52 6.81 7.67 11.25 5.97 2.51-.96 4.33-3.14 5.88-5.33 1.55-2.19 3.01-4.54 5.19-6.11 2.18-1.57 5.33-2.18 7.52-.62"/><g class="st5"><path class="st3" d="M73.49 409.93c-8.73 5.27-8.7 10.06-7.24 14.58 1.46 4.52 6.81 7.67 11.25 5.97 2.51-.96 4.33-3.14 5.88-5.33 1.55-2.19 3.01-4.54 5.19-6.11 2.18-1.57 5.33-2.18 7.52-.62"/></g><path class="st3" d="M66.96 415.71c2.28-3.15 7.92-4.07 11.48-2.49s6.17 4.69 8.5 7.81c2.33 3.11 4.61 6.4 7.84 8.57 3.23 2.17 7.75 2.95 10.97.77 2.12-1.43 3.34-3.93 3.73-6.45.38-2.53.01-5.11-.51-7.61-.77-3.66-2.03-7.48-4.96-9.81-3.26-2.59-7.79-2.71-11.96-2.58-4.78.16-9.63.51-14.12 2.17-4.49 1.65-9.07 5.23-10.97 9.62"/><path class="st6" d="M106.92 470.59c-.02 0-.04-.26-.07-.75-.02-.55-.05-1.27-.09-2.17-.06-1.94-.15-4.64-.25-7.97-.11-3.36-.25-7.36-.5-11.8s-.58-9.32-1.26-14.39c-.34-2.53-.74-5.01-1.44-7.3-.71-2.29-1.65-4.43-2.67-6.39-2.04-3.93-4.59-7.06-7.04-9.34-2.47-2.26-4.83-3.65-6.51-4.46-.84-.42-1.52-.69-1.98-.86-.46-.19-.7-.29-.69-.31s.26.06.73.21c.48.15 1.17.38 2.03.78 1.72.76 4.14 2.12 6.67 4.38 2.51 2.27 5.12 5.42 7.21 9.38 1.05 1.98 2 4.13 2.73 6.46.72 2.34 1.13 4.83 1.47 7.38.68 5.1.99 9.99 1.22 14.44.22 4.45.32 8.45.39 11.82.06 3.37.08 6.09.08 7.97 0 .9-.01 1.62-.01 2.17.02.49 0 .75-.02.75zM110.81 470.59c-.01 0-.04-.08-.09-.24-.06-.19-.13-.43-.22-.73-.21-.64-.43-1.61-.68-2.87-.46-2.51-.88-6.22-.68-10.8.19-4.57.89-10.02 2.62-15.83 1.75-5.79 4.24-11.96 6.44-18.56 2.25-6.59 3.55-13.11 4.07-19.11.54-6 .5-11.44.37-16-.14-4.56-.38-8.25-.52-10.79-.07-1.24-.12-2.22-.16-2.94-.01-.31-.02-.56-.03-.76 0-.17 0-.26.01-.26s.02.09.05.26c.02.2.05.45.08.76.06.71.15 1.69.26 2.93.21 2.55.5 6.23.69 10.8.18 4.56.26 10.02-.26 16.05-.5 6.03-1.8 12.62-4.06 19.23-2.21 6.62-4.7 12.77-6.47 18.53a66.082 66.082 0 00-2.71 15.71c-.24 4.55.11 8.24.51 10.75.22 1.25.41 2.23.58 2.87.07.3.13.55.17.74.02.17.04.26.03.26z"/><path class="st0" d="M439.81 311.33h8.67V470.7h-8.67z"/><path class="st3" d="M452.91 305.88c0 4.83-3.91 8.74-8.74 8.74s-8.74-3.91-8.74-8.74 3.91-8.74 8.74-8.74 8.74 3.91 8.74 8.74z"/><path class="st0" d="M612.09 311.33h8.67V470.7h-8.67z"/><path class="st3" d="M625.18 305.88c0 4.83-3.91 8.74-8.74 8.74s-8.74-3.91-8.74-8.74 3.91-8.74 8.74-8.74 8.74 3.91 8.74 8.74zM415.07 326.71h222.11v39.74H415.07z"/><path class="st2" d="M440.2 326.71l-.39.66-22.82 39.08h-1.92v-39.74zM496.34 326.71l-23.23 39.74h-30.35l9.23-15.79 14-23.95zM552.45 326.71l-23.22 39.74h-30.35l23.22-39.74zM608.57 326.72l-23.24 39.73h-30.34l23.23-39.73zM637.17 326.72v39.73h-26.06l23.23-39.73z"/><path class="st3" d="M415.07 388.1h222.11v39.74H415.07z"/><path class="st2" d="M440.2 388.1l-.39.66-22.82 39.08h-1.92V388.1zM496.34 388.1l-23.23 39.74h-30.35l9.23-15.79 14-23.95zM552.45 388.1l-23.22 39.74h-30.35l23.22-39.74zM608.57 388.11l-23.24 39.73h-30.34l23.23-39.73zM637.17 388.11v39.73h-26.06l23.23-39.73z"/><path class="st6" d="M637.17 366.45s-.01-.24-.02-.69c-.01-.47-.01-1.13-.02-1.99-.01-1.77-.03-4.35-.06-7.72-.03-6.76-.07-16.67-.13-29.34l.23.23c-45.54.04-128.02.12-222.09.21h-.01l.44-.44c0 13.61 0 26.98-.01 39.74l-.43-.43c62.89.08 118.35.14 158.12.19 19.9.05 35.86.1 46.89.13 5.5.03 9.75.05 12.67.06 1.43.01 2.53.02 3.3.03.73 0 1.12.02 1.12.02s-.36.02-1.08.03c-.75.01-1.83.02-3.24.03-2.89.01-7.12.03-12.57.06-11 .03-26.93.07-46.79.13-39.85.05-95.42.12-158.43.19h-.43v-.43c0-12.76 0-26.13-.01-39.74v-.44h.45c94.07.09 176.56.17 222.09.21h.23v.23c-.06 12.73-.1 22.68-.13 29.48-.02 3.35-.04 5.91-.06 7.67-.01.84-.02 1.49-.02 1.95.01.42-.01.63-.01.63zM637.17 427.84s-.01-.24-.02-.69c-.01-.47-.01-1.13-.02-1.99-.01-1.77-.03-4.35-.06-7.72-.03-6.76-.07-16.67-.13-29.34l.23.23c-45.54.04-128.02.12-222.09.21h-.01l.44-.44c0 13.61 0 26.98-.01 39.74l-.43-.43c62.89.08 118.35.14 158.12.19 19.9.05 35.86.1 46.89.13 5.5.03 9.75.05 12.67.06 1.43.01 2.53.02 3.3.03.73 0 1.12.02 1.12.02s-.36.02-1.08.03c-.75.01-1.83.02-3.24.03-2.89.01-7.12.03-12.57.06-11 .03-26.93.07-46.79.13-39.85.05-95.42.12-158.43.19h-.43v-.43c0-12.76 0-26.13-.01-39.74v-.44h.45c94.07.09 176.56.17 222.09.21h.23v.23c-.06 12.73-.1 22.68-.13 29.48-.02 3.35-.04 5.91-.06 7.67-.01.84-.02 1.49-.02 1.95.01.42-.01.63-.01.63zM687.78 470.7c0 .14-140.49.26-313.76.26-173.33 0-313.79-.12-313.79-.26s140.46-.26 313.79-.26c173.26 0 313.76.11 313.76.26z"/><path class="st0" d="M149.26 227.91h9.1V470.7h-9.1z"/><path class="st6" d="M158.36 470.7s-.01-.43-.02-1.26c0-.84-.01-2.06-.02-3.67-.01-3.23-.02-7.97-.04-14.09-.02-12.23-.05-29.93-.08-51.85-.03-43.81-.07-104.46-.11-171.92l.26.26h-9.1l.26-.26c-.09 116.99-.17 215.3-.19 242.79l-.07-.07c3.11.02 5.38.03 6.88.04 1.5.01 2.23.03 2.23.03s-.7.02-2.19.03c-1.51.01-3.79.02-6.92.04h-.07v-.07c-.02-27.49-.1-125.8-.19-242.79v-.26h9.62v.26c-.04 67.53-.08 128.26-.11 172.12-.03 21.89-.06 39.57-.08 51.79-.02 6.09-.03 10.81-.04 14.03-.01 1.59-.01 2.81-.02 3.63.01.81 0 1.22 0 1.22z"/><circle transform="rotate(-24.006 153.813 185.069)" class="st3" cx="153.81" cy="185.08" r="52.94"/><path class="st7" d="M201.46 183.09c-.02 0-.04-.26-.09-.77-.04-.55-.09-1.3-.16-2.26-.03-.5-.07-1.06-.11-1.66-.07-.61-.2-1.27-.31-1.99-.23-1.44-.45-3.1-1-4.91-.85-3.67-2.57-8.01-5.29-12.61a47.385 47.385 0 00-12.06-13.42c-5.36-4.02-12.11-7.44-19.91-8.81-7.74-1.33-16.49-1.09-24.81 2.08-2.12.68-4.11 1.73-6.16 2.71-1 .54-1.95 1.17-2.94 1.76-1.01.56-1.93 1.26-2.85 1.96-1.92 1.32-3.6 2.97-5.35 4.55-1.59 1.76-3.26 3.48-4.62 5.47-2.81 3.9-5.26 8.24-6.75 13a50.137 50.137 0 00-2.43 14.89c.07 5.12.89 10.16 2.43 14.9 1.48 4.77 3.94 9.1 6.75 13.01 1.37 2 3.04 3.72 4.62 5.47 1.76 1.59 3.44 3.24 5.35 4.55.92.71 1.84 1.4 2.85 1.96.99.59 1.94 1.22 2.94 1.76 2.05.98 4.04 2.03 6.16 2.71 8.33 3.16 17.07 3.41 24.81 2.08 7.8-1.38 14.55-4.8 19.91-8.82 5.37-4.06 9.32-8.84 12.06-13.42 2.72-4.6 4.45-8.94 5.29-12.61.55-1.81.77-3.47 1-4.91.11-.72.24-1.38.31-1.99.04-.61.07-1.16.11-1.66.07-.96.12-1.71.16-2.26.04-.5.07-.76.09-.76.02 0 .02.26.01.77-.02.55-.04 1.31-.07 2.27-.02.5-.04 1.06-.06 1.67-.05.61-.17 1.28-.27 2-.2 1.45-.4 3.13-.93 4.96-.8 3.71-2.49 8.11-5.2 12.79a47.69 47.69 0 01-12.11 13.67c-5.4 4.11-12.24 7.61-20.16 9.05-7.86 1.39-16.75 1.17-25.24-2.03-2.16-.69-4.19-1.75-6.28-2.74-1.02-.55-1.99-1.19-3-1.78-1.02-.57-1.96-1.28-2.91-1.99-1.96-1.34-3.67-3.01-5.46-4.63-1.62-1.79-3.32-3.54-4.72-5.57-2.87-3.97-5.37-8.39-6.89-13.25a51.064 51.064 0 01-2.48-15.18c.07-5.22.91-10.35 2.49-15.18 1.52-4.86 4.02-9.28 6.89-13.25 1.4-2.03 3.1-3.78 4.72-5.57 1.79-1.62 3.5-3.29 5.46-4.63.94-.72 1.88-1.42 2.9-1.99 1.01-.6 1.98-1.23 3-1.78 2.09-1 4.12-2.06 6.28-2.74 8.49-3.2 17.38-3.41 25.24-2.03 7.92 1.43 14.76 4.94 20.16 9.05a47.69 47.69 0 0112.11 13.67c2.71 4.67 4.4 9.07 5.2 12.79.53 1.83.72 3.51.93 4.96.1.72.21 1.39.27 2 .02.61.04 1.17.06 1.67.03.96.05 1.72.07 2.27.01.49 0 .75-.01.75z"/><path fill="#fafafa" d="M126.25 177.12h55.13v11.5h-55.13z"/><path class="st6" d="M352.08 133.24c-1.29.09.4 2.87-.86 3.12-1.66.32-3.23-.9-4.21-2.26-.98-1.36-1.67-2.97-2.93-4.09-1.65-1.46-3.97-1.82-6.05-2.54-4.61-1.58-8.46-5.22-10.28-9.73-1.82-4.5-1.58-9.79.63-14.11l7.31-14.89c-2.27-1.43-2.82-4.76-1.59-7.14 1.23-2.38 3.84-3.83 6.49-4.25 3.84-.62 7.95.74 10.66 3.52 1.46 1.5 2.65 3.46 4.64 4.15 1.75.6 3.68.06 5.51.3 2.46.32 4.56 2.06 5.82 4.18 1.26 2.12 1.78 4.6 2.07 7.05.27 2.25.44 4.72 2.01 6.36 0 0 2.42 2.19 2.42 4.7 0 5.76-5.51 4.67-5.75 6.78-.46 4.12 1.29 6.07-2.77 8.62 0 0 .74 1.84-2.03 5.07-2.77 3.22-5.68 2.84-5.68 2.84l-5.41 2.32z"/><path class="st9" d="M330.88 92.34a3.779 3.779 0 00-3.38 3.83l2.26 50.89c.09 6.01 8.91 9.39 15.37 9.24 6.52-.15 6.73-3.34 6.82-9.06.14-9.55.12-13.14.13-13.09 0 0 8.24-1.38 9.92-12.1.84-5.33.55-14.07.08-21.21-.42-6.43-4.71-14.3-11.14-13.61l-20.06 5.11z"/><path class="st6" d="M358.5 107.01c.03.73-.57 1.35-1.33 1.39-.76.04-1.4-.51-1.42-1.24-.03-.73.57-1.35 1.33-1.39.76-.04 1.39.51 1.42 1.24z"/><path class="st6" d="M360.19 105.79c-.17.18-1.22-.59-2.7-.58-1.48-.01-2.57.75-2.73.57-.08-.08.09-.4.57-.75.47-.34 1.26-.68 2.19-.68.92 0 1.7.34 2.15.69.45.34.6.66.52.75zM344.26 107.53c.03.73-.57 1.35-1.33 1.39-.76.04-1.4-.51-1.42-1.24-.03-.73.57-1.35 1.33-1.39.75-.04 1.39.52 1.42 1.24zM345.47 106.16c-.17.18-1.22-.59-2.7-.58-1.48-.01-2.57.75-2.73.57-.08-.08.09-.4.57-.75.47-.34 1.26-.68 2.19-.68.92 0 1.7.34 2.15.69.44.35.6.67.52.75zM351.01 116.67c-.01-.08.92-.24 2.41-.44.38-.04.74-.12.8-.37.09-.27-.07-.68-.26-1.12-.36-.91-.73-1.87-1.13-2.87-1.57-4.09-2.7-7.45-2.53-7.51.17-.06 1.57 3.2 3.14 7.29.38 1.01.74 1.97 1.08 2.89.14.43.39.92.2 1.48-.1.28-.38.49-.62.55-.24.07-.46.08-.64.09-1.51.08-2.44.09-2.45.01z"/><path class="st10" d="M352.08 134.16s-7.23.48-14.41-3.8c0 0 3.65 7.55 14.41 6.53v-2.73zM350.39 120.23c-.54-.7-1.47-1.09-2.4-.98-.64.07-1.29.38-1.68.9-.39.52-.47 1.27-.11 1.76.4.56 1.24.69 1.95.49.71-.2 1.32-.67 1.89-1.13.16-.13.32-.26.42-.44.1-.18.12-.41 0-.55"/><path class="st6" d="M345.86 103.5c-.23.36-1.63-.16-3.38-.35-1.74-.22-3.22-.05-3.37-.45-.06-.19.26-.5.9-.76.64-.25 1.6-.41 2.64-.29s1.94.5 2.5.89c.58.4.82.78.71.96zM360.12 102.97c-.28.37-1.59.17-3.1.34-1.52.12-2.78.55-3.11.24-.15-.15.01-.51.54-.89.52-.38 1.41-.75 2.46-.84 1.05-.1 1.98.1 2.55.38.57.27.78.59.66.77zM336.78 86.44c-.01 2.14.98 4.27 2.64 5.65a7.466 7.466 0 006.05 1.59c1.64-.3 3.44-1.13 4.87-.25 1.5.92 1.56 3.16 2.88 4.31 1.9 1.64 4.91.1 7.32.81 1.86.55 3.02 2.32 4.26 3.81s3.08 2.9 4.94 2.36c-.12-1.66-.24-3.35-.74-4.94-.5-1.59-1.41-3.11-2.82-4.03-.77-.5-1.66-.8-2.38-1.38-1.54-1.24-1.9-3.4-2.85-5.13-1.23-2.23-3.6-3.8-6.14-4.06-2.12-.22-4.3.42-6.36-.1-1.52-.38-2.86-1.37-4.4-1.66-3.01-.57-5.8 1.58-7.98 3.72"/><path class="st6" d="M331.12 109.66c-.32-.09-1.61 1.8.46 2.27 3.61.81 4.09-6.22 3.28-8.23 1.31-1.16 2.63-2.33 3.63-3.8 1-1.47 1.88-5.47 1.66-7.28 1.3.08 6.85-1.75 6.26-1.92-1.35-.38-4.11-1.25-4.83-2.42-1.57-2.53-4.34-4.26-7.17-4.1-2.83.15-5.55 2.38-6.12 5.36-3.42.03-6.76 2.17-8.41 5.39-1.64 3.22-1.52 7.4.3 10.51.48.81 1.09 1.63 1.1 2.59.02 1.19-.87 2.14-1.49 3.12-1.7 2.69-1.58 6.38-.26 9.31 1.32 2.93 2.25 3.96 4.12 4.54 3.67 1.15-.59 8.68 5.52 8.68"/><path class="st9" d="M331.27 112.6c-.11-2.28-2.61-3.8-4.59-2.66-1.09.63-1.92 1.89-1.82 4.31.27 6.45 6.72 4.86 6.72 4.67 0-.11-.18-3.65-.31-6.32z"/><path class="st10" d="M329.49 116.56c-.03-.02-.11.08-.3.18-.18.09-.5.16-.84.05-.69-.22-1.32-1.28-1.4-2.44-.04-.59.06-1.15.25-1.62.18-.48.47-.82.81-.9.34-.09.59.1.68.28.09.18.06.31.09.32.02.02.13-.11.07-.38a.651.651 0 00-.27-.39c-.16-.12-.39-.17-.63-.14-.5.06-.93.53-1.14 1.05-.24.52-.36 1.16-.32 1.82.1 1.3.81 2.49 1.76 2.72.46.1.84-.05 1.03-.21.21-.19.24-.33.21-.34z"/><path class="st11" d="M337.49 88.96c.05.07-.65.18-1.29 1.08-.64.88-.88 2.56-.48 4.46l.03.16-.16.04c-1.6.4-3.37 1.67-4.17 3.66-.19.49-.32 1.04-.34 1.57 0 .55.1 1.12.2 1.71.1.59.23 1.19.25 1.84.04.63-.13 1.36-.51 1.9-.81 1.22-2.1 1.82-3.21 2.41-1.14.57-2.2 1.14-3.01 1.96-1.64 1.61-2.37 3.69-2.42 5.41a8.49 8.49 0 00.85 3.99c.43.88.79 1.3.76 1.33-.01.01-.11-.09-.28-.29-.16-.21-.4-.52-.64-.96a8.212 8.212 0 01-1.02-4.08c.01-1.79.74-3.99 2.45-5.7.84-.87 1.97-1.5 3.1-2.06 1.11-.58 2.33-1.18 3.03-2.26.72-.98.4-2.26.21-3.42-.1-.59-.21-1.18-.2-1.79.02-.62.17-1.19.38-1.72.89-2.14 2.78-3.45 4.49-3.84l-.12.2c-.38-1.99-.08-3.73.65-4.65.35-.46.74-.7 1.01-.82.28-.09.43-.14.44-.13z"/><path class="st6" d="M350.29 122.36c-.11.14-1.16-.53-2.47-1.31-1.31-.79-2.39-1.4-2.33-1.56.06-.16 1.3.21 2.65 1.02 1.35.8 2.26 1.72 2.15 1.85z"/><path class="st11" d="M368.74 110.61c-.06-.19.71-.44 1.55-1.35.41-.46.83-1.1.99-1.89.16-.79.07-1.77-.41-2.63-.46-.84-1.39-1.48-2.66-2.18-.62-.36-1.33-.75-2.03-1.31a7.11 7.11 0 01-1.78-2.18c-.89-1.64-1.23-3.43-1.86-4.84-.32-.72-.71-1.38-1.2-1.85-.49-.47-1-.73-1.7-.81-1.42-.2-3.33.51-5.56.1-1.11-.22-2.07-.78-2.84-1.37-.77-.6-1.38-1.25-1.95-1.85-1.12-1.22-2.07-2.25-3.15-2.82a6.831 6.831 0 00-3.36-.8c-2.18.05-3.8 1.17-4.72 2.04-.94.89-1.32 1.58-1.5 1.49-.14-.05-.09-.9.72-2.14.41-.61 1.02-1.31 1.91-1.93.88-.61 2.06-1.14 3.44-1.3 1.37-.17 2.94 0 4.46.7 1.56.71 2.78 1.96 3.91 3.08 1.13 1.14 2.28 2.17 3.56 2.39.64.12 1.41.06 2.3-.05.89-.1 1.9-.26 3.07-.13 1.18.1 2.43.72 3.22 1.56.82.83 1.33 1.77 1.71 2.67.75 1.86 1.01 3.49 1.65 4.75.31.63.66 1.12 1.13 1.54.48.43 1.06.82 1.67 1.22.61.4 1.24.83 1.81 1.35.57.52 1.07 1.17 1.37 1.86.6 1.37.54 2.77.15 3.85-.4 1.09-1.1 1.81-1.73 2.25-1.25.86-2.16.73-2.17.58z"/><path class="st0" d="M328.42 130.92l-1.84 6.94s-9.22 13.26-10.65 15.51c-1.43 2.24-4.71 10.61-5.12 14.69-.41 4.08 14.34 62.03 14.34 61.42 0-.61 42.4 12.04 42.4 12.04l8.65-7.81s1.46-18.89.64-20.53c-.82-1.63-.9-26.55-3.15-35.74-2.25-9.18-20.07-29.68-20.07-29.68l-1.63-4.54-.04 4.48-23.53-16.78z"/><path class="st0" d="M324.11 158.59c-3.05 6.43-2.31 14 1.88 19.76 6.68 9.17 16.29 22.18 17.05 22.18 1.18 0 24.92-21.9 24.92-21.9s-13.16-20.67-20-25.23c-3.22-2.15-13.27-6.2-17.66-3.92-1.93.99-4.22 4.96-6.19 9.11z"/><path class="st6" d="M332.07 148.81c-.2-.02 0-1.76.52-3.8.51-2.05 1.05-3.67 1.17-3.65.17.04-.15 1.73-.66 3.77-.53 2.05-.94 3.68-1.03 3.68z"/><path class="st6" d="M351.96 147.71c-.02.02-.29-.13-.78-.44-.56-.37-1.26-.82-2.11-1.38l.23-.11c-.03.86.17 1.9.4 3.06.21 1.17.57 2.46.54 3.96l-.01.47-.37-.31c-1.99-1.64-4.34-3.46-6.9-5.3-4.31-3.08-8.38-5.64-11.38-7.37-1.5-.87-2.74-1.54-3.59-2.01-.86-.46-1.32-.72-1.31-.76.02-.03.51.17 1.4.58.88.41 2.15 1.03 3.68 1.87 3.07 1.66 7.18 4.17 11.51 7.27 2.57 1.84 4.93 3.69 6.9 5.37l-.38.16c.04-1.37-.28-2.69-.46-3.86-.2-1.17-.37-2.23-.31-3.15l.02-.27.21.16c.82.6 1.5 1.1 2.03 1.49.46.35.7.55.68.57z"/><path class="st9" d="M347.01 197.19c-.02-.03-.03-.03-.04-.05.02.02.04.05.04.05zM346.97 197.14c-.04-.05-.07-.08 0 0zM385.69 192.32c-2.79-1.76-7.49-.59-7.49-.59l-11.67-11.79-19.52 17.24c1.99 2.4 15.93 13.88 20.95 15.47 5.53 1.76 11.7.73 13.76-2.19s5.29-7.32 5.29-7.32 1.47-9.06-1.32-10.82z"/><path class="st9" d="M378.54 177.38l5.89 4.14s5.41.58 7.53 5.48c2.12 4.91 2.56 15.68-4.56 15.87l-16.1-11.74v-9.04l7.24-4.71z"/><path class="st10" d="M390.33 186.11c-.06.07-.9-.67-2.47-1.5-1.56-.83-3.91-1.68-6.61-1.77-2.7-.08-5.11.62-6.71 1.35-1.62.73-2.51 1.41-2.56 1.34-.02-.03.18-.22.58-.53.4-.31 1.01-.72 1.82-1.13 1.6-.84 4.08-1.63 6.89-1.54 2.8.09 5.23 1.03 6.77 1.97.78.47 1.37.91 1.75 1.25.38.32.57.53.54.56z"/><path class="st0" d="M373.76 180.48l6.61-4.36-23.36-24.32z"/><path class="st6" d="M329.08 182.58c.01-.01.1.1.27.3.19.23.44.53.75.92.67.84 1.62 2.04 2.83 3.56 2.46 3.12 5.96 7.59 10.26 13.05l-.29-.03c.88-.74 1.8-1.5 2.74-2.28.93-.79 1.86-1.65 2.82-2.51 1.93-1.72 3.95-3.54 6.06-5.42 4.22-3.77 8.77-7.83 13.54-12.09l-.04.34c-1.18-1.77-2.46-3.63-3.79-5.49-2.53-3.53-5.13-6.89-7.75-10.05-1.31-1.58-2.62-3.11-3.92-4.58-1.31-1.47-2.62-2.88-4.03-4.11-1.41-1.23-2.92-2.27-4.52-2.99-1.61-.73-3.28-1.19-4.9-1.54-1.63-.33-3.23-.68-4.75-.79-1.53-.13-3 .19-4.2.9-1.22.69-2.18 1.65-2.99 2.63s-1.47 1.99-2.04 2.96a25.03 25.03 0 00-2.31 5.29c-.46 1.52-.69 2.74-.82 3.57-.06.39-.1.7-.14.94-.03.21-.05.32-.06.32 0 0-.03-1.79.83-4.89.45-1.54 1.13-3.39 2.25-5.37.57-.99 1.22-2.02 2.04-3.03.82-1 1.8-2 3.07-2.74 1.25-.76 2.83-1.11 4.41-.98 1.58.11 3.17.44 4.82.77 1.65.35 3.35.8 5 1.55 1.66.74 3.21 1.8 4.65 3.05 1.44 1.25 2.77 2.67 4.09 4.14 1.31 1.48 2.63 3.01 3.94 4.59 2.63 3.16 5.24 6.53 7.78 10.07 1.34 1.86 2.62 3.72 3.79 5.5l.12.19-.17.15c-4.78 4.25-9.34 8.3-13.57 12.06-2.12 1.88-4.15 3.68-6.08 5.4-.97.85-1.9 1.7-2.84 2.49-.95.78-1.87 1.53-2.76 2.27l-.16.13-.13-.16c-4.24-5.51-7.7-10.01-10.12-13.16-1.18-1.55-2.1-2.76-2.75-3.62l-.71-.95c-.15-.24-.23-.36-.22-.36z"/><path class="st10" d="M387.01 203.15c-.04-.01.13-.5.3-1.41.09-.45.09-1 .09-1.67-.02-.66.06-1.43.06-2.24-.02-1.61-.36-3.65-1.7-5.32-1.32-1.65-3.76-2.63-6.19-2.26-.89.13-1.73.44-2.43.9l-.18.12-.15-.15c-3.1-3.17-5.82-5.98-7.75-8.02-.91-.97-1.66-1.78-2.26-2.41-.52-.57-.8-.9-.77-.92.02-.02.34.26.91.79.62.61 1.42 1.38 2.37 2.3 2 1.97 4.76 4.74 7.88 7.89l-.32-.04c.76-.5 1.68-.84 2.63-.98 2.61-.4 5.22.67 6.64 2.48 1.42 1.82 1.72 3.96 1.7 5.62-.02.85-.13 1.58-.14 2.24-.02.65-.05 1.25-.18 1.7-.11.46-.25.8-.33 1.03-.11.24-.16.35-.18.35z"/><path class="st6" d="M357.01 152.52c.03-.02.37.36.96 1.08.59.71 1.43 1.76 2.46 3.06 2.03 2.62 4.84 6.26 7.33 10.7 1.24 2.22 2.25 4.44 2.88 6.56.66 2.11.82 4.17.68 5.81l-.15 3.92c-.05.93-.09 1.44-.13 1.44-.04 0-.06-.51-.08-1.44 0-1.02-.01-2.34-.01-3.92.09-1.67-.11-3.6-.77-5.67-.64-2.07-1.65-4.25-2.88-6.44-2.46-4.39-5.22-8.06-7.17-10.73-.94-1.27-1.72-2.33-2.32-3.16-.54-.76-.83-1.19-.8-1.21zM343.02 214.03c.16-.05 1.06 3.04 3.06 6.43 1.97 3.4 4.22 5.71 4.1 5.82-.05.05-.67-.47-1.55-1.44-.88-.96-1.99-2.4-3.01-4.12-1.01-1.73-1.71-3.4-2.12-4.64-.4-1.24-.55-2.03-.48-2.05zM355.71 227.52c-.14.04-.84-1.86-1.57-4.24-.73-2.38-1.21-4.35-1.08-4.39.14-.04.84 1.86 1.57 4.24.74 2.38 1.22 4.35 1.08 4.39z"/><path class="st3" d="M339.91 161.42c.16-.26 2.94 5.71 2.94 5.71s1.37 3.94-3.31 6.18c-4.96 2.38-7.05-2.41-7.05-2.41l-2.05-4.38s3.51-.65 3.61-4.35c.01 0 3.99 2.24 5.86-.75z"/><path class="st11" d="M370.2 438.93l-1.39 20.98s20.88 6.93 21 10.83l-40.8.3.82-32.78 20.37.67z"/><path class="st6" d="M349.01 471.04l.08-3.3 39.41 1.09s1.31.57 1.52 2.22l-41.01-.01zM374.9 272.31l1.81-34.24-53.12-1.96s-6.79 15.99-8.4 22.2c-1.61 6.21-2.66 14.19-.59 22.01 2.07 7.82 17.03 33.91 17.03 33.91l14.28 144.13h32.46l-3.47-186.05z"/><path class="st6" d="M374.6 244.03c.39 3.9 30.21 96.08 26.84 110.13-3.37 14.05-27.54 80.05-27.54 80.05l.7-190.18z"/><path class="st11" d="M375.43 250.13c.14 0 .56 38.6.92 86.21.36 47.62.54 86.22.4 86.22s-.56-38.59-.92-86.22c-.37-47.61-.55-86.21-.4-86.21zM365.88 458.36c-.14.01-1.9-45.2-3.93-100.95-2.03-55.77-3.55-100.97-3.41-100.98.14-.01 1.9 45.19 3.93 100.96 2.03 55.75 3.55 100.97 3.41 100.97zM356.87 242.09c.04 0-.01.5-.13 1.4-.15.89-.39 2.18-.89 3.73-.94 3.09-2.93 7.23-6.3 10.89-3.33 3.66-7.27 6.16-10.48 6.89-1.59.39-2.95.31-3.84.14-.45-.1-.79-.19-1.01-.29-.22-.09-.34-.14-.33-.16.02-.05.49.12 1.37.24.88.1 2.19.12 3.72-.3 3.08-.79 6.91-3.29 10.18-6.88 3.3-3.6 5.31-7.63 6.33-10.65 1.07-3.03 1.26-5.03 1.38-5.01z"/><path class="st11" d="M390.04 346.44c-.02.17-3.2-.58-7.09.03-3.9.56-6.71 2.21-6.78 2.06-.03-.05.63-.53 1.81-1.1 1.18-.57 2.91-1.17 4.9-1.47 1.99-.3 3.82-.23 5.11-.03 1.29.18 2.06.45 2.05.51zM340 326.4c-.07.03-.62-.94-1.5-2.5-.88-1.57-2.11-3.72-3.52-6.07-1.41-2.35-2.74-4.44-3.71-5.96-.97-1.51-1.57-2.46-1.5-2.5.06-.04.76.83 1.81 2.29a92.81 92.81 0 013.85 5.9 95.07 95.07 0 013.4 6.17c.8 1.61 1.23 2.64 1.17 2.67zM323.56 222.39c-.82-.27-1.31 15.16-1.31 15.16s26.82 5.23 54.42 1.16l.71-13.48c.01.01-23.89 7.11-53.82-2.84z"/><path class="st11" d="M344.37 257.38c-2.65 0-4.8-2.15-4.8-4.8v-19.96a4.801 4.801 0 019.6 0v19.96c0 2.65-2.15 4.8-4.8 4.8z"/><path class="st6" d="M344.37 257.38c0-.03.25-.03.7-.11.45-.08 1.12-.27 1.85-.75.71-.48 1.49-1.29 1.86-2.46.2-.59.25-1.22.22-1.94-.01-.72-.01-1.47-.02-2.26-.02-3.19-.03-6.96-.06-11.13-.02-2.08.01-4.32-.04-6.55a4.612 4.612 0 00-1.44-2.88 4.544 4.544 0 00-3.08-1.21c-1.15 0-2.26.45-3.08 1.21-.82.76-1.33 1.8-1.44 2.88-.05 2.23-.02 4.47-.04 6.55-.02 4.18-.04 7.95-.06 11.13-.01.79-.01 1.54-.02 2.26-.02.72.03 1.36.22 1.94.37 1.17 1.15 1.98 1.86 2.46.73.48 1.4.67 1.85.75.48.08.73.08.72.11 0 0-.25.05-.72-.01-.47-.05-1.17-.2-1.94-.68-.76-.47-1.6-1.3-2.03-2.54-.22-.61-.29-1.33-.28-2.03-.01-.72-.01-1.47-.02-2.26-.02-3.19-.03-6.96-.06-11.13 0-2.11-.04-4.27.01-6.6.12-1.2.68-2.37 1.6-3.21.91-.85 2.15-1.35 3.43-1.35 1.28 0 2.52.5 3.43 1.35.91.84 1.48 2.01 1.59 3.21.05 2.33.01 4.49.01 6.6-.02 4.18-.04 7.94-.06 11.13-.01.79-.01 1.54-.02 2.26.01.71-.05 1.43-.28 2.04a4.826 4.826 0 01-2.03 2.54c-.77.48-1.48.63-1.94.68-.44.05-.69 0-.69 0z"/><path class="st11" d="M344.36 236.3c-.57.08-1.07.55-1.14 1.12-.07.57.32 1.17.88 1.3.56.12 1.36-.38 1.43-.95.07-.57-.16-1.37-1.17-1.47"/><path class="st6" d="M344.36 236.3c0-.03.11-.07.31-.04.2.02.51.11.77.42.25.31.4.76.28 1.31-.2.54-.69.91-1.31 1.01-.69.07-1.2-.45-1.36-.94-.19-.51 0-1.03.25-1.31.53-.6 1.08-.5 1.06-.45.02.08-.43.15-.76.66-.16.25-.24.59-.09.93.13.33.49.64.85.59.39-.04.8-.35.91-.64.1-.32.03-.72-.12-.94-.32-.49-.82-.51-.79-.6z"/><path class="st11" d="M339.38 241.71c2.86 1.96 6.78 2.26 9.9.76"/><path class="st6" d="M349.28 242.46c.03.05-.46.4-1.37.72-.9.32-2.23.57-3.7.46-1.47-.12-2.75-.57-3.59-1.02-.85-.46-1.28-.87-1.24-.92.08-.15 2.04 1.23 4.87 1.42 2.83.25 4.98-.81 5.03-.66z"/><path class="st11" d="M329.81 284.3a4.973 4.973 0 01-4.9-5.05l.86-55.74c.04-2.75 2.3-4.94 5.05-4.9 2.75.04 4.94 2.3 4.9 5.05l-.86 55.74a4.973 4.973 0 01-5.05 4.9z"/><path class="st6" d="M329.81 284.3c0-.04.51.01 1.42-.24.87-.27 2.24-.96 3.02-2.58.42-.8.53-1.78.5-2.88l.03-3.58c.03-2.57.06-5.49.1-8.72.08-6.47.18-14.15.3-22.68.06-4.27.13-8.75.19-13.4.02-2.31.09-4.71.08-7.06-.1-1.13-.63-2.23-1.47-3.02a4.758 4.758 0 00-3.15-1.28c-1.17-.02-2.33.41-3.19 1.18a4.75 4.75 0 00-1.57 2.97c-.09 2.34-.09 4.75-.14 7.06-.08 4.65-.15 9.13-.22 13.4-.15 8.53-.29 16.22-.41 22.68-.06 3.22-.12 6.14-.17 8.71-.03 1.28-.05 2.47-.08 3.57-.06 1.1.01 2.08.41 2.9a4.963 4.963 0 002.94 2.67c.9.3 1.42.26 1.41.3 0 0-.51.07-1.44-.18a5.03 5.03 0 01-3.1-2.69c-.43-.82-.52-1.9-.47-2.98l.03-3.57c.03-2.57.06-5.49.1-8.71.08-6.47.18-14.15.3-22.69.06-4.27.13-8.75.19-13.4.05-2.33.04-4.66.13-7.11.15-1.26.78-2.46 1.74-3.3a5.26 5.26 0 013.54-1.31c1.3.02 2.57.54 3.5 1.42.94.87 1.52 2.09 1.63 3.35.02 2.45-.06 4.78-.09 7.11-.08 4.64-.15 9.13-.22 13.39-.15 8.53-.29 16.22-.41 22.68-.06 3.22-.12 6.14-.17 8.71-.03 1.28-.05 2.47-.08 3.57.02 1.08-.11 2.16-.56 2.97a5.018 5.018 0 01-3.18 2.59c-.93.24-1.44.15-1.44.15z"/><path class="st11" d="M358.84 256.8c-2.65 0-4.8-2.15-4.8-4.8v-19.96a4.801 4.801 0 019.6 0V252a4.808 4.808 0 01-4.8 4.8z"/><path class="st6" d="M358.84 256.8c0-.03.25-.03.7-.11.45-.08 1.12-.27 1.85-.75.71-.48 1.49-1.29 1.86-2.46.2-.59.25-1.22.22-1.94-.01-.72-.01-1.47-.02-2.26-.02-3.19-.03-6.96-.06-11.13-.02-2.08.01-4.32-.04-6.55a4.612 4.612 0 00-1.44-2.88 4.544 4.544 0 00-3.08-1.21c-1.15 0-2.26.45-3.08 1.21-.82.76-1.33 1.8-1.44 2.88-.05 2.23-.02 4.47-.04 6.55-.02 4.18-.04 7.95-.06 11.13-.01.79-.01 1.54-.02 2.26-.02.72.03 1.36.22 1.94.37 1.17 1.15 1.98 1.86 2.46.73.48 1.4.67 1.85.75.47.09.72.09.72.11 0 0-.25.05-.72-.01-.47-.05-1.17-.2-1.94-.68-.76-.47-1.6-1.3-2.03-2.54-.22-.6-.29-1.33-.28-2.03-.01-.72-.01-1.47-.02-2.26-.02-3.19-.03-6.96-.06-11.13 0-2.11-.04-4.27.01-6.6.12-1.2.68-2.37 1.6-3.21.91-.85 2.15-1.35 3.43-1.35 1.28 0 2.52.5 3.43 1.35.91.84 1.48 2.01 1.59 3.21.05 2.33.01 4.49.01 6.6-.02 4.18-.04 7.94-.06 11.13-.01.79-.01 1.54-.02 2.26.01.71-.05 1.43-.28 2.04a4.826 4.826 0 01-3.97 3.22c-.45.05-.69 0-.69 0z"/><path class="st11" d="M358.82 234.76c-.57.08-1.07.55-1.14 1.12-.07.57.32 1.17.88 1.3.56.12 1.36-.38 1.43-.95.07-.56-.16-1.36-1.17-1.47"/><path class="st6" d="M358.82 234.76c0-.03.11-.07.31-.04.2.02.51.11.77.42.25.31.4.76.28 1.31-.2.54-.69.91-1.31 1.01-.69.07-1.2-.45-1.36-.94-.19-.51 0-1.03.25-1.31.53-.59 1.08-.5 1.06-.45.02.08-.43.15-.76.66-.16.25-.24.59-.09.93.13.33.49.64.85.59.39-.04.8-.35.91-.64.1-.32.03-.72-.12-.94-.32-.48-.82-.5-.79-.6z"/><path class="st11" d="M358.84 246.59c-.57.08-1.07.55-1.14 1.12-.07.57.32 1.17.88 1.3.56.12 1.36-.38 1.43-.95.08-.57-.15-1.37-1.17-1.47"/><path class="st6" d="M358.84 246.59c0-.03.11-.07.31-.04.2.02.51.11.77.42.25.31.4.76.28 1.31-.2.54-.69.91-1.31 1.01-.69.07-1.2-.45-1.36-.94-.19-.51 0-1.03.25-1.31.54-.6 1.08-.51 1.06-.45.02.08-.43.15-.76.66-.16.25-.24.59-.09.93.13.33.49.64.85.59.39-.04.8-.35.91-.64.1-.32.03-.72-.12-.94-.32-.49-.82-.51-.79-.6z"/><path class="st11" d="M215.55 433.01l-6.82 27.08-11.57 19.86a2.874 2.874 0 001.2 4.01c.83.41 1.8.4 2.62-.04l26.17-16.25 7.58-27.06-19.18-7.6z"/><path class="st6" d="M200.97 483.92l26.17-16.25 1.12-4.01-30.11 20.2c0-.01 1.45.87 2.82.06z"/><path class="st11" d="M287.22 439.03l-1.4 21.17s21.07 6.99 21.19 10.93l-41.17.3.83-33.07 20.55.67z"/><path class="st6" d="M265.85 471.43l.08-3.33 39.76 1.1s1.32.57 1.53 2.24l-41.37-.01z"/><path class="st12" d="M191.22 125.8c-.78-1.34-.99-2.42-.64-4.78.35-2.36 2.4-19.13 2.66-20.48.5-2.61 2.41-3.28 2.65-1.37.24 1.91.33 9.46.81 9.58.48.12.96-12.11 2.02-13.49 1.06-1.38 1.89-1.38 2.36-.79.47.59.59 1.01.59 1.01s.85-1.48 1.83-1.39c1.77.17 1.8 2.35 1.8 2.35l.14 5.18s.15-4.17 1.34-4.74c.67-.32 1.6-.11 1.96 1.16.35 1.27 0 6.34 0 6.69 0 .35.16 13.57.16 13.57s1.39-1.64 2.38-4.07c.69-1.67 1.82-2.3 3.24-1.95 1.42.35 1.53 1.77 1.06 2.83s-1.42 4.3-1.42 4.3l-2.47 4.84-8.52 7.63-3.08 6.97s-9.87-1-11.05-6.3l2.18-6.75z"/><path class="st13" d="M205.31 116.71c.05.09-1.15.52-2.57 1.89-1.39 1.33-2.96 3.78-3.01 6.78.01.27.01.53.02.78l-.51.08c-.62-2.76-1.74-5.07-2.7-6.62-.96-1.56-1.69-2.41-1.63-2.47.02-.02.24.17.58.55.35.38.82.96 1.35 1.73 1.05 1.52 2.26 3.86 2.91 6.7l-.51.08c-.01-.26-.02-.54-.02-.83.03-1.57.47-3.03 1.1-4.23.63-1.2 1.43-2.14 2.19-2.81.76-.67 1.48-1.09 1.99-1.33.49-.25.79-.33.81-.3zM205.12 111.87c0 .15-2.23.29-4.93.74-2.71.44-4.86 1.03-4.91.88-.05-.13 2.07-.95 4.82-1.4 2.75-.45 5.02-.35 5.02-.22zM201.21 110.86c-.14 0-.16-3.49-.04-7.78s.33-7.77.48-7.77c.14 0 .16 3.49.04 7.78-.13 4.3-.34 7.77-.48 7.77zM204.98 110.74c-.14 0-.19-3.07-.1-6.86.09-3.79.28-6.85.42-6.85.14 0 .19 3.07.1 6.86-.09 3.79-.27 6.85-.42 6.85z"/><path class="st6" d="M243.6 240.79c-.06.12-1.97-.89-3.79-2.79-1.83-1.89-2.77-3.83-2.65-3.89.13-.08 1.24 1.69 3.02 3.53 1.78 1.85 3.51 3.02 3.42 3.15zM277.91 229.51c.02-.08 1.24.17 3.24.43s4.77.46 7.84.31c3.06-.16 5.81-.63 7.77-1.08 1.96-.45 3.16-.83 3.18-.75.01.03-.27.16-.8.37s-1.31.46-2.29.74c-1.95.55-4.73 1.09-7.83 1.25-3.1.15-5.92-.11-7.92-.47-1-.17-1.8-.35-2.35-.51-.55-.16-.85-.26-.84-.29z"/><path class="st6" d="M289.19 454.46l13.42-180.79.62-46.51-74.37 6-24.6 222.47 29.51-.75 30.1-186.64-1.43 185.35z"/><path class="st11" d="M247.62 261.7c.14.02-6.21 42.93-14.19 95.82-7.98 52.91-14.56 95.78-14.7 95.76-.14-.02 6.21-42.92 14.19-95.83 7.98-52.9 14.56-95.77 14.7-95.75zM277.22 453.28s-.01-.17.01-.5c.02-.35.05-.83.08-1.46.09-1.3.21-3.18.37-5.59.33-4.88.8-11.9 1.38-20.57 1.14-17.37 2.59-41.37 3.88-67.9 1.28-26.54 2.14-50.57 2.68-67.97.26-8.68.46-15.72.61-20.6.07-2.41.13-4.3.17-5.6.02-.62.04-1.11.06-1.46.02-.33.04-.5.04-.5s.01.17.02.5c0 .35 0 .83-.01 1.46-.02 1.3-.04 3.19-.07 5.6-.07 4.87-.22 11.91-.44 20.61-.44 17.4-1.25 41.44-2.53 67.98-1.28 26.53-2.79 50.53-4.03 67.9-.62 8.68-1.15 15.71-1.54 20.56-.2 2.41-.36 4.29-.47 5.59-.06.62-.1 1.1-.13 1.45-.05.33-.08.5-.08.5z"/><path class="st0" d="M251.57 120.42l-5.25 7.77s-16.77 2.16-19.43 3.38c-2.66 1.21-3.66 5.52-3.66 5.52l4.73 57.2s1.19 24.3 1.04 28.1c-.16 3.8 0 0 0 0s0 3.8-.16 6.53c-.15 2.73.45 7.59.45 7.59s21.41 5.33 23.23 5.18c1.82-.15 10.94-2.12 10.94-2.12l27.49-1.04 8.81-2.88 1.67-4.71-1.06-1.98s3.8-4.4 4.11-6.68c.31-2.28-1.04-24.76-1.04-24.76l.01-6.53 3.85-58.01s-4.85-3.11-7.56-3.6c-7.58-1.38-14.26-3.29-14.26-3.29l-7.25-8.32-26.66 2.65z"/><path class="st6" d="M262.96 145.91c.01 0 .01.08 0 .24-.01.19-.03.42-.05.7-.06.66-.15 1.56-.25 2.7-.24 2.34-.54 5.73-.86 9.93-.33 4.19-.62 9.19-.85 14.75-.2 5.56-.32 11.67-.26 18.09.07 6.42.3 12.53.61 18.08.33 5.55.72 10.55 1.13 14.73.4 4.19.77 7.57 1.05 9.91.13 1.14.23 2.03.3 2.69.03.28.05.51.07.7.01.16.01.24 0 .24s-.03-.08-.06-.23c-.03-.19-.07-.42-.12-.7-.1-.66-.23-1.55-.4-2.68-.35-2.33-.77-5.71-1.22-9.9-.46-4.19-.88-9.18-1.24-14.74-.33-5.56-.58-11.68-.65-18.11-.05-6.43.08-12.55.3-18.11.25-5.56.58-10.57.96-14.76.37-4.19.73-7.58 1.03-9.92.15-1.13.26-2.03.35-2.69.04-.28.08-.51.1-.7.04-.14.05-.22.06-.22z"/><path class="st0" d="M261.39 146.94l16.78 22.35s2.28 3.77 6.39 9.04c4.11 5.26 18.39 15.33 21.36 15.91 2.97.57 8.23 1.15 11.55-4.79s4.7-18.86 4.7-18.86L307.29 133s-5.66 3.28-8.41 8.65c-2.75 5.37-2.95 16.69-2.95 16.69l-15.78-14.2-6.92-8.23-11.84 11.03z"/><path class="st6" d="M305.93 170.53c-.05.04-.72-.67-1.45-2.06-.75-1.37-1.42-3.43-2.48-5.49-.54-1.03-1.17-1.94-1.88-2.63a7.137 7.137 0 00-2.17-1.46c-1.4-.57-2.39-.36-2.39-.46-.01-.03.23-.12.67-.15.44-.04 1.1.01 1.85.27s1.6.73 2.37 1.45c.78.72 1.45 1.68 2 2.74 1.09 2.14 1.69 4.19 2.35 5.57.64 1.4 1.2 2.18 1.13 2.22zM280.15 144.13c.05.02-.24.93-.97 2.27-.73 1.34-1.95 3.1-3.67 4.7a18.45 18.45 0 01-4.98 3.29c-1.4.61-2.33.82-2.35.76-.09-.17 3.61-1.28 6.98-4.43 3.39-3.12 4.83-6.69 4.99-6.59zM266.55 146.83c-.01-.03.12-.1.38-.16.25-.05.68-.12 1.15.14.45.27.82.84.84 1.53.05.7-.47 1.5-1.27 1.71-.39.12-.81.1-1.17-.06-.36-.16-.63-.42-.81-.72-.38-.6-.27-1.31-.05-1.74.21-.46.57-.73.85-.8.28-.07.43-.01.42.02.03.07-.66.08-.94.92-.14.4-.18.9.12 1.34.28.44.85.72 1.42.53.58-.17.94-.69.94-1.21.01-.52-.25-1-.56-1.22-.32-.23-.69-.24-.93-.25-.24.01-.39.01-.39-.03z"/><path class="st0" d="M188.12 130.26l-5.48 9.64-3.42 1.19s-14.71 22.28-6.52 29.51 21.6 6.84 26.22 4.62c4.62-2.22 28.18-12.88 28.18-12.88l-.22-30.77s-7.14 3.43-12.07 7.64c-2.94 2.51-17.06 10.62-17.06 10.62l4.19-12.76-13.82-6.81zM244.87 129.88c.03 3.61-1.01 7.22-2.94 10.27 4.71-1.86 9.07-4.62 12.75-8.09 1.5 2.1 3.35 3.94 5.45 5.43-1.23-3.06-3.4-5.62-5.25-8.35-1.84-2.73-3.42-5.88-3.18-9.16l-6.83 9.9z"/><path class="st6" d="M286.4 199.76c.03.02-.31.53-.95 1.44-.31.46-.71 1.01-1.21 1.62-.49.62-1.03 1.34-1.7 2.08-1.29 1.52-2.94 3.22-4.88 5.01a65.62 65.62 0 01-6.72 5.3c-2.52 1.7-5.05 3.12-7.41 4.29-2.37 1.14-4.57 2.05-6.46 2.68-.93.35-1.8.59-2.56.82-.75.24-1.41.4-1.96.53-1.08.26-1.68.38-1.69.35-.01-.03.58-.23 1.64-.54.53-.15 1.18-.35 1.92-.61s1.6-.51 2.52-.89c1.86-.68 4.02-1.61 6.37-2.77a71.32 71.32 0 007.33-4.29c2.49-1.7 4.73-3.5 6.69-5.23 1.94-1.75 3.61-3.42 4.92-4.9.68-.72 1.24-1.42 1.75-2.01.52-.59.94-1.12 1.28-1.56.7-.87 1.09-1.35 1.12-1.32zM252.59 132.18c.02.01-.1.37-.46.96-.35.59-.99 1.37-1.91 2.18-1.81 1.67-4.8 3.29-7.9 5.26-.09.06-.17.11-.25.16l-.58.38.18-.66c.98-3.52 2.15-6.59 3.03-8.79.45-1.1.83-1.98 1.11-2.58.28-.6.47-.92.5-.9.03.02-.09.36-.31.98-.26.73-.58 1.6-.96 2.63-.79 2.23-1.9 5.31-2.87 8.79l-.4-.28c.08-.05.17-.11.25-.17 3.14-1.99 6.11-3.54 7.94-5.1 1.91-1.51 2.54-2.92 2.63-2.86zM229 222.39c-.02 0-.04-.25-.08-.73-.03-.53-.07-1.22-.13-2.09-.09-1.88-.21-4.49-.37-7.7-.14-3.27-.3-7.13-.48-11.42-.1-2.15-.15-4.41-.29-6.74-.19-2.33-.4-4.74-.6-7.22-1.58-19.25-2.72-33.05-2.95-35.84 0-.01.1.24.17.71.08.47.17 1.18.28 2.08.21 1.81.48 4.43.79 7.67.62 6.48 1.41 15.43 2.23 25.33.2 2.48.4 4.89.59 7.23.14 2.34.18 4.6.26 6.75.14 4.29.26 8.16.37 11.43.08 3.21.15 5.83.2 7.71.01.87.02 1.57.03 2.1 0 .47 0 .73-.02.73zM199.1 146.59c.08.04-.62 1.45-1.53 3.82-.9 2.37-1.96 5.72-2.6 9.53-.32 1.9-.52 3.74-.61 5.41-.12 1.67-.02 3.18-.25 4.48-.22 1.3-.91 2.23-1.52 2.64-.3.21-.57.32-.76.36-.19.05-.29.05-.29.03-.02-.05.39-.11.93-.56.53-.43 1.12-1.31 1.28-2.54.18-1.22.04-2.75.13-4.44.07-1.69.25-3.54.58-5.47a43.56 43.56 0 012.77-9.58c.5-1.18.95-2.1 1.29-2.73.35-.63.55-.97.58-.95z"/><path class="st6" d="M196.99 168.52c-.07 0-.17-1.04-.23-2.74-.06-1.7-.08-4.05.02-6.64s.3-4.93.49-6.62c.19-1.69.38-2.72.45-2.72.07.01.02 1.06-.08 2.75s-.24 4.03-.34 6.61c-.1 2.58-.14 4.92-.18 6.61-.02 1.7-.05 2.75-.13 2.75zM198.15 148c0 .06-1.02.06-2.64-.23-1.61-.29-3.81-.96-6.03-2.14-2.22-1.19-3.99-2.65-5.13-3.83-1.15-1.18-1.71-2.03-1.66-2.06.12-.13 2.65 3.12 7.04 5.43 4.35 2.37 8.46 2.66 8.42 2.83zM195.32 139.15c.07.05-.33.44-.18 1.17.07.34.29.75.68.94.38.2.91.08 1.28-.28.37-.36.51-.89.31-1.27-.18-.39-.58-.62-.92-.7-.72-.18-1.12.21-1.17.14-.02-.02.03-.15.23-.29.2-.14.55-.27 1-.22.43.05.98.28 1.29.85.33.57.13 1.38-.38 1.86-.49.49-1.3.67-1.87.34-.56-.32-.77-.88-.82-1.31-.04-.44.1-.8.24-.99.16-.21.3-.26.31-.24z"/><path class="st3" d="M247.15 153.31c.26-.15-.15 6.5-.15 6.5s-.69 4.16-5.92 3.91c-5.55-.27-5.09-5.53-5.09-5.53l.3-4.89s3.43 1.11 5.3-2.14c.01 0 2.46 3.92 5.56 2.15z"/><path class="st6" d="M308.28 135.51s.1.21.28.62c.18.44.43 1.05.76 1.84.66 1.64 1.62 4.01 2.85 7.03 2.44 6.12 5.94 14.87 10.2 25.51l.02.05-.01.06c-.66 3.73-1.36 7.69-2.1 11.85-.37 2.1-.99 4.23-2.04 6.21-.52.99-1.13 1.95-1.85 2.85-.36.44-.75.88-1.18 1.27-.45.42-.95.7-1.48.99-2.12 1.12-4.65 1.19-7.01.79-1.17-.22-2.42-.43-3.49-1.12-1.01-.66-2.04-1.33-3.06-2-4.1-2.69-8.25-5.59-12.09-9.03-3.05-2.69-5.7-5.71-8.12-8.78-2.43-3.07-4.65-6.19-6.76-9.27-4.21-6.17-8.06-12.1-11.99-17.32l-.12-.16.15-.14c4.3-3.99 8.26-7.67 11.87-11.02l.14-.13.13.14c6.84 6.95 12.4 12.6 16.26 16.53 1.9 1.95 3.39 3.47 4.41 4.53.49.51.87.9 1.14 1.19.25.27.37.42.37.42s-.15-.12-.42-.38c-.28-.28-.67-.66-1.18-1.15-1.04-1.04-2.55-2.54-4.49-4.46-3.89-3.9-9.49-9.51-16.39-16.41l.27.01c-3.59 3.36-7.54 7.06-11.82 11.06l.03-.3c3.96 5.23 7.83 11.16 12.04 17.31 2.11 3.07 4.33 6.18 6.75 9.24 2.41 3.06 5.04 6.05 8.06 8.71 3.82 3.41 7.94 6.3 12.03 8.99 1.02.67 2.04 1.33 3.05 1.99.97.64 2.15.84 3.31 1.06 2.3.39 4.71.32 6.7-.73.48-.26.99-.55 1.37-.91.41-.37.78-.79 1.13-1.22.7-.86 1.29-1.8 1.8-2.76 1.02-1.93 1.64-4.01 2.01-6.07.75-4.16 1.47-8.13 2.15-11.86l.01.12c-4.18-10.67-7.63-19.45-10.03-25.58-1.18-3.04-2.1-5.43-2.74-7.08-.3-.8-.54-1.42-.7-1.86-.15-.41-.22-.63-.22-.63z"/><path class="st0" d="M285.35 126.56c-.36 3.97-4.9 11.79-6.32 14 0 0-2.94-5.83-4.48-9l-.58 4.54c-1.23-1.11-.12-7.47-.31-7.41l4.32-10.87 7.37 8.74z"/><path class="st6" d="M277.34 117.88c0-.02.3-.08.87-.16h.03l.03.03c1.16 1.23 3.84 4.22 7.37 8.22l.07.08-.02.11c-.7 3.3-2.02 7.11-4.12 10.81-.74 1.32-1.53 2.56-2.33 3.74l-.27.39-.18-.44c-.94-2.25-2.12-4.26-3.08-6.16-.97-1.89-1.76-3.67-2.17-5.29l.33.03c-.79 1.78-1.44 3.24-1.93 4.33-.46 1.01-.73 1.57-.77 1.55s.18-.59.58-1.63c.45-1.11 1.05-2.6 1.79-4.41l.19-.48.14.51c.43 1.57 1.23 3.3 2.22 5.17.98 1.87 2.18 3.88 3.15 6.18l-.45-.05c.79-1.17 1.57-2.41 2.29-3.71a39.66 39.66 0 004.13-10.65l.05.2c-3.48-4.04-6.08-7.11-7.13-8.42l.06.02c-.54.04-.84.05-.85.03zM293.89 146.34c.14-.02.61 2.73 1.13 6.13.26 1.7.47 3.24.58 4.37.05.56.08 1.02.06 1.35-.01.16-.02.29-.08.39-.06.09-.15.01-.14 0-.01-.02-.01-.04-.01-.04.14.23-.01-.57-.2-1.64-.2-1.11-.47-2.64-.73-4.34-.52-3.42-.75-6.2-.61-6.22z"/><path class="st12" d="M264.85 135.45c-7.15.15-12.94-5.8-12.59-12.94.11-2.36.21-4.07.21-4.07s-9.89-1.28-10.26-11.13c-.37-9.85.77-32.51.77-32.51a34.25 34.25 0 0134.51 3.46l1.49 1.09-1.63 38.54s-4.35 14.38-7.65 16.47c-1.85 1.15-2.53 1.04-4.85 1.09z"/><path class="st13" d="M252.47 118.43s6.22.21 12.73-4.11c0 0-2.95 7.16-12.81 6.52l.08-2.41z"/><path class="st12" d="M278.02 89.57c.17-.08 6.72-2.17 6.67 4.57-.05 6.74-6.8 5.3-6.81 5.11-.02-.19.14-9.68.14-9.68z"/><path class="st13" d="M279.95 96.71c.03-.02.12.08.31.18.19.09.53.15.88.02.71-.26 1.32-1.38 1.36-2.6.02-.61-.1-1.2-.32-1.68-.2-.49-.52-.84-.88-.91a.592.592 0 00-.69.32c-.09.19-.05.32-.09.33-.02.02-.14-.11-.09-.39.03-.13.11-.29.27-.42.16-.13.4-.2.65-.17.52.04.98.52 1.22 1.05.26.54.42 1.19.39 1.88-.05 1.36-.76 2.62-1.73 2.9-.47.12-.87-.02-1.07-.19-.2-.16-.23-.31-.21-.32z"/><path class="st6" d="M246.77 90.5c-.01.74.62 1.36 1.39 1.38.77.02 1.41-.56 1.42-1.3.01-.74-.62-1.36-1.39-1.39-.77-.02-1.41.56-1.42 1.31zM245.19 88.61c.18.18 1.22-.64 2.74-.67 1.51-.06 2.64.69 2.8.51.08-.08-.11-.41-.6-.75s-1.31-.66-2.25-.63c-.94.03-1.73.4-2.17.76-.46.36-.61.7-.52.78zM261.49 90.5c-.01.74.62 1.36 1.39 1.39.77.02 1.41-.56 1.42-1.3.01-.74-.62-1.36-1.39-1.39-.77-.03-1.41.55-1.42 1.3zM260.08 88.51c.18.18 1.23-.64 2.74-.67 1.51-.06 2.64.69 2.8.51.08-.08-.11-.41-.6-.75-.48-.34-1.31-.66-2.25-.63-.94.03-1.73.4-2.17.76-.46.37-.61.7-.52.78zM254.87 99.88c0-.09-.94-.22-2.47-.38-.39-.03-.76-.1-.83-.36-.1-.28.05-.7.23-1.15.34-.94.7-1.93 1.07-2.97 1.48-4.23 2.54-7.7 2.37-7.76-.17-.06-1.51 3.32-2.99 7.55-.36 1.04-.7 2.04-1.02 2.99-.13.44-.37.95-.16 1.52.11.29.4.49.65.55.25.07.47.07.66.07 1.53.04 2.48.02 2.49-.06zM259.44 84.92c.19.4 1.67.06 3.46.11 1.79.01 3.26.39 3.46 0 .09-.19-.2-.55-.81-.89-.61-.34-1.56-.63-2.63-.65-1.07-.02-2.03.24-2.65.57-.62.31-.91.67-.83.86zM244.8 85.7c.28.36 1.49.09 2.91.17 1.43.04 2.61.41 2.91.07.13-.17-.03-.52-.54-.88-.5-.36-1.35-.68-2.33-.72-.98-.04-1.85.21-2.37.53-.51.31-.7.65-.58.83z"/><path class="st13" d="M259.09 103.07c-.39-.36-.93-.53-1.46-.56-.53-.02-1.06.08-1.57.21-.6.15-1.25.38-1.57.9-.22.36-.26.8-.19 1.22.07.41.14 1.91.96 2.28h3.54c.5-.47.73-1.5.85-2.17.12-.66-.06-1.41-.56-1.88z"/><path class="st6" d="M257.96 107.15c.02-.04.16.04.4-.01.24-.05.57-.24.71-.66.15-.4.17-1.02.21-1.64.03-.62-.06-1.31-.52-1.78-.43-.5-1.12-.33-1.76-.22-.65.12-1.2.22-1.62.41-.86.37-1.02 1.04-1.11 1-.03-.01-.03-.17.08-.44s.39-.63.86-.88c.46-.26 1.06-.41 1.69-.55.32-.07.67-.15 1.06-.16.4-.02.88.16 1.17.48.62.64.68 1.52.62 2.17-.08.66-.12 1.25-.35 1.76-.23.52-.73.74-1.03.72-.31-.02-.43-.19-.41-.2zM270.59 81.15c-.25 1.03-.5 2.13-.15 3.13s1.55 1.78 2.49 1.28c-.3 1.02-.49 2.1-.37 3.16s.59 2.11 1.41 2.79c.82.68 2.03.93 3 .49.97-.45 1.58-1.65 1.22-2.65.89.66 2.3.14 2.79-.86.49-1 .19-2.24-.49-3.12.98.08 1.85-.81 2.02-1.78.17-.97-.21-1.96-.75-2.78-.54-.82-1.23-1.53-1.79-2.34-.49-.7-.95-1.54-1.78-1.77-.66-.18-1.35.09-1.98.38-2.09.97-4.08 2.16-5.92 3.55M281.32 74.86s4.59.54 5.23-2.54c1.68-8.08-9.45-11.51-9.45-11.51s-3.9-1.03-10.27-3.39a41.71 41.71 0 01-7.09-3.43c-2.07-1.26-4.68-1.26-6.72.06-2.79 1.81-7.04 4.24-11.79 5.8 0 0-4.36 1.14-4.33 6.8.01 2.6 4.43 4.54 4.43 4.54l39.99 3.67z"/><path class="st11" d="M280.61 79.33l.75-4.72s-26.1-9.41-39.52-3.35v5.34l38.77 2.73z"/><path class="st6" d="M234.87 80.09s3.24 2.62 10.34 2.97c12.92.65 33.95-3.83 33.95-3.83l-37.31-2.63-6.98 3.49z"/><path class="st0" d="M259.28 63.61c.24-.14-.13 5.86-.13 5.86s-.62 3.76-5.34 3.54c-5.01-.24-4.6-4.99-4.6-4.99l.27-4.41s3.1 1 4.78-1.93c0-.01 2.22 3.53 5.02 1.93z"/><path class="st11" d="M280.48 79.52c0 .04-.39.12-1.1.25l-3.03.51c-2.56.41-6.1.99-10.03 1.55-3.93.56-7.5.93-10.1 1.1-1.3.08-2.35.13-3.08.13-.73.01-1.13 0-1.13-.04s.4-.09 1.12-.16c.83-.08 1.85-.18 3.06-.3 2.58-.25 6.14-.69 10.06-1.24 3.92-.55 7.47-1.07 10.05-1.39 1.29-.16 2.33-.28 3.06-.35.71-.08 1.11-.1 1.12-.06z"/><path class="st3" d="M254.17 105.9v6.83h3.84v-6.77z"/><path class="st12" d="M258.93 108.81s-.81.68-.68 2.75c.14 2.08 2.21 3.88 2.21 3.88v1.76l-6.55-7.36s-.63-1.04-1.58-.72c-.95.32-3.07 1.63-1.58 4.29 0 0-1.72.45-1.67 2.75 0 0-2.66-.86-2.66 2.21v1.85s-.95-.77-1.81 0c-.86.77-.68 2.98-.41 4.02.27 1.04 7.63 11.33 9.93 12.42 2.3 1.08 3.75 2.48 3.75 2.48l5.06 6.1 9.33-8.74s-5.67-5.66-6.03-6.74c-.36-1.08.72-4.47.63-5.78-.09-1.31-.68-6.32-.99-7.36-.31-1.04-6.95-7.81-6.95-7.81z"/><path class="st13" d="M262.95 145.25c-.01.01-.13-.12-.36-.38-.25-.29-.58-.67-1.01-1.16l-3.79-4.47.01.01c-.55-.5-1.2-.98-1.91-1.43-.36-.23-.74-.45-1.13-.66-.39-.2-.82-.39-1.24-.69-1.52-1.23-2.84-2.87-4.26-4.62-1.4-1.77-2.86-3.71-4.28-5.84-.35-.56-.72-1.03-1-1.75a8.1 8.1 0 01-.22-2.03c.03-.68.08-1.44.61-2.08.27-.3.66-.5 1.09-.5.42 0 .79.15 1.13.39l-.4.19v-1.46c-.01-.48 0-1.04.17-1.56.15-.53.56-1.06 1.13-1.26.56-.2 1.14-.18 1.7-.03l-.33.25a3.5 3.5 0 01.39-1.76c.31-.56.8-1.03 1.47-1.25l-.16.37c-.29-.53-.52-1.13-.54-1.78-.04-.66.24-1.33.67-1.82.44-.49.99-.85 1.63-1.07.36-.12.77-.06 1.09.12.32.18.56.42.76.73l-.03-.04c.05.06.11.12.17.19 2.18 2.45 4.31 4.85 6.38 7.17l-.45.17v-1.76l.09.19c-.98-.91-1.78-1.98-2.16-3.26-.17-.65-.18-1.3-.11-1.93.09-.64.22-1.27.75-1.82l.15-.16.17.18c1.67 1.72 3.26 3.4 4.74 5.05.73.83 1.45 1.62 2.07 2.52.17.26.24.55.28.8.05.26.09.51.14.77.07.51.15 1.01.22 1.5.13.99.24 1.94.34 2.87.05.46.09.92.13 1.37.05.44.05.93-.02 1.36-.23 1.72-.76 3.29-.65 4.67.05.31.27.58.47.86.2.27.41.53.62.78.42.49.81.95 1.19 1.37.76.82 1.41 1.53 1.95 2.12.52.55.92.99 1.23 1.31.28.3.42.46.41.47-.01.01-.17-.13-.46-.41-.32-.31-.74-.73-1.28-1.26-.55-.56-1.23-1.25-2-2.07-.39-.41-.8-.86-1.22-1.35-.21-.25-.43-.5-.64-.78-.2-.27-.46-.56-.54-.97-.13-1.53.39-3.06.59-4.76.13-.83-.06-1.71-.14-2.64-.11-.92-.23-1.88-.36-2.86-.07-.49-.15-.98-.23-1.49-.05-.25-.09-.5-.14-.75-.05-.26-.11-.48-.23-.66-.57-.83-1.31-1.64-2.04-2.45-1.48-1.63-3.08-3.3-4.75-5.01l.33.02c-.32.33-.51.94-.57 1.5-.06.58-.05 1.19.11 1.75.33 1.13 1.11 2.17 2.01 3.01l.09.08v2.54l-.45-.5c-2.06-2.32-4.2-4.72-6.38-7.17-.06-.06-.12-.13-.17-.19l-.01-.01-.02-.02c-.29-.44-.8-.79-1.26-.62-.53.17-1.03.5-1.39.91-.36.41-.57.93-.54 1.47.02.53.21 1.06.48 1.55l.15.28-.31.1c-.47.15-.91.54-1.16.99-.24.46-.34.99-.33 1.51l.01.34-.34-.1c-.44-.12-.95-.14-1.36.01-.41.15-.7.51-.83.94-.13.44-.15.9-.15 1.4v1.96l-.4-.31c-.48-.37-1.17-.4-1.55.06-.38.42-.47 1.13-.49 1.76-.02.65.06 1.3.2 1.91.19.51.6 1.09.92 1.61 1.4 2.12 2.84 4.06 4.22 5.84 1.4 1.75 2.72 3.4 4.16 4.6.19.13.37.25.57.36.21.1.42.21.62.32.4.22.79.45 1.15.68.72.48 1.37.97 1.93 1.5l.01.01v.01c1.58 1.94 2.82 3.47 3.69 4.55.4.5.71.9.95 1.2.16.25.26.39.25.4z"/><path class="st13" d="M255.41 119.12c-.11.09-1.28-1.18-2.6-2.83-1.32-1.65-2.3-3.07-2.19-3.16.11-.09 1.28 1.18 2.6 2.83 1.32 1.66 2.3 3.07 2.19 3.16zM251.91 120.46c-.1.1-1-.69-1.75-1.94-.76-1.24-1.06-2.4-.93-2.44.14-.05.64.98 1.37 2.17.73 1.2 1.42 2.11 1.31 2.21zM247.72 123.07c-.13.07-.58-.53-1-1.34-.43-.81-.67-1.52-.54-1.58s.58.53 1 1.34c.42.81.66 1.52.54 1.58z"/><path class="st6" d="M232.84 166.62h17.92v3.89h-17.92z"/><path class="st11" d="M225.97 224.73s.62 14.21 32.47 13.11c31.85-1.09 44.65-13.11 44.65-13.11v14.91s-34.53 13.72-58.38 10.27c-18.73-2.7-22.95-10.27-22.95-10.27l4.21-14.91z"/><path class="st11" d="M246.58 258.61c-2.67 0-4.84-2.17-4.84-4.84v-20.14c0-2.67 2.17-4.84 4.84-4.84s4.84 2.17 4.84 4.84v20.14c0 2.67-2.17 4.84-4.84 4.84z"/><path class="st6" d="M246.58 258.61c0-.03.25-.03.71-.11.46-.08 1.13-.27 1.86-.75.72-.48 1.5-1.3 1.88-2.49.2-.59.25-1.23.23-1.96-.01-.72-.01-1.48-.02-2.28-.02-3.22-.03-7.02-.06-11.23-.02-2.1.01-4.36-.04-6.61a4.6 4.6 0 00-1.45-2.9 4.581 4.581 0 00-3.11-1.22c-1.16 0-2.29.45-3.11 1.22a4.6 4.6 0 00-1.45 2.91c-.05 2.25-.02 4.51-.04 6.61-.02 4.21-.04 8.02-.06 11.23-.01.8-.01 1.56-.02 2.28-.02.73.03 1.37.23 1.96a4.804 4.804 0 003.74 3.24c.46.07.71.07.71.1 0 0-.25.05-.72-.01-.47-.05-1.18-.21-1.96-.69a4.893 4.893 0 01-2.04-2.56c-.23-.61-.29-1.34-.28-2.05-.01-.72-.01-1.48-.02-2.28-.02-3.22-.03-7.02-.06-11.23 0-2.12-.04-4.31.01-6.66.12-1.21.69-2.39 1.61-3.24a5.08 5.08 0 013.46-1.36c1.29 0 2.55.51 3.46 1.36.92.85 1.49 2.03 1.61 3.24.05 2.35.01 4.53.01 6.66-.02 4.21-.04 8.02-.06 11.23-.01.8-.01 1.56-.02 2.28.01.71-.06 1.44-.28 2.05a4.9 4.9 0 01-2.04 2.56c-.78.48-1.49.64-1.96.69-.47.06-.72.01-.72.01z"/><path class="st11" d="M246.56 236.37c-.57.08-1.08.56-1.15 1.13-.07.57.32 1.18.89 1.31.56.13 1.37-.38 1.44-.95.08-.57-.16-1.38-1.18-1.49"/><path class="st6" d="M246.56 236.37c0-.03.11-.07.32-.04.2.02.52.11.78.42.25.31.41.77.28 1.32-.2.55-.69.92-1.32 1.01-.7.07-1.21-.46-1.37-.94-.19-.52 0-1.04.25-1.32.53-.59 1.08-.5 1.06-.45.02.08-.43.15-.77.66-.16.25-.24.6-.09.94.13.33.49.65.86.59.4-.04.81-.35.92-.65.1-.32.03-.72-.12-.95-.32-.47-.83-.49-.8-.59z"/><path class="st11" d="M246.59 248.3c-.57.08-1.08.56-1.15 1.13-.07.57.32 1.18.89 1.31.56.13 1.37-.38 1.44-.95.07-.57-.16-1.38-1.18-1.49"/><path class="st6" d="M246.59 248.3c0-.03.11-.07.32-.04.2.02.52.11.78.42.25.31.41.77.28 1.32-.2.55-.69.92-1.32 1.01-.7.07-1.21-.46-1.37-.94-.19-.52 0-1.04.25-1.32.53-.59 1.08-.5 1.06-.45.02.08-.43.15-.77.66-.16.25-.24.6-.09.94.13.33.49.65.86.59.4-.04.81-.35.92-.65.1-.32.03-.72-.12-.95-.33-.48-.84-.49-.8-.59z"/><path class="st11" d="M233.99 257.64c-2.67 0-4.84-2.17-4.84-4.84v-20.14c0-2.67 2.17-4.84 4.84-4.84s4.84 2.17 4.84 4.84v20.14c0 2.68-2.17 4.84-4.84 4.84z"/><path class="st6" d="M233.99 257.64c0-.03.25-.03.71-.11.46-.08 1.13-.27 1.86-.75.72-.48 1.5-1.3 1.88-2.49.2-.59.25-1.23.23-1.96-.01-.72-.01-1.48-.02-2.28-.02-3.22-.03-7.02-.06-11.23-.02-2.1.01-4.36-.04-6.61a4.6 4.6 0 00-1.45-2.9 4.581 4.581 0 00-3.11-1.22c-1.16 0-2.29.45-3.11 1.22a4.6 4.6 0 00-1.45 2.91c-.05 2.25-.02 4.51-.04 6.61-.02 4.21-.04 8.02-.06 11.23-.01.8-.01 1.56-.02 2.28-.02.73.03 1.37.23 1.96a4.804 4.804 0 003.74 3.24c.46.08.71.08.71.1 0 0-.25.05-.72-.01-.47-.05-1.18-.21-1.96-.69a4.893 4.893 0 01-2.04-2.56c-.23-.61-.29-1.34-.28-2.05-.01-.72-.01-1.48-.02-2.28-.02-3.22-.03-7.02-.06-11.23 0-2.12-.04-4.31.01-6.66.12-1.21.69-2.39 1.61-3.24a5.08 5.08 0 013.46-1.36c1.29 0 2.55.51 3.46 1.36.92.85 1.49 2.03 1.61 3.24.05 2.35.01 4.53.01 6.66-.02 4.21-.04 8.02-.06 11.23-.01.8-.01 1.56-.02 2.28.01.71-.05 1.44-.28 2.05a4.9 4.9 0 01-2.04 2.56c-.78.48-1.49.64-1.96.69-.47.06-.72.01-.72.01z"/><path class="st11" d="M233.97 236.37c-.57.08-1.08.56-1.15 1.13-.07.57.32 1.18.89 1.31s1.37-.38 1.44-.95c.08-.57-.16-1.38-1.18-1.49"/><path class="st6" d="M233.97 236.37c0-.03.11-.07.32-.04.2.02.52.11.78.42.25.31.41.77.28 1.32-.2.55-.69.92-1.32 1.01-.7.07-1.21-.46-1.37-.94-.19-.52 0-1.04.25-1.32.53-.59 1.08-.5 1.06-.45.02.08-.43.15-.77.66-.16.25-.24.6-.09.94.13.33.49.65.86.59.4-.04.81-.35.92-.65.1-.32.03-.72-.12-.95-.32-.47-.83-.49-.8-.59z"/><path class="st11" d="M228.95 241.83c2.88 1.98 6.84 2.28 9.99.76"/><path class="st6" d="M238.94 242.59c.03.05-.47.4-1.38.72-.91.33-2.25.58-3.74.47-1.48-.12-2.77-.57-3.62-1.03-.85-.46-1.29-.88-1.25-.92.08-.15 2.06 1.24 4.92 1.44 2.85.24 5.02-.83 5.07-.68z"/><path class="st11" d="M302.02 247.86c-2.67 0-4.84-2.17-4.84-4.84v-20.14c0-2.67 2.17-4.84 4.84-4.84s4.84 2.17 4.84 4.84v20.14c0 2.67-2.17 4.84-4.84 4.84z"/><path class="st6" d="M302.02 247.86c0-.03.25-.03.71-.11.46-.08 1.13-.27 1.86-.75.72-.48 1.5-1.3 1.88-2.49.2-.59.25-1.23.23-1.96-.01-.72-.01-1.48-.02-2.28-.02-3.22-.03-7.02-.06-11.23-.02-2.1.01-4.36-.04-6.61a4.6 4.6 0 00-1.45-2.9 4.581 4.581 0 00-3.11-1.22c-1.16 0-2.29.45-3.11 1.22a4.6 4.6 0 00-1.45 2.91c-.05 2.25-.02 4.51-.04 6.61-.02 4.21-.04 8.02-.06 11.23-.01.8-.01 1.56-.02 2.28-.02.73.03 1.37.23 1.96a4.804 4.804 0 003.74 3.24c.46.07.71.07.71.1 0 0-.25.05-.72-.01-.47-.05-1.18-.21-1.96-.69a4.893 4.893 0 01-2.04-2.56c-.23-.61-.29-1.34-.28-2.05-.01-.72-.01-1.48-.02-2.28-.02-3.22-.03-7.02-.06-11.23 0-2.12-.04-4.31.01-6.66.12-1.21.69-2.39 1.61-3.24a5.08 5.08 0 013.46-1.36c1.29 0 2.55.51 3.46 1.36.92.85 1.49 2.03 1.61 3.24.05 2.35.01 4.53.01 6.66-.02 4.21-.04 8.02-.06 11.23-.01.8-.01 1.56-.02 2.28.01.71-.05 1.44-.28 2.05a4.9 4.9 0 01-2.04 2.56c-.78.48-1.49.64-1.96.69-.47.06-.72.01-.72.01z"/><path class="st11" d="M302 225.62c-.57.08-1.08.56-1.15 1.13-.07.57.32 1.18.89 1.31.56.13 1.37-.38 1.44-.95.08-.57-.16-1.39-1.18-1.49"/><path class="st6" d="M302 225.62c0-.03.11-.07.32-.04.2.02.52.11.78.42.25.31.41.77.28 1.32-.2.55-.69.92-1.32 1.01-.7.07-1.21-.46-1.37-.94-.19-.52 0-1.04.25-1.32.53-.59 1.08-.5 1.06-.45.02.08-.43.15-.77.66-.16.25-.24.6-.09.94.13.33.49.65.86.59.4-.04.81-.35.92-.65.1-.32.03-.72-.12-.95-.33-.48-.83-.49-.8-.59z"/><path class="st11" d="M302.02 237.55c-.57.08-1.08.56-1.15 1.13-.07.57.32 1.18.89 1.31.56.13 1.37-.38 1.44-.95.08-.58-.15-1.39-1.18-1.49"/><path class="st6" d="M302.02 237.55c0-.03.11-.07.32-.04.2.02.52.11.78.42.25.31.41.77.28 1.32-.2.55-.69.92-1.32 1.01-.7.07-1.21-.46-1.37-.94-.19-.52 0-1.04.25-1.32.53-.59 1.08-.5 1.06-.45.02.08-.43.15-.77.66-.16.25-.24.6-.09.94.13.33.49.65.86.59.4-.04.81-.35.92-.65.1-.32.03-.72-.12-.95-.32-.48-.83-.49-.8-.59z"/><path class="st11" d="M288.95 252.51c-2.67 0-4.84-2.17-4.84-4.84v-20.14c0-2.67 2.17-4.84 4.84-4.84s4.84 2.17 4.84 4.84v20.14c0 2.68-2.16 4.84-4.84 4.84z"/><path class="st6" d="M288.95 252.51c0-.03.25-.03.71-.11.46-.08 1.13-.27 1.86-.75.72-.48 1.5-1.3 1.88-2.49.2-.59.25-1.23.23-1.96-.01-.72-.01-1.48-.02-2.28-.02-3.22-.03-7.02-.06-11.23-.02-2.1.01-4.36-.04-6.61a4.6 4.6 0 00-1.45-2.9 4.581 4.581 0 00-3.11-1.22c-1.16 0-2.29.45-3.11 1.22a4.6 4.6 0 00-1.45 2.91c-.05 2.25-.02 4.51-.04 6.61-.02 4.21-.04 8.02-.06 11.23-.01.8-.01 1.56-.02 2.28-.02.73.03 1.37.23 1.96a4.804 4.804 0 003.74 3.24c.46.08.71.07.71.1 0 0-.25.05-.72-.01-.47-.05-1.18-.21-1.96-.69a4.893 4.893 0 01-2.04-2.56c-.23-.61-.29-1.34-.28-2.05-.01-.72-.01-1.48-.02-2.28-.02-3.22-.03-7.02-.06-11.23 0-2.12-.04-4.31.01-6.66.12-1.21.69-2.39 1.61-3.24a5.08 5.08 0 013.46-1.36c1.29 0 2.55.51 3.46 1.36.92.85 1.49 2.03 1.61 3.24.05 2.35.01 4.53.01 6.66-.02 4.21-.04 8.02-.06 11.23-.01.8-.01 1.56-.02 2.28.01.71-.05 1.44-.28 2.05a4.9 4.9 0 01-2.04 2.56c-.78.48-1.49.64-1.96.69-.47.06-.72.01-.72.01z"/><path class="st11" d="M288.94 231.24c-.57.08-1.08.56-1.15 1.13-.07.57.32 1.18.89 1.31.56.13 1.37-.38 1.44-.95.07-.58-.16-1.39-1.18-1.49"/><path class="st6" d="M288.94 231.24c0-.03.11-.07.32-.04.2.02.52.11.78.42.25.31.41.77.28 1.32-.2.55-.69.92-1.32 1.01-.7.07-1.21-.46-1.37-.94-.19-.52 0-1.04.25-1.32.53-.59 1.08-.5 1.06-.45.02.08-.43.15-.77.66-.16.25-.24.6-.09.94.13.33.49.65.86.59.4-.04.81-.35.92-.65.1-.32.03-.72-.12-.95-.33-.48-.84-.49-.8-.59z"/><path class="st11" d="M283.91 236.7c2.88 1.98 6.84 2.28 9.99.76"/><path class="st6" d="M293.9 237.46c.03.05-.47.4-1.38.72-.91.33-2.25.58-3.74.47-1.48-.12-2.77-.57-3.62-1.03-.85-.46-1.29-.88-1.25-.92.08-.15 2.06 1.24 4.92 1.44 2.85.24 5.02-.84 5.07-.68z"/><path class="st11" d="M221.91 264.1a5.018 5.018 0 01-4.94-5.1l.57-36.58a5.018 5.018 0 015.1-4.94c2.77.04 4.98 2.32 4.94 5.1l-.58 36.58a5.015 5.015 0 01-5.09 4.94z"/><path class="st6" d="M221.91 264.1c0-.03.37-.01 1.05-.15.66-.15 1.67-.51 2.57-1.46.44-.47.84-1.09 1.1-1.83.27-.75.25-1.61.25-2.56.02-1.89.04-4.03.06-6.39.06-4.75.13-10.38.2-16.64.04-3.13.09-6.42.14-9.82.01-.85.02-1.71.04-2.58.02-.83-.17-1.66-.56-2.4-.78-1.49-2.4-2.51-4.13-2.53-1.72-.03-3.38.93-4.21 2.39-.41.73-.63 1.55-.63 2.38-.01.87-.03 1.73-.04 2.58-.06 3.41-.11 6.69-.17 9.83-.12 6.25-.22 11.89-.31 16.64-.05 2.36-.1 4.5-.14 6.39-.02.95-.07 1.81.18 2.56.23.75.61 1.38 1.04 1.87.87.98 1.87 1.37 2.52 1.54.67.16 1.04.15 1.04.18 0 0-.37.05-1.07-.08-.68-.14-1.72-.51-2.65-1.51a5.19 5.19 0 01-1.13-1.93c-.27-.79-.24-1.71-.23-2.64.02-1.89.04-4.03.06-6.39.06-4.75.13-10.38.2-16.64.04-3.13.09-6.42.14-9.83.01-.85.02-1.71.04-2.58 0-.9.24-1.83.7-2.63.91-1.62 2.75-2.7 4.66-2.66 1.91.02 3.72 1.16 4.58 2.8.43.82.64 1.75.61 2.65-.01.87-.03 1.73-.04 2.58-.06 3.41-.11 6.69-.17 9.82-.12 6.25-.22 11.89-.31 16.64-.05 2.36-.1 4.5-.14 6.39-.02.93-.01 1.85-.31 2.63-.28.78-.71 1.42-1.18 1.9-.96.97-2.01 1.3-2.7 1.43-.69.11-1.06.05-1.06.05zM258.32 237.15l.88 13.5c.06.92.85 1.62 1.77 1.56l9.4-.61c.92-.06 1.62-.85 1.56-1.77l-.88-13.5c-.06-.92-.85-1.62-1.77-1.56l-9.4.61c-.92.06-1.62.85-1.56 1.77zm10.12 12.73l-6 .39c-.92.06-1.71-.64-1.77-1.56l-.62-9.49c-.06-.92.64-1.71 1.56-1.77l6-.39c.92-.06 1.71.64 1.77 1.56l.62 9.49c.06.92-.64 1.71-1.56 1.77z"/><path class="st6" d="M274.24 241.77c-.06.15-2.01-.84-4.6-.69-2.59.11-4.43 1.29-4.51 1.14-.03-.05.37-.42 1.16-.82.78-.4 1.97-.78 3.32-.85 1.35-.07 2.57.19 3.39.51.83.33 1.27.66 1.24.71zM274.51 245.29c-.06.15-1.94-.89-4.47-.68-2.53.16-4.24 1.46-4.32 1.32-.04-.05.33-.44 1.07-.88s1.89-.87 3.21-.96c1.32-.09 2.52.16 3.32.49.8.32 1.22.66 1.19.71z"/><path class="st7" d="M411.659 68.681l206.697-19.243L637.6 256.135 430.902 275.38z"/><path class="st6" d="M637.6 256.15s-.04-.33-.11-.97c-.06-.65-.16-1.6-.28-2.85-.24-2.52-.6-6.24-1.07-11.09-.92-9.71-2.27-23.93-3.99-42.02-3.4-36.16-8.26-87.8-14.09-149.74l.32.26c-60.08 5.61-131 12.22-206.67 19.28h-.02l.3-.36 19.2 206.7-.32-.26c61.96-5.71 113.6-10.46 149.77-13.79 18.1-1.65 32.32-2.95 42.03-3.84 4.85-.44 8.57-.77 11.09-1 1.25-.11 2.2-.19 2.85-.25.65-.05.99-.07.99-.07s-.31.04-.94.1c-.64.06-1.58.16-2.82.28-2.51.24-6.21.6-11.03 1.06-9.69.92-23.89 2.27-41.95 3.98-36.2 3.41-87.9 8.27-149.93 14.1l-.29.03-.03-.29c-5.61-60.07-12.22-131-19.29-206.69l-.03-.33.33-.03h.02c75.68-7.03 146.61-13.61 206.68-19.19l.29-.03.03.29c5.71 62.03 10.47 113.74 13.81 149.95 1.65 18.07 2.95 32.27 3.83 41.97.43 4.83.77 8.53.99 11.04.11 1.24.19 2.18.25 2.82.06.63.08.94.08.94z"/><path class="st0" d="M420.707 55.437l9.071-.845 2.05 22.025-9.07.845zM439.972 262.28l9.07-.844 2.051 22.025-9.07.845zM601.738 38.576l9.071-.845 2.05 22.025-9.07.845zM621.12 246.835l9.07-.844 2.051 22.025-9.07.844z"/><circle transform="rotate(-51.202 520.81 121.57)" class="st7" cx="520.83" cy="121.58" r="45.4"/><path class="st3" d="M520.79 167.63c-23.48 0-43.6-17.94-45.82-41.78-2.35-25.28 16.3-47.76 41.58-50.12 25.28-2.35 47.76 16.3 50.12 41.58 2.35 25.28-16.3 47.76-41.58 50.12-1.44.13-2.87.2-4.3.2zm.07-90.82c-1.38 0-2.78.06-4.18.19-24.58 2.29-42.71 24.14-40.42 48.72 1.11 11.91 6.79 22.67 15.99 30.3 9.2 7.63 20.82 11.23 32.73 10.12 24.58-2.29 42.71-24.14 40.42-48.72-2.16-23.16-21.71-40.61-44.54-40.61z"/><path class="st3" d="M541.93 116.35c-1.01-1.78-3.93-1.93-5.13-.26-.65.91-1.04 2.04-1.39 3.12-.89 2.75-1.68 5.53-2.54 8.29-.09.3-.44.51-.68.77-.19-.29-.5-.55-.54-.86-.22-1.57-.39-3.15-.54-4.74-.29-3.11-.53-6.21-.82-9.32-.48-5.22-.96-10.44-1.49-15.66-.06-.56-.33-1.19-.69-1.62-.82-.97-2.3-1.17-3.52-.63-1.03.45-1.68 1.64-1.56 2.95.5 5.54 1.02 11.08 1.54 16.61.02.26.11.54.04.77-.07.21-.31.48-.49.5-.18.02-.47-.2-.58-.4-.12-.21-.09-.51-.11-.76l-1.8-19.29c-.04-.4-.06-.81-.14-1.21-.25-1.16-.88-1.75-2.04-1.94-2.38-.4-3.95 1.05-3.73 3.45.58 6.35 1.18 12.69 1.77 19.04.03.37.1.76.05 1.12-.03.19-.27.48-.44.5-.19.02-.5-.18-.58-.36-.13-.31-.13-.67-.16-1.02-.48-5.08-.93-10.15-1.43-15.23-.17-1.76-1.42-2.71-3.18-2.54-1.76.17-2.79 1.36-2.64 3.1.49 5.39 1 10.79 1.5 16.18.03.32.13.65.06.95-.07.29-.31.54-.47.81-.23-.24-.64-.46-.67-.72-.22-1.96-.36-3.92-.54-5.88-.19-2.08-.36-4.16-.59-6.23-.18-1.61-1.54-2.57-3.25-2.39-1.53.17-2.44 1.29-2.34 2.87.26 4.07.52 8.15.79 12.22-.04 0 .04 0 0 0 .23 2.48.43 4.96.56 7.45.25 4.99 1.13 9.84 3.27 14.37 2.01 4.27 5.36 7.03 10.03 7.89 5.05.93 9.8-.14 14.12-2.84 2.91-1.82 5.08-4.37 5.96-7.73 1.65-6.29 3.17-12.61 4.67-18.93.16-.74.09-1.74-.28-2.4z"/><path class="st6" d="M508.2 206.21l-6.7.62.8 8.59-6.81.63-.8-8.59-20.74 1.93-.45-4.86 16.37-26.1 7.51-.7-15.39 24.92 12.37-1.15-.71-7.62 6.59-.61.71 7.62 6.7-.62.55 5.94zM510.21 195.61c-1.16-12.42 5-20.08 13.96-20.91 9.02-.84 16.48 5.55 17.64 17.97 1.16 12.42-5 20.08-14.02 20.92-8.96.84-16.42-5.55-17.58-17.98zm24.53-2.28c-.85-9.13-4.81-13.01-9.99-12.53-5.13.48-8.3 5.02-7.45 14.15.85 9.13 4.81 13.01 9.94 12.53 5.18-.47 8.35-5.02 7.5-14.15zM573.58 197.34c.59 6.37-3.7 12.33-13.86 13.28-5.35.5-10.85-.63-14.61-3.05l2.52-5.74c2.91 2.02 7.15 3.09 11.42 2.7 5.02-.47 7.79-2.96 7.46-6.47-.32-3.4-3.01-5.39-8.73-4.85l-3.46.32-.45-4.81 7.64-11.01-17.18 1.6-.55-5.89 25.77-2.4.44 4.7-8.17 11.77c7.22.25 11.23 4.18 11.76 9.85zM502.86 240.78l.5 5.34-3.12.29-1.41-15.16 5.91-.55c1.14-.11 2.16.01 3.06.34.9.34 1.62.87 2.16 1.59.54.72.85 1.58.94 2.55.14 1.49-.26 2.7-1.2 3.66-.94.95-2.3 1.51-4.1 1.68l-2.74.26zm-.24-2.53l2.79-.26c.83-.08 1.44-.33 1.83-.76.4-.43.56-1.01.5-1.73-.07-.74-.34-1.32-.82-1.74-.48-.42-1.11-.6-1.88-.54l-2.86.27.44 4.76zM520.2 244.55c-.17-.26-.3-.59-.4-.98-.65.88-1.56 1.38-2.73 1.48-1.1.1-2.05-.13-2.83-.7-.79-.57-1.22-1.34-1.31-2.31-.11-1.19.25-2.15 1.07-2.87.83-.72 2.08-1.16 3.75-1.33l1.38-.13-.06-.65c-.05-.52-.22-.92-.52-1.21-.3-.29-.73-.41-1.31-.35-.51.05-.89.21-1.16.48-.27.27-.38.62-.34 1.04l-3.01.28c-.06-.65.09-1.28.44-1.87s.88-1.08 1.59-1.47 1.52-.62 2.43-.7c1.39-.13 2.52.12 3.4.74.88.62 1.38 1.56 1.5 2.83l.46 4.88c.11 1.07.33 1.86.67 2.38l.02.18-3.04.28zm-2.68-1.86c.44-.04.84-.18 1.2-.41.36-.23.61-.52.76-.87l-.18-1.94-1.12.11c-1.51.14-2.26.74-2.26 1.79l.01.18c.03.37.2.67.48.89.28.21.65.29 1.11.25zM530.65 235.06c-.42-.02-.78-.01-1.09.02-1.14.11-1.85.56-2.13 1.36l.69 7.37-3.01.28-1.05-11.27 2.84-.26.21 1.33c.51-1.09 1.3-1.68 2.37-1.78.33-.03.65-.02.95.05l.22 2.9zM538.09 243.1c-1.65.15-3.04-.23-4.18-1.14-1.13-.92-1.78-2.22-1.93-3.91l-.03-.29c-.11-1.13.02-2.16.37-3.1.35-.93.91-1.68 1.67-2.23.76-.56 1.65-.88 2.68-.98 1.54-.14 2.8.23 3.77 1.12s1.55 2.23 1.71 4.01l.11 1.23-7.17.67c.17.73.51 1.29 1.04 1.69.53.4 1.17.56 1.92.49 1.16-.11 2.03-.61 2.6-1.51l1.63 1.52c-.39.68-.96 1.24-1.69 1.66-.72.42-1.56.68-2.5.77zm-1.2-9.23c-.6.06-1.06.3-1.4.74-.33.44-.52 1.04-.55 1.8l4.19-.39-.02-.24c-.08-.67-.31-1.17-.69-1.5-.39-.33-.9-.47-1.53-.41zM556.25 241.2c-.16-.26-.3-.59-.4-.98-.65.88-1.56 1.38-2.73 1.48-1.1.1-2.05-.13-2.83-.7-.79-.57-1.22-1.34-1.31-2.31-.11-1.19.25-2.15 1.07-2.87s2.07-1.16 3.75-1.33l1.38-.13-.06-.65c-.05-.52-.22-.92-.52-1.21-.3-.29-.73-.41-1.31-.35-.51.05-.89.21-1.16.48-.27.27-.38.62-.34 1.04l-3.01.28c-.06-.65.08-1.28.44-1.87s.88-1.08 1.59-1.47c.71-.38 1.52-.62 2.43-.7 1.39-.13 2.52.12 3.4.74s1.38 1.56 1.5 2.83l.46 4.88c.11 1.07.33 1.86.67 2.38l.02.18-3.04.28zm-2.68-1.87c.44-.04.84-.18 1.2-.41.36-.23.61-.52.76-.87l-.18-1.94-1.12.11c-1.51.14-2.26.74-2.26 1.79l.01.18c.03.37.2.67.48.89.28.21.65.3 1.11.25zM562.05 224.68l3.28-.31-2.58 3.5-2.45.23 1.75-3.42zm2.36 15.76l-3.01.28-1.05-11.27 3.01-.28 1.05 11.27z"/></svg>